SplineFontDB: 3.0
FontName: NovaOval
FullName: NovaOval
FamilyName: NovaOval
Weight: Regular
Copyright: wmk69 (wmk69@o2.pl)\nSIL Open Font License v.1.1
Version: 1.22
ItalicAngle: 0
UnderlinePosition: -81
UnderlineWidth: 122
Ascent: 1511
Descent: 537
LayerCount: 2
Layer: 0 1 "Warstwa t+AUIA-a"  1
Layer: 1 1 "Plan pierwszy"  0
XUID: [1021 783 23647091 7762759]
FSType: 0
OS2Version: 3
OS2_WeightWidthSlopeOnly: 0
OS2_UseTypoMetrics: 1
CreationTime: 1260698820
ModificationTime: 1306680314
PfmFamily: 33
TTFWeight: 500
TTFWidth: 5
LineGap: 0
VLineGap: 0
Panose: 2 12 6 4 2 2 2 6 2 4
OS2TypoAscent: 2095
OS2TypoAOffset: 0
OS2TypoDescent: -566
OS2TypoDOffset: 0
OS2TypoLinegap: 0
OS2WinAscent: 2095
OS2WinAOffset: 0
OS2WinDescent: 566
OS2WinDOffset: 0
HheadAscent: 2095
HheadAOffset: 0
HheadDescent: -566
HheadDOffset: 0
OS2SubXSize: 1434
OS2SubYSize: 1331
OS2SubXOff: 0
OS2SubYOff: 287
OS2SupXSize: 1434
OS2SupYSize: 1331
OS2SupXOff: 0
OS2SupYOff: 977
OS2StrikeYSize: 102
OS2StrikeYPos: 512
OS2Vendor: '    '
OS2CodePages: 20000093.00000000
OS2UnicodeRanges: 8000002f.4000204b.00000000.00000000
Lookup: 258 0 0 "'kern' Kerning poziomy w tablicy 0"  {"Podtablica 'kern' Kerning poziomy w tablicy 0"  } ['kern' ('DFLT' <'dflt' > 'grek' <'dflt' > 'latn' <'dflt' > ) ]
DEI: 91125
KernClass2: 29 17 "Podtablica 'kern' Kerning poziomy w tablicy 0" 
 147 A D H M N V W Agrave Aacute Acircumflex Atilde Adieresis Aring Eth Ntilde Dcaron Dcroat Hcircumflex Hbar Nacute Ncommaaccent Ncaron Eng Wcircumflex
 12 B germandbls
 183 C G O Q Ccedilla Ograve Oacute Ocircumflex Otilde Odieresis Oslash Cacute Ccircumflex Cdotaccent Ccaron Gcircumflex Gbreve Gdotaccent Gcommaaccent Omacron Obreve Ohungarumlaut uni01E4
 81 E AE Egrave Eacute Ecircumflex Edieresis Emacron Ebreve Edotaccent Eogonek Ecaron
 1 F
 182 I J U Y Igrave Iacute Icircumflex Ugrave Uacute Ucircumflex Udieresis Yacute Iogonek Idotaccent IJ Jcircumflex Utilde Umacron Ubreve Uring Uhungarumlaut Uogonek Ycircumflex Ydieresis
 14 K Kcommaaccent

StartChar: .notdef
Encoding: 65536 -1 0
Width: 844
Flags: W
HStem: 0 68<218 626> 1297 68<218 626>
VStem: 150 68<68 1297> 626 68<68 1297>
LayerCount: 2
Fore
SplineSet
150 0 m 1,0,-1
 150 1365 l 1,1,-1
 694 1365 l 1,2,-1
 694 0 l 1,3,-1
 150 0 l 1,0,-1
218 68 m 1,4,-1
 626 68 l 1,5,-1
 626 1297 l 1,6,-1
 218 1297 l 1,7,-1
 218 68 l 1,4,-1
EndSplineSet
Validated: 1
EndChar

StartChar: exclam
Encoding: 33 33 4
Width: 600
GlyphClass: 2
Flags: W
HStem: 0 264<209.191 390.809> 1492 20G<353.556 398>
VStem: 170 260<39.7072 224.293> 200 198<404 1422>
LayerCount: 2
Fore
SplineSet
170 132 m 128,-1,1
 170 187 170 187 208 225.5 c 128,-1,2
 246 264 246 264 300 264 c 128,-1,3
 354 264 354 264 392 225.5 c 128,-1,4
 430 187 430 187 430 132 c 128,-1,5
 430 77 430 77 392 38.5 c 128,-1,6
 354 0 354 0 300 0 c 128,-1,7
 246 0 246 0 208 38.5 c 128,-1,0
 170 77 170 77 170 132 c 128,-1,1
198 1422 m 1,8,-1
 398 1512 l 1,9,-1
 398 404 l 1,10,-1
 200 312 l 1,11,-1
 198 1422 l 1,8,-1
EndSplineSet
Validated: 16385
EndChar

StartChar: quotedbl
Encoding: 34 34 5
Width: 972
GlyphClass: 2
Flags: W
HStem: 985 530
VStem: 223 200<1063 1449> 549 200<1066 1452>
LayerCount: 2
Fore
SplineSet
749 1515 m 1,0,-1
 749 1066 l 1,1,-1
 549 985 l 1,2,-1
 549 1452 l 1,3,-1
 749 1515 l 1,0,-1
423 1512 m 1,4,-1
 423 1063 l 1,5,-1
 223 982 l 1,6,-1
 223 1449 l 1,7,-1
 423 1512 l 1,4,-1
EndSplineSet
Validated: 16385
EndChar

StartChar: numbersign
Encoding: 35 35 6
Width: 1355
GlyphClass: 2
Flags: W
HStem: 491 198<241 416 614 742 940 1113> 817 198<240 415 613 741 939 1112>
VStem: 416 198<316 491 689 817 1015 1188> 742 198<315 490 688 816 1014 1187>
LayerCount: 2
Fore
SplineSet
614 316 m 1,0,-1
 416 226 l 1,1,-1
 416 491 l 1,2,-1
 151 491 l 1,3,-1
 241 689 l 1,4,-1
 416 689 l 1,5,-1
 415 817 l 1,6,-1
 150 817 l 1,7,-1
 240 1015 l 1,8,-1
 415 1015 l 1,9,-1
 415 1188 l 1,10,-1
 613 1280 l 1,11,-1
 613 1015 l 1,12,-1
 741 1014 l 1,13,-1
 741 1187 l 1,14,-1
 939 1279 l 1,15,-1
 939 1014 l 1,16,-1
 1204 1014 l 1,17,-1
 1112 816 l 1,18,-1
 939 816 l 1,19,-1
 940 688 l 1,20,-1
 1205 688 l 1,21,-1
 1113 490 l 1,22,-1
 940 490 l 1,23,-1
 940 315 l 1,24,-1
 742 225 l 1,25,-1
 742 490 l 1,26,-1
 614 491 l 1,27,-1
 614 316 l 1,0,-1
614 689 m 1,28,-1
 742 688 l 1,29,-1
 741 816 l 1,30,-1
 613 817 l 1,31,-1
 614 689 l 1,28,-1
EndSplineSet
Validated: 16385
EndChar

StartChar: dollar
Encoding: 36 36 7
Width: 1241
GlyphClass: 2
Flags: W
VStem: 503 197<-112 9.83081 213 706 973 1300 1492.95 1588> 914 197<329.042 616.25>
DStem2: 446 992 338 830 0.944252 -0.329222<-90.6142 60.0776 333.998 548.47>
LayerCount: 2
Fore
SplineSet
330 452 m 1,0,1
 330 426 330 426 336 398 c 0,2,3
 353 320 353 320 413 268 c 0,4,5
 455 232 455 232 503 213 c 1,6,-1
 503 773 l 1,7,-1
 338 830 l 1,8,9
 197 894 197 894 174 1081 c 1,10,-1
 173 1098 l 1,11,12
 173 1267 173 1267 294 1389 c 0,13,14
 385 1481 385 1481 503 1504 c 1,15,-1
 503 1588 l 1,16,-1
 701 1677 l 1,17,-1
 701 1496 l 1,18,19
 784 1471 784 1471 858 1410 c 0,20,21
 938 1344 938 1344 970 1258 c 1,22,-1
 784 1206 l 1,23,24
 750 1271 750 1271 701 1300 c 1,25,-1
 701 906 l 1,26,27
 949 822 949 822 968 810 c 0,28,29
 1094 730 1094 730 1110 531 c 1,30,-1
 1111 490 l 1,31,32
 1111 287 1111 287 966 142 c 0,33,34
 850 26 850 26 700 1 c 1,35,-1
 700 -112 l 1,36,-1
 503 -204 l 1,37,-1
 503 13 l 1,38,39
 346 50 346 50 260 136 c 1,40,41
 174 229 174 229 135 337 c 1,42,-1
 130 358 l 1,43,-1
 330 452 l 1,0,1
700 706 m 1,44,-1
 700 196 l 1,45,46
 775 213 775 213 838 280 c 1,47,48
 914 372 914 372 914 497 c 1,49,-1
 913 525 l 1,50,51
 886 634 886 634 798 672 c 1,52,-1
 700 706 l 1,44,-1
503 973 m 1,53,-1
 503 1315 l 1,54,55
 467 1301 467 1301 437 1274 c 0,56,57
 366 1210 366 1210 366 1128 c 0,58,59
 366 1126 366 1126 367 1113 c 2,60,-1
 368 1100 l 2,61,62
 374 1016 374 1016 446 992 c 2,63,-1
 503 973 l 1,53,-1
EndSplineSet
Validated: 16385
EndChar

StartChar: percent
Encoding: 37 37 8
Width: 1734
GlyphClass: 2
Flags: W
HStem: 0 151<1217.78 1403.67> 542 147<1216.21 1404.56> 823 151<330.779 516.675> 1365 147<329.213 517.561>
VStem: 120 157<1029.42 1312.25> 571 157<1029.37 1309.03> 1007 157<206.418 489.252> 1458 157<206.37 486.03>
DStem2: 319 -135 498 -219 0.435903 0.899994<2.42717 1984.44>
LayerCount: 2
Fore
SplineSet
1458 344 m 0,0,1
 1458 420 1458 420 1415 484 c 0,2,3
 1375 542 1375 542 1311 542 c 0,4,5
 1245 542 1245 542 1205 484 c 0,6,7
 1164 426 1164 426 1164 346 c 0,8,9
 1164 265 1164 265 1207 208 c 128,-1,10
 1250 151 1250 151 1311 151 c 0,11,12
 1371 151 1371 151 1415 208 c 0,13,14
 1458 264 1458 264 1458 344 c 0,0,1
1615 336 m 0,15,16
 1615 250 1615 250 1574 172 c 0,17,18
 1532 92 1532 92 1464 46 c 128,-1,19
 1396 0 1396 0 1311 0 c 0,20,21
 1234 0 1234 0 1158 46 c 0,22,23
 1083 91 1083 91 1042 169 c 0,24,25
 1007 235 1007 235 1007 337 c 0,26,27
 1007 438 1007 438 1048 517 c 0,28,29
 1090 598 1090 598 1158 643 c 0,30,31
 1228 689 1228 689 1311 689 c 0,32,33
 1393 689 1393 689 1464 643 c 0,34,35
 1532 599 1532 599 1574 517 c 0,36,37
 1615 437 1615 437 1615 336 c 0,15,16
571 1167 m 0,38,39
 571 1243 571 1243 528 1307 c 0,40,41
 488 1365 488 1365 424 1365 c 0,42,43
 358 1365 358 1365 318 1307 c 0,44,45
 277 1249 277 1249 277 1169 c 0,46,47
 277 1088 277 1088 320 1031 c 128,-1,48
 363 974 363 974 424 974 c 0,49,50
 484 974 484 974 528 1031 c 0,51,52
 571 1087 571 1087 571 1167 c 0,38,39
728 1159 m 0,53,54
 728 1073 728 1073 687 995 c 0,55,56
 645 915 645 915 577 869 c 128,-1,57
 509 823 509 823 424 823 c 0,58,59
 347 823 347 823 271 869 c 0,60,61
 196 914 196 914 155 992 c 0,62,63
 120 1058 120 1058 120 1160 c 0,64,65
 120 1261 120 1261 161 1340 c 0,66,67
 203 1421 203 1421 271 1466 c 0,68,69
 341 1512 341 1512 424 1512 c 0,70,71
 506 1512 506 1512 577 1466 c 0,72,73
 645 1422 645 1422 687 1340 c 0,74,75
 728 1260 728 1260 728 1159 c 0,53,54
319 -135 m 1,76,-1
 1184 1651 l 1,77,-1
 1364 1569 l 1,78,-1
 498 -219 l 1,79,-1
 319 -135 l 1,76,-1
EndSplineSet
Validated: 16385
EndChar

StartChar: ampersand
Encoding: 38 38 9
Width: 1641
GlyphClass: 2
Flags: W
HStem: 0 21G<1272.17 1329.15> 744 197<511.625 681> 1316 179<509.408 864>
VStem: 150 192<326.471 630.516> 262 196<995.177 1267.92>
DStem2: 662 205 751 17 0.652678 0.757636<0 334.214 560.875 999.752> 770 940 681 744 0.632743 -0.774362<95.4607 403.3 627.166 1055.66>
LayerCount: 2
Fore
SplineSet
770 940 m 1,0,-1
 1028 630 l 1,1,-1
 1322 956 l 1,2,-1
 1491 876 l 1,3,-1
 1146 480 l 1,4,-1
 1467 87 l 1,5,-1
 1288 0 l 1,6,-1
 1022 336 l 1,7,-1
 751 17 l 1,8,-1
 634 18 l 2,9,10
 415 20 415 20 283 151 c 1,11,12
 150 277 150 277 150 462 c 0,13,14
 150 653 150 653 273 796 c 0,15,16
 310 839 310 839 366 874 c 1,17,-1
 348 893 l 1,18,19
 262 989 262 989 262 1138 c 0,20,21
 262 1264 262 1264 348 1376 c 0,22,23
 439 1494 439 1494 666 1495 c 2,24,-1
 946 1496 l 1,25,-1
 864 1316 l 1,26,-1
 671 1316 l 2,27,28
 518 1316 518 1316 478 1234 c 0,29,30
 458 1193 458 1193 458 1136 c 2,31,-1
 458 1126 l 2,32,33
 458 1074 458 1074 486 1020 c 0,34,35
 527 941 527 941 650 941 c 2,36,-1
 653 941 l 1,37,-1
 770 940 l 1,0,-1
681 744 m 1,38,-1
 629 744 l 2,39,40
 473 744 473 744 414 672 c 0,41,42
 342 584 342 584 342 475 c 2,43,-1
 342 472 l 2,44,45
 342 362 342 362 422 282 c 0,46,47
 486 218 486 218 635 207 c 2,48,-1
 662 205 l 1,49,-1
 907 483 l 1,50,-1
 681 744 l 1,38,-1
EndSplineSet
Validated: 16385
EndChar

StartChar: quotesingle
Encoding: 39 39 10
Width: 648
GlyphClass: 2
Flags: W
HStem: 982 530
VStem: 224 200<1063 1449>
LayerCount: 2
Fore
SplineSet
424 1512 m 1,0,-1
 424 1063 l 1,1,-1
 224 982 l 1,2,-1
 224 1449 l 1,3,-1
 424 1512 l 1,0,-1
EndSplineSet
Validated: 1
EndChar

StartChar: parenleft
Encoding: 40 40 11
Width: 740
GlyphClass: 2
Flags: W
VStem: 150 189<355.591 1077.12>
DStem2: 360 1537 546 1477 0.467888 0.883788<-395.514 235.16> 546 -48 360 -108 0.480011 -0.877262<-399.366 205.015>
LayerCount: 2
Fore
SplineSet
150 714 m 0,0,1
 150 940 150 940 217 1192 c 0,2,3
 259 1348 259 1348 360 1537 c 0,4,5
 387 1588 387 1588 387 1588 c 1,6,7
 414 1636 414 1636 480 1744 c 1,8,-1
 660 1659 l 1,9,10
 588 1566 588 1566 570 1528 c 1,11,12
 567 1514 567 1514 546 1477 c 0,13,14
 475 1352 475 1352 402 1138 c 0,15,16
 339 953 339 953 339 717 c 0,17,18
 339 497 339 497 402 291 c 0,19,20
 454 121 454 121 546 -48 c 0,21,22
 566 -85 566 -85 570 -99 c 1,23,24
 579 -118 579 -118 651 -237 c 1,25,-1
 476 -320 l 1,26,27
 408 -202 408 -202 387 -159 c 0,28,29
 383 -151 383 -151 360 -108 c 0,30,31
 275 50 275 50 217 238 c 0,32,33
 150 453 150 453 150 714 c 0,0,1
EndSplineSet
Validated: 16385
EndChar

StartChar: parenright
Encoding: 41 41 12
Width: 740
GlyphClass: 2
Flags: W
VStem: 401 189<355.591 1077.12>
DStem2: 89 -237 264 -320 0.480011 0.877262<11.1892 622.114> 353 1588 170 1528 0.467888 -0.883788<-177.454 445.27>
LayerCount: 2
Fore
SplineSet
590 714 m 0,0,1
 590 453 590 453 523 238 c 0,2,3
 465 50 465 50 380 -108 c 0,4,5
 357 -151 357 -151 353 -159 c 0,6,7
 332 -202 332 -202 264 -320 c 1,8,-1
 89 -237 l 1,9,10
 161 -118 161 -118 170 -99 c 1,11,12
 174 -85 174 -85 194 -48 c 0,13,14
 286 121 286 121 338 291 c 0,15,16
 401 497 401 497 401 717 c 0,17,18
 401 953 401 953 338 1138 c 0,19,20
 265 1352 265 1352 194 1477 c 0,21,22
 173 1514 173 1514 170 1528 c 1,23,24
 152 1566 152 1566 80 1659 c 1,25,-1
 260 1744 l 1,26,27
 326 1636 326 1636 353 1588 c 1,28,29
 353 1588 353 1588 380 1537 c 0,30,31
 481 1348 481 1348 523 1192 c 0,32,33
 590 940 590 940 590 714 c 0,0,1
EndSplineSet
Validated: 16385
EndChar

StartChar: asterisk
Encoding: 42 42 13
Width: 1198
GlyphClass: 2
Flags: W
HStem: 1492 20G<654.957 698>
VStem: 500 198<679 879 1222 1420>
DStem2: 329 1321 150 1196 0.865645 -0.500658<0 197.59 540.8 740.536> 150 905 327 779 0.865645 0.500658<90.1364 289.872 633.082 830.673>
LayerCount: 2
Fore
SplineSet
698 679 m 1,0,-1
 500 589 l 1,1,-1
 500 879 l 1,2,-1
 327 779 l 1,3,-1
 150 905 l 1,4,-1
 401 1050 l 1,5,-1
 150 1196 l 1,6,-1
 329 1321 l 1,7,-1
 500 1222 l 1,8,-1
 500 1420 l 1,9,-1
 698 1512 l 1,10,-1
 698 1222 l 1,11,-1
 869 1321 l 1,12,-1
 1048 1196 l 1,13,-1
 797 1050 l 1,14,-1
 1048 905 l 1,15,-1
 871 779 l 1,16,-1
 698 879 l 1,17,-1
 698 679 l 1,0,-1
EndSplineSet
Validated: 1
EndChar

StartChar: plus
Encoding: 43 43 14
Width: 1083
GlyphClass: 2
Flags: W
HStem: 600 198<170 442 640 911>
VStem: 442 198<328 600 798 1068>
LayerCount: 2
Fore
SplineSet
640 328 m 1,0,-1
 442 238 l 1,1,-1
 442 600 l 1,2,-1
 80 600 l 1,3,-1
 170 798 l 1,4,-1
 442 798 l 1,5,-1
 442 1068 l 1,6,-1
 640 1160 l 1,7,-1
 640 798 l 1,8,-1
 1003 798 l 1,9,-1
 911 600 l 1,10,-1
 640 600 l 1,11,-1
 640 328 l 1,0,-1
EndSplineSet
Validated: 1
EndChar

StartChar: comma
Encoding: 44 44 15
Width: 608
GlyphClass: 2
Flags: W
HStem: -262 542
VStem: 110 348
DStem2: 110 -177 299 -262 0.328601 0.944469<0 464.751>
LayerCount: 2
Fore
SplineSet
299 -262 m 1,0,-1
 110 -177 l 1,1,-1
 269 280 l 1,2,-1
 458 194 l 1,3,-1
 299 -262 l 1,0,-1
EndSplineSet
Validated: 16385
EndChar

StartChar: hyphen
Encoding: 45 45 16
Width: 1083
GlyphClass: 2
Flags: W
HStem: 600 198<170 911>
LayerCount: 2
Fore
SplineSet
170 798 m 1,0,-1
 1003 798 l 1,1,-1
 911 600 l 1,2,-1
 80 600 l 1,3,-1
 170 798 l 1,0,-1
EndSplineSet
Validated: 1
EndChar

StartChar: period
Encoding: 46 46 17
Width: 560
GlyphClass: 2
Flags: W
HStem: 0 264<189.191 370.809>
VStem: 150 260<39.7072 224.293>
LayerCount: 2
Fore
SplineSet
150 132 m 128,-1,1
 150 187 150 187 188 225.5 c 128,-1,2
 226 264 226 264 280 264 c 128,-1,3
 334 264 334 264 372 225.5 c 128,-1,4
 410 187 410 187 410 132 c 128,-1,5
 410 77 410 77 372 38.5 c 128,-1,6
 334 0 334 0 280 0 c 128,-1,7
 226 0 226 0 188 38.5 c 128,-1,0
 150 77 150 77 150 132 c 128,-1,1
EndSplineSet
Validated: 1
EndChar

StartChar: slash
Encoding: 47 47 18
Width: 1065
GlyphClass: 2
Flags: W
DStem2: 10 -132 189 -216 0.435903 0.899994<2.42717 1984.44>
LayerCount: 2
Fore
SplineSet
10 -132 m 1,0,-1
 875 1654 l 1,1,-1
 1055 1572 l 1,2,-1
 189 -216 l 1,3,-1
 10 -132 l 1,0,-1
EndSplineSet
Validated: 1
EndChar

StartChar: zero
Encoding: 48 48 19
Width: 1324
GlyphClass: 2
Flags: W
HStem: -1 194<526.936 810.151> 1328 190<526.432 807.636>
VStem: 100 207<485.096 1031.82> 1029 195<490.543 1030.89>
LayerCount: 2
Fore
SplineSet
307 760 m 128,-1,1
 307 605 307 605 355 476 c 0,2,3
 406 339 406 339 486 268 c 0,4,5
 570 193 570 193 668 193 c 0,6,7
 767 193 767 193 849 268 c 0,8,9
 930 342 930 342 980 476 c 0,10,11
 1029 607 1029 607 1029 754 c 0,12,13
 1029 757 1029 757 1029 760 c 0,14,15
 1029 913 1029 913 980 1045 c 0,16,17
 930 1179 930 1179 849 1252 c 0,18,19
 765 1328 765 1328 667 1328 c 0,20,21
 570 1328 570 1328 486 1252 c 0,22,23
 406 1180 406 1180 356 1045 c 0,24,0
 307 915 307 915 307 760 c 128,-1,1
100 758 m 0,25,26
 100 912 100 912 144 1053 c 0,27,28
 188 1195 188 1195 264 1296 c 0,29,30
 339 1396 339 1396 444 1457 c 0,31,32
 548 1518 548 1518 662 1518 c 0,33,34
 774 1518 774 1518 880 1457 c 0,35,36
 984 1397 984 1397 1060 1296 c 0,37,38
 1135 1196 1135 1196 1180 1053 c 0,39,40
 1224 912 1224 912 1224 758 c 0,41,42
 1224 605 1224 605 1180 464 c 0,43,44
 1136 322 1136 322 1060 221 c 0,45,46
 986 122 986 122 880 60 c 0,47,48
 776 -1 776 -1 662 -1 c 0,49,50
 550 -1 550 -1 444 60 c 0,51,52
 340 120 340 120 264 221 c 128,-1,53
 188 322 188 322 144 464 c 0,54,55
 100 605 100 605 100 758 c 0,25,26
EndSplineSet
Validated: 16385
EndChar

StartChar: one
Encoding: 49 49 20
Width: 790
GlyphClass: 2
Flags: W
HStem: 0 21G<343.984 386.609> 1493 20G<257.392 405>
VStem: 344 196<92 1307.57>
DStem2: 10 1212 150 1138 0.660797 0.750565<36.9697 271.553>
LayerCount: 2
Fore
SplineSet
275 1513 m 1,0,-1
 287 1513 l 2,1,2
 523 1513 523 1513 539 1301 c 1,3,-1
 540 92 l 1,4,-1
 344 0 l 1,5,-1
 343 1253 l 2,6,7
 343 1308 343 1308 303 1312 c 1,8,-1
 150 1138 l 1,9,-1
 10 1212 l 1,10,-1
 275 1513 l 1,0,-1
EndSplineSet
Validated: 1
EndChar

StartChar: two
Encoding: 50 50 21
Width: 1338
GlyphClass: 2
Flags: W
HStem: 0 186<353.007 974.117> 1328 183<495.56 810.536>
VStem: 159 202<999 1184.22> 949 197<967 1179.54>
LayerCount: 2
Fore
SplineSet
348 189 m 1,0,1
 370 186 370 186 448 186 c 0,2,3
 490 186 490 186 560 187 c 0,4,5
 712 189 712 189 885 195 c 0,6,7
 947 197 947 197 975 211 c 0,8,9
 1009 228 1009 228 1026 289 c 1,10,-1
 1188 205 l 1,11,12
 1133 18 1133 18 878 4 c 1,13,-1
 402 0 l 1,14,15
 166 0 166 0 150 214 c 1,16,17
 221 489 221 489 576 672 c 1,18,-1
 639 705 l 1,19,20
 891 792 891 792 941 967 c 1,21,-1
 949 1011 l 1,22,23
 949 1140 949 1140 865 1238 c 0,24,25
 788 1328 788 1328 630 1328 c 0,26,27
 526 1328 526 1328 443 1238 c 0,28,29
 361 1149 361 1149 361 1011 c 2,30,-1
 361 999 l 1,31,-1
 163 910 l 1,32,-1
 159 1018 l 1,33,34
 159 1220 159 1220 304 1367 c 1,35,36
 449 1511 449 1511 653 1511 c 128,-1,37
 857 1511 857 1511 1001.5 1366.5 c 128,-1,38
 1146 1222 1146 1222 1146 1018 c 1,39,-1
 1145 977 l 1,40,41
 1116 798 1116 798 1003 698 c 0,42,43
 907 613 907 613 723 546 c 1,44,45
 354 390 354 390 348 189 c 1,0,1
EndSplineSet
Validated: 1
EndChar

StartChar: three
Encoding: 51 51 22
Width: 1286
GlyphClass: 2
Flags: W
HStem: 4 192<487.93 805.934> 1298 194<284 836>
VStem: 150 198<349.076 524>
DStem2: 545 1000 742 952 0.698654 0.71546<103.293 416.515> 1134 526 938 526 0.0905357 -0.995893<-161.561 146.123>
LayerCount: 2
Fore
SplineSet
1079 1331 m 0,0,1
 1079 1281 1079 1281 1030 1232 c 2,2,-1
 742 952 l 1,3,-1
 768 948 l 1,4,5
 834 929 834 929 873 910 c 0,6,7
 935 879 935 879 1002 820 c 1,8,9
 1115 715 1115 715 1134 526 c 2,10,-1
 1136 506 l 1,11,12
 1136 302 1136 302 992 153 c 128,-1,13
 848 4 848 4 644 4 c 128,-1,14
 440 4 440 4 295 148 c 1,15,16
 150 295 150 295 150 497 c 2,17,-1
 150 524 l 1,18,-1
 349 615 l 1,19,-1
 348 548 l 1,20,21
 348 392 348 392 430 292 c 0,22,23
 509 196 509 196 644 196 c 0,24,25
 780 196 780 196 864 290 c 0,26,27
 940 375 940 375 940 504 c 1,28,-1
 938 526 l 1,29,30
 926 642 926 642 826 720 c 0,31,32
 757 774 757 774 663 777 c 0,33,34
 542 781 542 781 506 871 c 0,35,36
 500 886 500 886 500 901 c 0,37,38
 501 946 501 946 545 1000 c 1,39,-1
 836 1298 l 1,40,-1
 190 1298 l 1,41,-1
 284 1492 l 1,42,-1
 840 1491 l 2,43,44
 1027 1491 1027 1491 1072 1370 c 0,45,46
 1079 1351 1079 1351 1079 1331 c 0,0,1
EndSplineSet
Validated: 1
EndChar

StartChar: four
Encoding: 52 52 23
Width: 1123
GlyphClass: 2
Flags: W
HStem: 0 21G<649.948 692.609> 387 187<258.034 648 845 932> 1495 20G<637.089 745.5>
VStem: 650 195<92 387 575 1203>
DStem2: 89 646 258 574 0.542369 0.84014<31.1703 772.227>
LayerCount: 2
Fore
SplineSet
649 387 m 1,0,-1
 279 387 l 2,1,2
 50 387 50 387 50 517 c 0,3,4
 50 570 50 570 89 646 c 1,5,-1
 650 1515 l 1,6,-1
 662 1515 l 2,7,8
 829 1515 829 1515 845 1301 c 1,9,-1
 844 575 l 1,10,-1
 1023 578 l 1,11,-1
 932 390 l 1,12,-1
 845 390 l 1,13,-1
 846 92 l 1,14,-1
 650 0 l 1,15,-1
 649 387 l 1,0,-1
648 574 m 1,16,-1
 650 1203 l 1,17,-1
 258 574 l 1,18,-1
 648 574 l 1,16,-1
EndSplineSet
Validated: 16385
EndChar

StartChar: five
Encoding: 53 53 24
Width: 1245
GlyphClass: 2
Flags: W
HStem: 4 181<471.198 788.729> 807 169<440.651 775.644> 1302 190<540.604 972>
VStem: 130 196<342.5 524> 918 197<324.342 657.03>
DStem2: 246 926 438 948 0.22377 0.974642<64.4059 410.801>
LayerCount: 2
Fore
SplineSet
246 926 m 1,0,-1
 336 1318 l 1,1,2
 423 1492 423 1492 611 1492 c 2,3,-1
 615 1492 l 1,4,-1
 636 1492 l 1,5,-1
 1059 1493 l 1,6,-1
 972 1301 l 1,7,-1
 622 1302 l 1,8,9
 559 1298 559 1298 540 1281 c 0,10,11
 512 1255 512 1255 508 1232 c 1,12,-1
 438 948 l 1,13,-1
 468 956 l 1,14,15
 547 976 547 976 637 976 c 0,16,17
 722 976 722 976 812 946 c 0,18,19
 908 914 908 914 1000 812 c 1,20,21
 1106 688 1106 688 1112 516 c 1,22,-1
 1115 497 l 1,23,24
 1115 293 1115 293 970.5 148.5 c 128,-1,25
 826 4 826 4 622 4 c 128,-1,26
 418 4 418 4 273 148 c 1,27,28
 130 322 130 322 130 510 c 2,29,-1
 130 524 l 1,30,-1
 327 615 l 1,31,-1
 326 518 l 1,32,33
 326 376 326 376 416 276 c 0,34,35
 498 185 498 185 649 185 c 0,36,37
 761 185 761 185 842 278 c 0,38,39
 918 365 918 365 918 504 c 2,40,-1
 918 518 l 1,41,42
 908 614 908 614 854 688 c 0,43,44
 804 756 804 756 736 784 c 0,45,46
 680 807 680 807 623 807 c 0,47,48
 620 807 620 807 618 807 c 0,49,50
 590 807 590 807 585 806 c 0,51,52
 409 773 409 773 394 770 c 0,53,54
 374 766 374 766 356 766 c 0,55,56
 295 766 295 766 267 800 c 0,57,58
 244 828 244 828 244 880 c 0,59,60
 244 884 244 884 244 889 c 0,61,62
 244 906 244 906 246 926 c 1,0,-1
EndSplineSet
Validated: 1
EndChar

StartChar: six
Encoding: 54 54 25
Width: 1352
GlyphClass: 2
Flags: W
HStem: 0 190<582.327 874.88> 794 193<521.81 869.337> 1329 190<576.46 861.32>
VStem: 150 260<464.528 685.082> 1000 202<314.668 656.375>
LayerCount: 2
Fore
SplineSet
416 485 m 0,0,1
 432 359 432 359 536 269 c 0,2,3
 627 190 627 190 712 190 c 0,4,5
 847 190 847 190 930 278 c 0,6,7
 996 348 996 348 1000 488 c 1,8,9
 996 621 996 621 918 710 c 1,10,11
 840 794 840 794 704 794 c 0,12,13
 553 794 553 794 476 712 c 0,14,15
 410 642 410 642 410 553 c 0,16,17
 410 551 410 551 410 550 c 0,18,19
 410 532 410 532 416 485 c 0,0,1
362 848 m 1,20,-1
 416 891 l 1,21,22
 544 987 544 987 708 987 c 0,23,24
 911 987 911 987 1057 842 c 1,25,26
 1186 716 1186 716 1202 518 c 1,27,-1
 1202 505 l 1,28,-1
 1202 477 l 2,29,30
 1202 287 1202 287 1061 145 c 0,31,32
 916 0 916 0 712 0 c 0,33,34
 598 0 598 0 494 60.5 c 128,-1,35
 390 121 390 121 314 222 c 0,36,37
 238 324 238 324 194 464.5 c 128,-1,38
 150 605 150 605 150 759 c 0,39,40
 150 914 150 914 194 1054.5 c 128,-1,41
 238 1195 238 1195 314 1297 c 0,42,43
 390 1398 390 1398 494 1458.5 c 128,-1,44
 598 1519 598 1519 712 1519 c 128,-1,45
 826 1519 826 1519 932 1457 c 1,46,47
 1083 1367 1083 1367 1160 1196 c 1,48,-1
 1171 1167 l 1,49,-1
 992 1088 l 1,50,51
 974 1180 974 1180 899 1253 c 0,52,53
 821 1329 821 1329 718 1329 c 0,54,55
 620 1329 620 1329 536 1253 c 128,-1,56
 452 1177 452 1177 404 1042 c 0,57,58
 372 950 372 950 362 848 c 1,20,-1
EndSplineSet
Validated: 1
EndChar

StartChar: seven
Encoding: 55 55 26
Width: 993
GlyphClass: 2
Flags: W
HStem: 0 21G<157.637 193.103> 1299 194<144 710>
LayerCount: 2
Fore
SplineSet
149 0 m 1,0,-1
 710 1299 l 1,1,-1
 50 1299 l 1,2,-1
 144 1493 l 1,3,-1
 714 1492 l 2,4,5
 943 1492 943 1492 943 1362 c 0,6,7
 943 1309 943 1309 904 1233 c 1,8,-1
 407 117 l 1,9,-1
 149 0 l 1,0,-1
EndSplineSet
Validated: 1
EndChar

StartChar: eight
Encoding: 56 56 27
Width: 1284
GlyphClass: 2
Flags: W
HStem: -3 195<478.89 798.573> 794 176<504.703 785.719> 1348 168<486.392 784.585>
VStem: 150 198<325.062 655.95> 856 194<1035.08 1281.08> 937 197<322.23 643.799>
LayerCount: 2
Fore
SplineSet
348 543 m 1,0,-1
 348 497 l 2,1,2
 348 364 348 364 425 280 c 0,3,4
 506 192 506 192 643 192 c 0,5,6
 763 192 763 192 857 280 c 0,7,8
 934 352 934 352 937 472 c 1,9,10
 934 612 934 612 855 696 c 1,11,12
 772 794 772 794 639 794 c 0,13,14
 505 794 505 794 423 698 c 0,15,16
 366 630 366 630 348 543 c 1,0,-1
654 970 m 0,17,18
 739 970 739 970 807 1030 c 1,19,20
 856 1084 856 1084 856 1148 c 2,21,-1
 856 1178 l 2,22,23
 856 1247 856 1247 796 1295 c 1,24,25
 725 1348 725 1348 631 1348 c 0,26,27
 568 1348 568 1348 497 1310 c 0,28,29
 436 1278 436 1278 422 1180 c 2,30,-1
 420 1166 l 1,31,-1
 422 1147 l 2,32,33
 429 1080 429 1080 489 1026 c 0,34,35
 551 970 551 970 654 970 c 0,17,18
379 896 m 1,36,37
 228 1003 228 1003 228 1142 c 2,38,-1
 228 1155 l 2,39,40
 228 1301 228 1301 349 1408.5 c 128,-1,41
 470 1516 470 1516 640 1516 c 0,42,43
 802 1516 802 1516 930 1412 c 0,44,45
 1050 1315 1050 1315 1050 1162 c 2,46,-1
 1050 1135 l 2,47,48
 1050 1011 1050 1011 911 892 c 1,49,50
 942 880 942 880 989 839 c 0,51,52
 1117 728 1117 728 1134 515 c 1,53,-1
 1134 502 l 1,54,-1
 1134 474 l 2,55,56
 1134 284 1134 284 993 142 c 0,57,58
 848 -3 848 -3 639 -3 c 128,-1,59
 430 -3 430 -3 285 142 c 1,60,61
 165 273 165 273 151 450 c 0,62,63
 150 467 150 467 150 483 c 0,64,65
 153 604 153 604 181 672 c 0,66,67
 229 788 229 788 348 888 c 1,68,-1
 379 896 l 1,36,37
EndSplineSet
Validated: 1
EndChar

StartChar: nine
Encoding: 57 57 28
Width: 1352
GlyphClass: 2
Flags: W
HStem: 0 190<490.68 775.54> 532 193<482.663 830.19> 1329 190<477.12 769.673>
VStem: 150 202<862.625 1204.33> 942 260<833.883 1054.47>
LayerCount: 2
Fore
SplineSet
936 1034 m 0,0,1
 920 1160 920 1160 816 1250 c 0,2,3
 725 1329 725 1329 640 1329 c 0,4,5
 505 1329 505 1329 422 1241 c 0,6,7
 356 1171 356 1171 352 1031 c 1,8,9
 356 898 356 898 434 809 c 1,10,11
 512 725 512 725 648 725 c 0,12,13
 799 725 799 725 876 807 c 0,14,15
 942 877 942 877 942 965 c 0,16,17
 942 967 942 967 942 968 c 0,18,19
 942 987 942 987 936 1034 c 0,0,1
990 671 m 1,20,-1
 936 628 l 1,21,22
 808 532 808 532 644 532 c 0,23,24
 441 532 441 532 295 677 c 1,25,26
 166 803 166 803 150 1001 c 1,27,-1
 150 1014 l 1,28,-1
 150 1042 l 2,29,30
 150 1232 150 1232 291 1374 c 0,31,32
 436 1519 436 1519 640 1519 c 0,33,34
 754 1519 754 1519 858 1458.5 c 128,-1,35
 962 1398 962 1398 1038 1297 c 0,36,37
 1114 1195 1114 1195 1158 1054.5 c 128,-1,38
 1202 914 1202 914 1202 760 c 0,39,40
 1202 605 1202 605 1158 464.5 c 128,-1,41
 1114 324 1114 324 1038 222 c 0,42,43
 962 121 962 121 858 60.5 c 128,-1,44
 754 0 754 0 640 0 c 128,-1,45
 526 0 526 0 420 62 c 1,46,47
 269 152 269 152 192 323 c 1,48,-1
 181 352 l 1,49,-1
 360 431 l 1,50,51
 378 339 378 339 453 266 c 0,52,53
 531 190 531 190 634 190 c 0,54,55
 732 190 732 190 816 266 c 128,-1,56
 900 342 900 342 948 477 c 0,57,58
 980 569 980 569 990 671 c 1,20,-1
EndSplineSet
Validated: 1
EndChar

StartChar: colon
Encoding: 58 58 29
Width: 562
GlyphClass: 2
Flags: W
HStem: 0 264<191.191 372.809> 554 264<189.191 370.809>
VStem: 152 260<39.7072 224.293 593.707 778.293>
LayerCount: 2
Fore
SplineSet
152 132 m 128,-1,1
 152 187 152 187 190 225.5 c 128,-1,2
 228 264 228 264 282 264 c 128,-1,3
 336 264 336 264 374 225.5 c 128,-1,4
 412 187 412 187 412 132 c 128,-1,5
 412 77 412 77 374 38.5 c 128,-1,6
 336 0 336 0 282 0 c 128,-1,7
 228 0 228 0 190 38.5 c 128,-1,0
 152 77 152 77 152 132 c 128,-1,1
150 686 m 128,-1,9
 150 741 150 741 188 779.5 c 128,-1,10
 226 818 226 818 280 818 c 128,-1,11
 334 818 334 818 372 779.5 c 128,-1,12
 410 741 410 741 410 686 c 128,-1,13
 410 631 410 631 372 592.5 c 128,-1,14
 334 554 334 554 280 554 c 128,-1,15
 226 554 226 554 188 592.5 c 128,-1,8
 150 631 150 631 150 686 c 128,-1,9
EndSplineSet
Validated: 16385
EndChar

StartChar: semicolon
Encoding: 59 59 30
Width: 628
GlyphClass: 2
Flags: W
HStem: 552 264<239.191 420.809>
VStem: 200 260<591.707 776.293>
DStem2: 110 -177 299 -262 0.328601 0.944469<0 464.751>
LayerCount: 2
Fore
SplineSet
299 -262 m 1,0,-1
 110 -177 l 1,1,-1
 269 280 l 1,2,-1
 458 194 l 1,3,-1
 299 -262 l 1,0,-1
200 684 m 128,-1,5
 200 739 200 739 238 777.5 c 128,-1,6
 276 816 276 816 330 816 c 128,-1,7
 384 816 384 816 422 777.5 c 128,-1,8
 460 739 460 739 460 684 c 128,-1,9
 460 629 460 629 422 590.5 c 128,-1,10
 384 552 384 552 330 552 c 128,-1,11
 276 552 276 552 238 590.5 c 128,-1,4
 200 629 200 629 200 684 c 128,-1,5
EndSplineSet
Validated: 16385
EndChar

StartChar: less
Encoding: 60 60 31
Width: 1139
GlyphClass: 2
Flags: W
DStem2: 378 678 80 599 0.889737 -0.456474<0 668.641> 156 767 378 678 0.855979 0.517011<144.013 853.14>
LayerCount: 2
Fore
SplineSet
156 767 m 1,0,-1
 906 1220 l 1,1,-1
 989 1038 l 1,2,-1
 378 678 l 1,3,-1
 972 371 l 1,4,-1
 885 186 l 1,5,-1
 80 599 l 1,6,-1
 156 767 l 1,0,-1
EndSplineSet
Validated: 16385
EndChar

StartChar: equal
Encoding: 61 61 32
Width: 1082
GlyphClass: 2
Flags: W
HStem: 436 176<169 911> 784 176<169 912>
LayerCount: 2
Fore
SplineSet
169 960 m 1,0,-1
 1002 960 l 1,1,-1
 912 784 l 1,2,-1
 81 784 l 1,3,-1
 169 960 l 1,0,-1
169 612 m 1,4,-1
 1002 612 l 1,5,-1
 911 436 l 1,6,-1
 80 436 l 1,7,-1
 169 612 l 1,4,-1
EndSplineSet
Validated: 1
EndChar

StartChar: greater
Encoding: 62 62 33
Width: 1139
GlyphClass: 2
Flags: W
DStem2: 150 368 233 186 0.855979 0.517011<0 709.127> 254 1220 167 1035 0.889737 -0.456474<7.04053 675.682>
LayerCount: 2
Fore
SplineSet
983 639 m 1,0,-1
 233 186 l 1,1,-1
 150 368 l 1,2,-1
 761 728 l 1,3,-1
 167 1035 l 1,4,-1
 254 1220 l 1,5,-1
 1059 807 l 1,6,-1
 983 639 l 1,0,-1
EndSplineSet
Validated: 16385
EndChar

StartChar: question
Encoding: 63 63 34
Width: 1287
GlyphClass: 2
Flags: W
HStem: 0 264<517.191 698.809> 1329 185<481.13 810.816>
VStem: 150 202<1002 1192.77> 478 260<39.7072 224.293> 940 196<970 1188.11>
LayerCount: 2
Fore
SplineSet
478 132 m 128,-1,1
 478 187 478 187 516 225.5 c 128,-1,2
 554 264 554 264 608 264 c 128,-1,3
 662 264 662 264 700 225.5 c 128,-1,4
 738 187 738 187 738 132 c 128,-1,5
 738 77 738 77 700 38.5 c 128,-1,6
 662 0 662 0 608 0 c 128,-1,7
 554 0 554 0 516 38.5 c 128,-1,0
 478 77 478 77 478 132 c 128,-1,1
150 1021 m 1,8,9
 150 1223 150 1223 295 1370 c 1,10,11
 440 1514 440 1514 644 1514 c 128,-1,12
 848 1514 848 1514 992.5 1369.5 c 128,-1,13
 1137 1225 1137 1225 1137 1021 c 1,14,-1
 1136 980 l 1,15,16
 1108 830 1108 830 994 716 c 0,17,18
 982 704 982 704 780 520 c 0,19,20
 706 452 706 452 702 400 c 2,21,-1
 701 387 l 1,22,-1
 508 294 l 1,23,-1
 508 419 l 1,24,25
 536 556 536 556 672 670 c 1,26,-1
 702 692 l 1,27,28
 904 860 904 860 932 970 c 1,29,-1
 940 1014 l 1,30,31
 940 1149 940 1149 858 1244 c 0,32,33
 784 1329 784 1329 636 1329 c 1,34,35
 500 1328 500 1328 423 1233 c 0,36,37
 352 1146 352 1146 352 1014 c 2,38,-1
 352 1002 l 1,39,-1
 152 924 l 1,40,-1
 150 1021 l 1,8,9
EndSplineSet
Validated: 16385
EndChar

StartChar: at
Encoding: 64 64 35
Width: 1303
GlyphClass: 2
Flags: W
HStem: -391 194<576.46 878.486> 0 21G<961.958 1003.76> 934 194<572.706 828.584>
VStem: 150 207<94.874 642.065> 962 190<91 478>
DStem2: 445 416 663 332 0.89689 0.442254<147.994 490.215>
LayerCount: 2
Fore
SplineSet
357 370.5 m 128,-1,1
 357 217 357 217 405 86 c 1,2,3
 452 -46 452 -46 536 -121.5 c 128,-1,4
 620 -197 620 -197 718 -197 c 0,5,6
 792 -197 792 -197 858 -154 c 1,7,-1
 1012 -273 l 1,8,9
 973 -305 973 -305 930 -330 c 0,10,11
 828 -391 828 -391 712 -391 c 0,12,13
 598 -391 598 -391 494 -330.5 c 128,-1,14
 390 -270 390 -270 314 -169 c 0,15,16
 238 -67 238 -67 194 73.5 c 128,-1,17
 150 214 150 214 150 368.5 c 128,-1,18
 150 523 150 523 194 663.5 c 128,-1,19
 238 804 238 804 314 906 c 0,20,21
 390 1007 390 1007 494 1067.5 c 128,-1,22
 598 1128 598 1128 712 1128 c 0,23,24
 829 1128 829 1128 932 1053 c 0,25,26
 1036 977 1036 977 1093 847 c 1,27,28
 1153 714 1153 714 1153 564 c 2,29,-1
 1152 91 l 1,30,-1
 962 0 l 1,31,-1
 961 478 l 1,32,-1
 663 332 l 1,33,34
 668 284 668 284 699 238 c 1,35,36
 721 209 721 209 783 178 c 0,37,38
 791 174 791 174 851 174 c 0,39,40
 861 174 861 174 877 174 c 1,41,-1
 933 178 l 1,42,-1
 841 0 l 1,43,44
 815 -5 815 -5 790 -5 c 128,-1,45
 765 -5 765 -5 741 0 c 0,46,47
 639 20 639 20 561 100 c 0,48,49
 445 220 445 220 445 398 c 2,50,-1
 445 416 l 1,51,-1
 952 666 l 1,52,53
 934 761 934 761 881 833 c 0,54,55
 807 934 807 934 717 934 c 0,56,57
 616 934 616 934 536 862 c 1,58,59
 454 786 454 786 405.5 655 c 128,-1,0
 357 524 357 524 357 370.5 c 128,-1,1
EndSplineSet
Validated: 16385
EndChar

StartChar: A
Encoding: 65 65 36
Width: 1405
GlyphClass: 2
Flags: W
HStem: 0 21G<180 224.444 825.281 866.5> 684 192<380 1039> 1303 211<545.889 829.695>
VStem: 180 200<90 684 876 1126.96>
LayerCount: 2
Fore
SplineSet
686 1514 m 0,0,1
 793 1514 793 1514 906 1447 c 0,2,3
 1014 1383 1014 1383 1090 1282 c 0,4,5
 1164 1183 1164 1183 1210 1039 c 0,6,7
 1255 897 1255 897 1255 764 c 0,8,9
 1255 611 1255 611 1211 470 c 0,10,11
 1169 335 1169 335 1091 227 c 0,12,13
 1023 133 1023 133 951.5 74 c 128,-1,14
 880 15 880 15 853 0 c 1,15,-1
 616 171 l 1,16,17
 638 159 638 159 648 159 c 0,18,19
 746 159 746 159 873 286 c 1,20,21
 952 367 952 367 1000 493 c 0,22,23
 1033 580 1033 580 1044 684 c 1,24,-1
 380 684 l 1,25,-1
 380 90 l 1,26,-1
 180 0 l 1,27,-1
 180 1065 l 1,28,29
 212 1198 212 1198 317 1324 c 0,30,31
 379 1397 379 1397 470 1447 c 0,32,33
 592 1514 592 1514 686 1514 c 0,0,1
380 876 m 1,34,-1
 1039 874 l 1,35,36
 1026 952 1026 952 995 1038 c 0,37,38
 960 1136 960 1136 868 1227 c 0,39,40
 791 1303 791 1303 686 1303 c 0,41,42
 588 1303 588 1303 505 1227 c 1,43,-1
 493 1215 l 1,44,45
 426 1146 426 1146 380 1050 c 1,46,-1
 380 876 l 1,34,-1
EndSplineSet
Validated: 1
EndChar

StartChar: B
Encoding: 66 66 37
Width: 1359
GlyphClass: 2
Flags: W
HStem: 21 189<384.007 917.571> 757 176<377 829.994> 1317 195<563.769 833.62>
VStem: 181 196<215.408 755 934 1120.85> 901 196<1003.17 1247.96> 1013 196<306.824 619.028>
LayerCount: 2
Fore
SplineSet
376 1050 m 1,0,1
 377 934 l 1,2,-1
 706 933 l 1,3,4
 827 941 827 941 877 1032 c 0,5,6
 901 1076 901 1076 901 1133 c 0,7,8
 901 1136 901 1136 901 1138 c 0,9,10
 901 1184 901 1184 874 1227 c 0,11,12
 818 1317 818 1317 690 1317 c 0,13,14
 612 1317 612 1317 511 1234 c 1,15,-1
 495 1218 l 1,16,17
 434 1152 434 1152 376 1050 c 1,0,1
377 755 m 1,18,-1
 377 269 l 2,19,20
 377 214 377 214 417 210 c 1,21,-1
 728 209 l 2,22,23
 882 209 882 209 945 276 c 0,24,25
 1012 347 1012 347 1013 462 c 1,26,-1
 1013 465 l 2,27,28
 1013 571 1013 571 940 658 c 0,29,30
 857 757 857 757 732 757 c 2,31,-1
 730 757 l 1,32,-1
 377 755 l 1,18,-1
1097 1130 m 0,33,34
 1097 1005 1097 1005 1011 910 c 1,35,-1
 961 872 l 1,36,37
 1018 854 1018 854 1069 802 c 0,38,39
 1209 659 1209 659 1209 465 c 2,40,-1
 1209 462 l 1,41,42
 1208 270 1208 270 1084 145 c 0,43,44
 960 21 960 21 733 21 c 2,45,-1
 433 21 l 2,46,47
 197 21 197 21 181 235 c 1,48,-1
 180 1063 l 1,49,50
 212 1196 212 1196 317 1322 c 0,51,52
 377 1394 377 1394 470 1445 c 0,53,54
 592 1512 592 1512 686 1512 c 0,55,56
 811 1512 811 1512 896 1458 c 0,57,58
 979 1405 979 1405 1010 1369 c 0,59,60
 1097 1269 1097 1269 1097 1130 c 0,33,34
EndSplineSet
Validated: 1
EndChar

StartChar: C
Encoding: 67 67 38
Width: 1322
GlyphClass: 2
Flags: W
HStem: -1 190<583.53 850.087> 1328 190<576.46 861.32>
VStem: 150 207<484.866 1032>
LayerCount: 2
Fore
SplineSet
357 748 m 0,0,1
 357 607 357 607 405 476 c 0,2,3
 456 337 456 337 536 268 c 0,4,5
 627 189 627 189 712 189 c 0,6,7
 714 189 714 189 716 189 c 0,8,9
 870 189 870 189 931 349 c 1,10,-1
 938 373 l 1,11,-1
 1172 472 l 1,12,13
 1158 340 1158 340 1092 224 c 0,14,15
 1041 133 1041 133 930 60 c 0,16,17
 838 -1 838 -1 712 -1 c 0,18,19
 598 -1 598 -1 494 59.5 c 128,-1,20
 390 120 390 120 314 221 c 0,21,22
 238 323 238 323 194 463.5 c 128,-1,23
 150 604 150 604 150 758 c 0,24,25
 150 913 150 913 194 1053.5 c 128,-1,26
 238 1194 238 1194 314 1296 c 0,27,28
 390 1397 390 1397 494 1457.5 c 128,-1,29
 598 1518 598 1518 712 1518 c 128,-1,30
 826 1518 826 1518 932 1456 c 1,31,32
 1083 1366 1083 1366 1160 1195 c 1,33,-1
 1171 1166 l 1,34,-1
 992 1087 l 1,35,36
 974 1179 974 1179 899 1252 c 0,37,38
 821 1328 821 1328 718 1328 c 0,39,40
 620 1328 620 1328 536 1252 c 128,-1,41
 452 1176 452 1176 404.5 1041 c 128,-1,42
 357 906 357 906 357 748 c 0,0,1
EndSplineSet
Validated: 1
EndChar

StartChar: D
Encoding: 68 68 39
Width: 1405
GlyphClass: 2
Flags: W
HStem: 21 190<383.007 816.533> 1303 211<545.889 829.336>
VStem: 180 196<215.497 1126.96> 1048 207<512.393 1013.3>
LayerCount: 2
Fore
SplineSet
689 209 m 2,0,1
 777 209 777 209 867 297 c 0,2,3
 954 382 954 382 994 486 c 0,4,5
 1048 626 1048 626 1048 778 c 0,6,7
 1048 887 1048 887 995 1038 c 0,8,9
 960 1139 960 1139 868 1227 c 0,10,11
 789 1303 789 1303 686 1303 c 0,12,13
 588 1303 588 1303 505 1227 c 1,14,-1
 493 1215 l 1,15,16
 421 1146 421 1146 375 1045 c 1,17,-1
 376 270 l 2,18,19
 376 215 376 215 416 211 c 1,20,-1
 689 209 l 2,0,1
180 1065 m 1,21,22
 212 1198 212 1198 317 1324 c 0,23,24
 377 1396 377 1396 470 1447 c 0,25,26
 592 1514 592 1514 686 1514 c 0,27,28
 793 1514 793 1514 906 1447 c 0,29,30
 1014 1383 1014 1383 1090 1282 c 128,-1,31
 1166 1181 1166 1181 1210 1039 c 0,32,33
 1255 894 1255 894 1255 764 c 0,34,35
 1255 632 1255 632 1209 485 c 0,36,37
 1165 345 1165 345 1089 242 c 0,38,39
 1014 141 1014 141 909 81 c 0,40,41
 802 20 802 20 691 20 c 2,42,-1
 432 21 l 2,43,44
 196 22 196 22 180 235 c 1,45,-1
 180 1065 l 1,21,22
EndSplineSet
Validated: 1
EndChar

StartChar: E
Encoding: 69 69 40
Width: 1174
GlyphClass: 2
Flags: W
HStem: 20 192<383.007 909.994> 683 192<375 920> 1299 192<547.048 931>
VStem: 180 195<214.497 683 875 1120.35>
LayerCount: 2
Fore
SplineSet
686 1491 m 2,0,-1
 1011 1491 l 1,1,-1
 931 1301 l 1,2,-1
 686 1299 l 2,3,4
 587 1298 587 1298 505 1223 c 1,5,-1
 493 1211 l 1,6,7
 421 1142 421 1142 375 1041 c 1,8,-1
 375 875 l 1,9,-1
 1012 875 l 1,10,-1
 920 685 l 1,11,-1
 375 683 l 1,12,-1
 376 271 l 2,13,14
 376 216 376 216 416 212 c 1,15,-1
 821 213 l 2,16,17
 879 213 879 213 911 230 c 0,18,19
 945 247 945 247 962 308 c 1,20,-1
 1124 224 l 1,21,22
 1069 33 1069 33 811 19 c 1,23,-1
 432 20 l 2,24,25
 196 21 196 21 180 234 c 1,26,-1
 180 1042 l 1,27,28
 212 1175 212 1175 317 1301 c 0,29,30
 377 1373 377 1373 470 1424 c 0,31,32
 592 1491 592 1491 686 1491 c 2,0,-1
EndSplineSet
Validated: 1
EndChar

StartChar: F
Encoding: 70 70 41
Width: 1111
GlyphClass: 2
Flags: W
HStem: 0 21G<180 223.077> 683 192<375 918> 1299 192<547.048 931>
VStem: 180 195<91 683 875 1120.35>
LayerCount: 2
Fore
SplineSet
376 91 m 1,0,-1
 180 0 l 1,1,-1
 180 1042 l 1,2,3
 212 1175 212 1175 317 1301 c 0,4,5
 377 1373 377 1373 470 1424 c 0,6,7
 592 1491 592 1491 686 1491 c 2,8,-1
 1011 1491 l 1,9,-1
 931 1301 l 1,10,-1
 686 1299 l 2,11,12
 587 1298 587 1298 505 1223 c 1,13,-1
 493 1211 l 1,14,15
 421 1142 421 1142 375 1041 c 1,16,-1
 375 875 l 1,17,-1
 1010 875 l 1,18,-1
 918 685 l 1,19,-1
 375 683 l 1,20,-1
 376 91 l 1,0,-1
EndSplineSet
Validated: 1
EndChar

StartChar: G
Encoding: 71 71 42
Width: 1422
GlyphClass: 2
Flags: W
HStem: 0 202<571.412 853.827> 688 190<768 1072> 1321 190<576.819 861.32>
VStem: 150 207<483.963 1033.64>
LayerCount: 2
Fore
SplineSet
1272 696 m 1,0,1
 1272 595 1272 595 1234 475 c 0,2,3
 1189 333 1189 333 1114 233 c 0,4,5
 1039 132 1039 132 930 67 c 0,6,7
 818 0 818 0 713 0 c 0,8,9
 712 0 712 0 710 0 c 0,10,11
 596 0 596 0 492 61 c 0,12,13
 389 122 389 122 312 222 c 0,14,15
 228 331 228 331 192 465 c 0,16,17
 150 619 150 619 150 751 c 0,18,19
 150 906 150 906 194 1046.5 c 128,-1,20
 238 1187 238 1187 314 1289 c 0,21,22
 390 1390 390 1390 494 1450.5 c 128,-1,23
 598 1511 598 1511 712 1511 c 128,-1,24
 826 1511 826 1511 932 1449 c 1,25,26
 1083 1359 1083 1359 1160 1188 c 1,27,-1
 1171 1159 l 1,28,-1
 992 1080 l 1,29,30
 974 1172 974 1172 899 1245 c 0,31,32
 821 1321 821 1321 718 1321 c 0,33,34
 622 1321 622 1321 536 1245 c 0,35,36
 449 1168 449 1168 402 1034 c 0,37,38
 357 905 357 905 357 753 c 0,39,40
 357 608 357 608 407 466 c 0,41,42
 442 366 442 366 534 277 c 0,43,44
 611 202 611 202 712 202 c 0,45,46
 815 202 815 202 894 278 c 0,47,48
 987 368 987 368 1021 467 c 0,49,50
 1065 595 1065 595 1072 689 c 1,51,-1
 682 688 l 1,52,-1
 768 878 l 1,53,-1
 1264 880 l 1,54,55
 1270 855 1270 855 1272 696 c 1,0,1
EndSplineSet
Validated: 1
EndChar

StartChar: H
Encoding: 72 72 43
Width: 1429
GlyphClass: 2
Flags: W
HStem: 0 21G<200 243.043 852.281 893.5> 682 192<396 1067> 1493 19G<354 397.937 850.03 892.5>
VStem: 200 198<92 682 874 1422> 1069 210<486.465 682 874 1035.75>
LayerCount: 2
Fore
SplineSet
1067 874 m 1,0,1
 1056 966 1056 966 1024 1039 c 0,2,3
 976 1152 976 1152 897 1233 c 0,4,5
 773 1360 773 1360 672 1360 c 0,6,7
 662 1360 662 1360 640 1348 c 1,8,-1
 879 1513 l 1,9,10
 906 1498 906 1498 976.5 1442 c 128,-1,11
 1047 1386 1047 1386 1115 1292 c 0,12,13
 1193 1184 1193 1184 1235 1049 c 0,14,15
 1279 908 1279 908 1279 755 c 0,16,17
 1279 601 1279 601 1238 470 c 0,18,19
 1196 335 1196 335 1118 227 c 0,20,21
 1050 133 1050 133 978.5 74 c 128,-1,22
 907 15 907 15 880 0 c 1,23,-1
 643 171 l 1,24,25
 665 159 665 159 675 159 c 0,26,27
 776 159 776 159 900 286 c 0,28,29
 979 367 979 367 1026 488 c 0,30,31
 1060 575 1060 575 1069 682 c 1,32,-1
 396 682 l 1,33,-1
 398 92 l 1,34,-1
 200 0 l 1,35,-1
 200 1422 l 1,36,-1
 398 1512 l 1,37,-1
 396 874 l 1,38,-1
 1067 874 l 1,0,1
EndSplineSet
Validated: 1
EndChar

StartChar: I
Encoding: 73 73 44
Width: 598
GlyphClass: 2
Flags: W
HStem: 0 21G<200 243.043> 1491 20G<353.506 398>
VStem: 200 198<92 1422>
LayerCount: 2
Fore
SplineSet
398 92 m 1,0,-1
 200 0 l 1,1,-1
 200 1422 l 1,2,-1
 398 1511 l 1,3,-1
 398 92 l 1,0,-1
EndSplineSet
Validated: 1
EndChar

StartChar: J
Encoding: 74 74 45
Width: 987
GlyphClass: 2
Flags: W
HStem: 20 191<200.065 518.01> 1492 20G<742 787>
VStem: 589 198<280.809 1424>
LayerCount: 2
Fore
SplineSet
295 20 m 2,0,1
 96 20 96 20 5 196 c 1,2,-1
 167 280 l 1,3,4
 167 260 167 260 199 231 c 1,5,6
 233 211 233 211 277 211 c 0,7,8
 279 211 279 211 281 211 c 2,9,-1
 376 211 l 2,10,11
 460 211 460 211 523 258 c 0,12,13
 589 307 589 307 589 434 c 2,14,-1
 589 457 l 1,15,-1
 589 1424 l 1,16,-1
 787 1512 l 1,17,-1
 787 434 l 2,18,19
 787 264 787 264 666 143 c 0,20,21
 543 20 543 20 375 20 c 2,22,-1
 295 20 l 2,0,1
EndSplineSet
Validated: 1
EndChar

StartChar: K
Encoding: 75 75 46
Width: 1289
GlyphClass: 2
Flags: W
HStem: 0 22G<200 243.043 726.283 782> 99 8<534.685 566.053> 1492 20G<353 398 922.877 956.579>
VStem: 200 198<92 770.047 940 1424> 957 182<303.719 604.75>
DStem2: 452 940 695 932 0.650352 0.759633<151.959 716.843>
LayerCount: 2
Fore
SplineSet
200 1424 m 1,0,-1
 398 1512 l 1,1,-1
 398 940 l 1,2,-1
 452 940 l 1,3,-1
 940 1510 l 1,4,-1
 1066 1358 l 1,5,-1
 695 932 l 1,6,7
 759 921 759 921 820 896 c 0,8,9
 920 855 920 855 998 784 c 0,10,11
 1065 724 1065 724 1102 637 c 128,-1,12
 1139 550 1139 550 1139 475 c 0,13,14
 1139 357 1139 357 1101 285 c 0,15,16
 1054 196 1054 196 993 135 c 0,17,18
 933 75 933 75 864 41 c 0,19,20
 793 7 793 7 771 1 c 1,21,-1
 534 107 l 1,22,23
 556 99 556 99 566 99 c 0,24,25
 685 101 685 101 782 169 c 0,26,27
 865 227 865 227 909 297 c 0,28,29
 957 373 957 373 957 457 c 0,30,31
 957 464 957 464 957 473 c 0,32,33
 957 560 957 560 893 629 c 0,34,35
 844 682 844 682 780 718 c 0,36,37
 702 762 702 762 599 771 c 1,38,-1
 434 770 l 1,39,40
 403 768 403 768 398 748 c 1,41,-1
 398 92 l 1,42,-1
 200 0 l 1,43,-1
 200 1424 l 1,0,-1
EndSplineSet
Validated: 1
EndChar

StartChar: L
Encoding: 76 76 47
Width: 1110
GlyphClass: 2
Flags: W
HStem: 21 188<437.138 891.117> 1492 20G<354 397.968>
VStem: 200 196<215.408 1422>
LayerCount: 2
Fore
SplineSet
452 21 m 1,0,1
 216 21 216 21 200 235 c 1,2,-1
 200 1422 l 1,3,-1
 398 1512 l 1,4,-1
 396 273 l 2,5,6
 396 218 396 218 436 214 c 1,7,8
 472 209 472 209 563 209 c 128,-1,9
 654 209 654 209 802 214 c 0,10,11
 864 216 864 216 892 230 c 0,12,13
 926 247 926 247 943 308 c 1,14,-1
 1105 224 l 1,15,16
 1050 37 1050 37 795 23 c 1,17,-1
 452 21 l 1,0,1
EndSplineSet
Validated: 1
EndChar

StartChar: M
Encoding: 77 77 48
Width: 2245
GlyphClass: 2
Flags: W
HStem: 0 21G<550.5 586.719 1021.96 1066.44 1666.28 1711> 1305 205<573.35 857.906 1384.08 1667.04>
VStem: 150 207<502.735 1021.22> 1022 200<90 1136.25> 1888 207<502.893 1016.05>
LayerCount: 2
Fore
SplineSet
1553 1510 m 2,0,1
 1642 1510 1642 1510 1746 1449 c 0,2,3
 1853 1386 1853 1386 1930 1284 c 0,4,5
 2006 1183 2006 1183 2050 1042 c 0,6,7
 2095 899 2095 899 2095 767 c 0,8,9
 2095 613 2095 613 2051 472 c 0,10,11
 2009 336 2009 336 1931 229 c 0,12,13
 1877 154 1877 154 1795 81 c 0,14,15
 1728 21 1728 21 1694 0 c 1,16,-1
 1457 171 l 1,17,18
 1479 159 1479 159 1489 159 c 0,19,20
 1598 159 1598 159 1713 288 c 0,21,22
 1796 381 1796 381 1840 495 c 0,23,24
 1888 619 1888 619 1888 780 c 0,25,26
 1888 890 1888 890 1835 1040 c 0,27,28
 1796 1150 1796 1150 1708 1229 c 0,29,30
 1619 1309 1619 1309 1526 1310 c 0,31,32
 1434 1310 1434 1310 1345 1229 c 1,33,-1
 1333 1217 l 1,34,35
 1258 1150 1258 1150 1219 1066 c 1,36,-1
 1222 90 l 1,37,-1
 1022 0 l 1,38,-1
 1020 1067 l 1,39,40
 978 1151 978 1151 905 1222 c 1,41,-1
 898 1229 l 1,42,43
 814 1305 814 1305 717 1305 c 0,44,45
 614 1305 614 1305 535 1229 c 0,46,47
 443 1140 443 1140 408 1040 c 0,48,49
 357 895 357 895 357 780 c 0,50,51
 357 617 357 617 405 495 c 0,52,53
 456 364 456 364 532 288 c 0,54,55
 660 159 660 159 764 159 c 0,56,57
 774 159 774 159 796 171 c 1,58,-1
 559 0 l 1,59,60
 542 8 542 8 450 81 c 0,61,62
 380 136 380 136 314 229 c 0,63,64
 236 338 236 338 194 472 c 0,65,66
 150 612 150 612 150 767 c 0,67,68
 150 904 150 904 193 1042 c 0,69,70
 238 1186 238 1186 313 1284 c 0,71,72
 394 1389 394 1389 497 1449 c 0,73,74
 601 1509 601 1509 715 1510 c 1,75,-1
 719 1510 l 2,76,77
 837 1510 837 1510 933 1449 c 128,-1,78
 1029 1388 1029 1388 1080 1321 c 1,79,-1
 1123 1246 l 1,80,81
 1128 1257 1128 1257 1170 1325 c 0,82,83
 1213 1395 1213 1395 1310 1449 c 0,84,85
 1419 1510 1419 1510 1549 1510 c 2,86,-1
 1553 1510 l 2,0,1
EndSplineSet
Validated: 1
EndChar

StartChar: N
Encoding: 78 78 49
Width: 1405
GlyphClass: 2
Flags: W
HStem: 0 21G<180 224.444 825.281 866.5> 1303 211<545.889 829.336>
VStem: 180 200<90 1126.96> 1048 207<500.947 1013.3>
LayerCount: 2
Fore
SplineSet
686 1514 m 0,0,1
 793 1514 793 1514 906 1447 c 0,2,3
 1014 1383 1014 1383 1090 1282 c 128,-1,4
 1166 1181 1166 1181 1210 1039 c 0,5,6
 1255 894 1255 894 1255 764 c 0,7,8
 1255 611 1255 611 1211 470 c 0,9,10
 1169 335 1169 335 1091 227 c 0,11,12
 1023 133 1023 133 951.5 74 c 128,-1,13
 880 15 880 15 853 0 c 1,14,-1
 616 171 l 1,15,16
 638 159 638 159 648 159 c 0,17,18
 749 159 749 159 873 286 c 0,19,20
 952 367 952 367 1000 493 c 128,-1,21
 1048 619 1048 619 1048 778 c 0,22,23
 1048 887 1048 887 995 1038 c 0,24,25
 960 1139 960 1139 868 1227 c 0,26,27
 789 1303 789 1303 686 1303 c 0,28,29
 588 1303 588 1303 505 1227 c 1,30,-1
 493 1215 l 1,31,32
 426 1146 426 1146 380 1050 c 1,33,-1
 380 90 l 1,34,-1
 180 0 l 1,35,-1
 180 1065 l 1,36,37
 212 1198 212 1198 317 1324 c 0,38,39
 377 1396 377 1396 470 1447 c 0,40,41
 592 1514 592 1514 686 1514 c 0,0,1
EndSplineSet
Validated: 1
EndChar

StartChar: O
Encoding: 79 79 50
Width: 1424
GlyphClass: 2
Flags: W
HStem: -1 194<576.46 859.972> 1328 190<576.46 858.441>
VStem: 150 207<484.874 1032.07> 1079 195<488.921 1032.06>
LayerCount: 2
Fore
SplineSet
357 760.5 m 128,-1,1
 357 607 357 607 405 476 c 1,2,3
 452 344 452 344 536 268.5 c 128,-1,4
 620 193 620 193 718 193 c 128,-1,5
 816 193 816 193 899 268 c 1,6,7
 981 344 981 344 1030 475.5 c 128,-1,8
 1079 607 1079 607 1079 760 c 0,9,10
 1079 914 1079 914 1030 1045 c 1,11,12
 983 1176 983 1176 899.5 1252 c 128,-1,13
 816 1328 816 1328 718 1328 c 128,-1,14
 620 1328 620 1328 536 1252 c 1,15,16
 454 1176 454 1176 405.5 1045 c 128,-1,0
 357 914 357 914 357 760.5 c 128,-1,1
150 758.5 m 128,-1,18
 150 913 150 913 194 1053.5 c 128,-1,19
 238 1194 238 1194 314 1296 c 0,20,21
 390 1397 390 1397 494 1457.5 c 128,-1,22
 598 1518 598 1518 712 1518 c 128,-1,23
 826 1518 826 1518 930 1457.5 c 128,-1,24
 1034 1397 1034 1397 1110 1296 c 0,25,26
 1186 1194 1186 1194 1230 1053.5 c 128,-1,27
 1274 913 1274 913 1274 758.5 c 128,-1,28
 1274 604 1274 604 1230 463.5 c 128,-1,29
 1186 323 1186 323 1110 221 c 0,30,31
 1034 120 1034 120 930 59.5 c 128,-1,32
 826 -1 826 -1 712 -1 c 128,-1,33
 598 -1 598 -1 494 59.5 c 128,-1,34
 390 120 390 120 314 221 c 0,35,36
 238 323 238 323 194 463.5 c 128,-1,17
 150 604 150 604 150 758.5 c 128,-1,18
EndSplineSet
Validated: 1
EndChar

StartChar: P
Encoding: 80 80 51
Width: 1287
GlyphClass: 2
Flags: W
HStem: 0 21G<180 223.556> 524 187<376 838.234> 1307 204<551.686 853.804>
VStem: 180 196<90 524 711 1123.88> 994 193<861.987 1168.37>
LayerCount: 2
Fore
SplineSet
376 1048 m 1,0,1
 376 1048 376 1048 376 711 c 1,2,-1
 687 710 l 2,3,4
 809 710 809 710 914 815 c 0,5,6
 994 895 994 895 994 1006 c 1,7,8
 993 1015 993 1015 993 1024 c 0,9,10
 993 1142 993 1142 900 1229 c 0,11,12
 817 1307 817 1307 689 1307 c 0,13,14
 600 1307 600 1307 499 1224 c 1,15,-1
 487 1212 l 1,16,17
 423 1144 423 1144 376 1048 c 1,0,1
180 1063 m 1,18,19
 215 1205 215 1205 311 1321 c 0,20,21
 371 1393 371 1393 464 1444 c 0,22,23
 586 1511 586 1511 680 1511 c 0,24,25
 900 1511 900 1511 1043 1367 c 0,26,27
 1187 1222 1187 1222 1187 1018 c 128,-1,28
 1187 814 1187 814 1043 669 c 1,29,30
 897 524 897 524 694 524 c 2,31,-1
 376 524 l 1,32,-1
 376 90 l 1,33,-1
 180 0 l 1,34,-1
 180 1063 l 1,18,19
EndSplineSet
Validated: 1
EndChar

StartChar: Q
Encoding: 81 81 52
Width: 1424
GlyphClass: 2
Flags: W
HStem: -1 194<576.46 763.723> 1328 190<576.46 858.441>
VStem: 150 207<484.874 1032.07> 1079 195<489.148 1032.06>
DStem2: 850 418 661 329 0.617673 -0.786435<0 121.3 324.327 545.8>
LayerCount: 2
Fore
SplineSet
150 758.5 m 128,-1,1
 150 913 150 913 194 1053.5 c 128,-1,2
 238 1194 238 1194 314 1296 c 0,3,4
 390 1397 390 1397 494 1457.5 c 128,-1,5
 598 1518 598 1518 712 1518 c 128,-1,6
 826 1518 826 1518 930 1457.5 c 128,-1,7
 1034 1397 1034 1397 1110 1296 c 0,8,9
 1186 1194 1186 1194 1230 1053.5 c 128,-1,10
 1274 913 1274 913 1274 758.5 c 128,-1,11
 1274 604 1274 604 1230 463.5 c 128,-1,12
 1186 323 1186 323 1110 221 c 0,13,14
 1083 186 1083 186 1053 155 c 1,15,-1
 1212 -50 l 1,16,-1
 1027 -137 l 1,17,-1
 889 38 l 1,18,19
 804 -1 804 -1 712 -1 c 0,20,21
 598 -1 598 -1 494 59.5 c 128,-1,22
 390 120 390 120 314 221 c 0,23,24
 238 323 238 323 194 463.5 c 128,-1,0
 150 604 150 604 150 758.5 c 128,-1,1
357 760.5 m 128,-1,26
 357 607 357 607 405 476 c 1,27,28
 452 344 452 344 536 268.5 c 128,-1,29
 620 193 620 193 718 193 c 0,30,31
 741 193 741 193 765 197 c 1,32,-1
 661 329 l 1,33,-1
 850 418 l 1,34,-1
 936 307 l 1,35,36
 992 375 992 375 1030 476 c 0,37,38
 1079 607 1079 607 1079 760 c 0,39,40
 1079 914 1079 914 1030 1045 c 1,41,42
 983 1176 983 1176 899.5 1252 c 128,-1,43
 816 1328 816 1328 718 1328 c 128,-1,44
 620 1328 620 1328 536 1252 c 1,45,46
 454 1176 454 1176 405.5 1045 c 128,-1,25
 357 914 357 914 357 760.5 c 128,-1,26
EndSplineSet
Validated: 1
EndChar

StartChar: R
Encoding: 82 82 53
Width: 1337
GlyphClass: 2
Flags: W
HStem: 0 21G<180 223.556 960.141 1007.7> 524 187<376 735.344> 1307 204<551.686 853.804>
VStem: 180 196<90 524 711 1123.88> 994 193<860.058 1168.37>
DStem2: 926 581 736 526 0.405009 -0.914313<-5.79766 536.606>
LayerCount: 2
Fore
SplineSet
180 1063 m 1,0,1
 215 1205 215 1205 311 1321 c 0,2,3
 371 1393 371 1393 464 1444 c 0,4,5
 586 1511 586 1511 680 1511 c 0,6,7
 900 1511 900 1511 1043 1367 c 0,8,9
 1187 1222 1187 1222 1187 1018 c 0,10,11
 1187 810 1187 810 1043 669 c 0,12,13
 988 615 988 615 926 581 c 1,14,-1
 1147 92 l 1,15,-1
 969 0 l 1,16,-1
 736 526 l 1,17,18
 715 524 715 524 694 524 c 2,19,-1
 376 524 l 1,20,-1
 376 90 l 1,21,-1
 180 0 l 1,22,-1
 180 1063 l 1,0,1
376 1048 m 1,23,-1
 376 711 l 1,24,-1
 687 710 l 2,25,26
 809 710 809 710 914 815 c 0,27,28
 994 895 994 895 994 1006 c 1,29,30
 993 1015 993 1015 993 1024 c 0,31,32
 993 1142 993 1142 900 1229 c 0,33,34
 817 1307 817 1307 689 1307 c 0,35,36
 600 1307 600 1307 499 1224 c 1,37,-1
 487 1212 l 1,38,39
 423 1144 423 1144 376 1048 c 1,23,-1
EndSplineSet
Validated: 1
EndChar

StartChar: S
Encoding: 83 83 54
Width: 1241
GlyphClass: 2
Flags: W
HStem: -6 196<460.562 782.273> 1330 182<450.469 721.129>
VStem: 914 197<328.554 616.25>
DStem2: 446 992 338 830 0.945766 -0.32485<-86.9334 542.8>
LayerCount: 2
Fore
SplineSet
330 452 m 1,0,1
 330 426 330 426 336 398 c 0,2,3
 353 319 353 319 413 268 c 0,4,5
 505 190 505 190 622 190 c 0,6,7
 626 190 626 190 651 190 c 0,8,9
 755 191 755 191 838 280 c 1,10,11
 914 372 914 372 914 497 c 1,12,-1
 913 525 l 1,13,14
 886 634 886 634 798 672 c 1,15,-1
 338 830 l 1,16,17
 197 894 197 894 174 1081 c 1,18,-1
 173 1098 l 1,19,20
 173 1266 173 1266 294 1389 c 128,-1,21
 415 1512 415 1512 585 1512 c 0,22,23
 735 1512 735 1512 858 1410 c 0,24,25
 938 1344 938 1344 970 1258 c 1,26,-1
 784 1206 l 1,27,28
 745 1281 745 1281 686 1308 c 0,29,30
 638 1330 638 1330 585 1330 c 0,31,32
 498 1330 498 1330 437 1274 c 0,33,34
 366 1209 366 1209 366 1128 c 0,35,36
 366 1126 366 1126 367 1113 c 2,37,-1
 368 1100 l 2,38,39
 374 1016 374 1016 446 992 c 0,40,41
 941 827 941 827 968 810 c 0,42,43
 1094 730 1094 730 1110 531 c 1,44,-1
 1111 490 l 1,45,46
 1111 286 1111 286 966 142 c 1,47,48
 819 -6 819 -6 614 -6 c 0,49,50
 610 -6 610 -6 606 -6 c 0,51,52
 373 24 373 24 260 136 c 1,53,54
 174 229 174 229 135 337 c 1,55,-1
 130 358 l 1,56,-1
 330 452 l 1,0,1
EndSplineSet
Validated: 1
EndChar

StartChar: T
Encoding: 84 84 55
Width: 1094
GlyphClass: 2
Flags: W
HStem: 0 21G<454.031 497.043> 1302 190<199.604 456 654 1002>
VStem: 454 198<92 1302>
LayerCount: 2
Fore
SplineSet
281 1302 m 1,0,1
 218 1298 218 1298 199 1281 c 0,2,3
 167 1252 167 1252 167 1232 c 1,4,-1
 5 1316 l 1,5,6
 96 1492 96 1492 293 1492 c 2,7,-1
 295 1492 l 1,8,-1
 1089 1494 l 1,9,-1
 1002 1302 l 1,10,-1
 654 1302 l 1,11,-1
 652 92 l 1,12,-1
 454 0 l 1,13,-1
 456 1302 l 1,14,-1
 281 1302 l 1,0,1
EndSplineSet
Validated: 1
EndChar

StartChar: U
Encoding: 85 85 56
Width: 1425
GlyphClass: 2
Flags: W
HStem: 0 212<576.172 858.393> 1494 20G<538.5 579.719 1180.56 1225>
VStem: 150 207<500.697 1011.4> 1025 200<385.964 1424>
LayerCount: 2
Fore
SplineSet
749 1355 m 0,0,1
 661 1355 661 1355 532 1228 c 0,2,3
 454 1151 454 1151 405 1021 c 0,4,5
 357 894 357 894 357 736 c 0,6,7
 357 627 357 627 410 476 c 0,8,9
 445 375 445 375 537 287 c 0,10,11
 615 212 615 212 719 212 c 0,12,13
 817 212 817 212 900 287 c 1,14,-1
 912 299 l 1,15,16
 979 368 979 368 1025 464 c 1,17,-1
 1025 1424 l 1,18,-1
 1225 1514 l 1,19,-1
 1225 449 l 1,20,21
 1192 313 1192 313 1088 190 c 0,22,23
 1027 118 1027 118 935 67 c 0,24,25
 814 0 814 0 719 0 c 0,26,27
 717 0 717 0 716 0 c 128,-1,28
 715 0 715 0 713 0 c 0,29,30
 614 0 614 0 499 67 c 0,31,32
 394 128 394 128 315 233 c 0,33,34
 239 333 239 333 195 475 c 0,35,36
 150 620 150 620 150 750 c 0,37,38
 150 905 150 905 194 1045 c 0,39,40
 236 1179 236 1179 314 1287 c 0,41,42
 383 1383 383 1383 453 1440 c 0,43,44
 525 1499 525 1499 552 1514 c 1,45,-1
 789 1343 l 1,46,47
 768 1355 768 1355 749 1355 c 0,0,1
EndSplineSet
Validated: 1
EndChar

StartChar: V
Encoding: 86 86 57
Width: 1425
GlyphClass: 2
Flags: W
HStem: 0 212<564.73 849.376> 1494 18G<355.056 400 845.281 886>
VStem: 200 200<386.433 1423> 1068 207<500.828 1011.4>
LayerCount: 2
Fore
SplineSet
706 212 m 0,0,1
 811 212 811 212 888 287 c 0,2,3
 981 378 981 378 1015 476 c 0,4,5
 1068 630 1068 630 1068 736 c 0,6,7
 1068 894 1068 894 1020 1021 c 0,8,9
 971 1150 971 1150 893 1228 c 0,10,11
 765 1355 765 1355 668 1355 c 0,12,13
 658 1355 658 1355 636 1343 c 1,14,-1
 873 1514 l 1,15,16
 899 1500 899 1500 972 1440 c 0,17,18
 1041 1384 1041 1384 1111 1287 c 0,19,20
 1189 1179 1189 1179 1231 1045 c 0,21,22
 1275 905 1275 905 1275 750 c 0,23,24
 1275 619 1275 619 1230 475 c 0,25,26
 1186 334 1186 334 1110 232.5 c 128,-1,27
 1034 131 1034 131 926 67 c 0,28,29
 813 0 813 0 709 0 c 0,30,31
 708 0 708 0 706 0 c 0,32,33
 605 0 605 0 490 67 c 0,34,35
 385 128 385 128 333 192 c 0,36,37
 233 314 233 314 200 449 c 1,38,-1
 200 1423 l 1,39,-1
 400 1512 l 1,40,-1
 400 464 l 1,41,42
 446 368 446 368 513 299 c 1,43,-1
 525 287 l 1,44,45
 608 212 608 212 706 212 c 0,0,1
EndSplineSet
Validated: 1
EndChar

StartChar: W
Encoding: 87 87 58
Width: 2245
GlyphClass: 2
Flags: W
HStem: 0 200<584.563 852.507 1396.92 1661.85> 1490 20G<534 578.719 1178.56 1223.04 1658.28 1694.5>
VStem: 150 207<493.955 1007.11> 1026 199<369.544 1420> 1888 207<488.782 1007.27>
LayerCount: 2
Fore
SplineSet
692 0 m 2,0,1
 603 0 603 0 499 61 c 0,2,3
 392 124 392 124 315 226 c 0,4,5
 239 327 239 327 195 468 c 0,6,7
 150 611 150 611 150 743 c 0,8,9
 150 897 150 897 194 1038 c 0,10,11
 236 1174 236 1174 314 1281 c 0,12,13
 368 1356 368 1356 450 1429 c 0,14,15
 517 1489 517 1489 551 1510 c 1,16,-1
 788 1339 l 1,17,18
 766 1351 766 1351 756 1351 c 0,19,20
 647 1351 647 1351 532 1222 c 0,21,22
 449 1129 449 1129 405 1015 c 0,23,24
 357 891 357 891 357 730 c 0,25,26
 357 620 357 620 410 470 c 0,27,28
 449 360 449 360 537 281 c 0,29,30
 626 201 626 201 719 200 c 0,31,32
 811 200 811 200 900 281 c 1,33,-1
 912 293 l 1,34,35
 987 360 987 360 1026 444 c 1,36,-1
 1023 1420 l 1,37,-1
 1223 1510 l 1,38,-1
 1225 443 l 1,39,40
 1267 359 1267 359 1340 288 c 1,41,-1
 1347 281 l 1,42,43
 1431 205 1431 205 1528 205 c 0,44,45
 1631 205 1631 205 1710 281 c 0,46,47
 1802 370 1802 370 1837 470 c 0,48,49
 1888 615 1888 615 1888 730 c 0,50,51
 1888 893 1888 893 1840 1015 c 0,52,53
 1789 1146 1789 1146 1713 1222 c 0,54,55
 1585 1351 1585 1351 1481 1351 c 0,56,57
 1471 1351 1471 1351 1449 1339 c 1,58,-1
 1686 1510 l 1,59,60
 1703 1502 1703 1502 1795 1429 c 0,61,62
 1865 1374 1865 1374 1931 1281 c 0,63,64
 2009 1172 2009 1172 2051 1038 c 0,65,66
 2095 898 2095 898 2095 743 c 0,67,68
 2095 606 2095 606 2052 468 c 0,69,70
 2007 324 2007 324 1932 226 c 0,71,72
 1851 121 1851 121 1748 61 c 0,73,74
 1644 1 1644 1 1530 0 c 1,75,-1
 1526 0 l 2,76,77
 1408 0 1408 0 1312 61 c 128,-1,78
 1216 122 1216 122 1165 189 c 1,79,-1
 1122 264 l 1,80,81
 1117 253 1117 253 1075 185 c 0,82,83
 1032 115 1032 115 935 61 c 0,84,85
 826 0 826 0 696 0 c 2,86,-1
 692 0 l 2,0,1
EndSplineSet
Validated: 1
EndChar

StartChar: X
Encoding: 88 88 59
Width: 1214
GlyphClass: 2
Flags: W
HStem: 0 21G<226.973 285.751 837 889.385> 1491 20G<334.579 383 928.604 987.027>
VStem: 138 215<1151.98 1416> 875 211<91 348.651>
DStem2: 100 74 274 0 0.504394 0.863474<23.8674 732.527 956.424 1665.37>
LayerCount: 2
Fore
SplineSet
739 792 m 1,0,-1
 737 789 l 1,1,2
 821 724 821 724 887 647 c 0,3,4
 973 546 973 546 1025 414 c 0,5,6
 1068 304 1068 304 1078 214 c 0,7,8
 1086 140 1086 140 1086 104 c 0,9,10
 1086 98 1086 98 1086 91 c 1,11,-1
 834 0 l 1,12,13
 840 6 840 6 844 11 c 0,14,15
 875 50 875 50 875 126 c 1,16,17
 874 185 874 185 857 263 c 0,18,19
 833 374 833 374 760 478 c 0,20,21
 711 548 711 548 633 611 c 1,22,-1
 274 0 l 1,23,-1
 100 74 l 1,24,-1
 484 718 l 1,25,26
 402 782 402 782 337 860 c 0,27,28
 247 969 247 969 199 1093 c 0,29,30
 155 1208 155 1208 146 1293 c 0,31,32
 138 1371 138 1371 138 1405 c 0,33,34
 138 1410 138 1410 138 1416 c 1,35,-1
 387 1511 l 1,36,-1
 383 1502 l 1,37,38
 353 1441 353 1441 353 1361 c 0,39,40
 353 1306 353 1306 367 1244 c 0,41,42
 390 1140 390 1140 467 1027 c 0,43,44
 513 959 513 959 589 896 c 1,45,-1
 940 1512 l 1,46,-1
 1114 1438 l 1,47,-1
 739 792 l 1,0,-1
EndSplineSet
Validated: 1
EndChar

StartChar: Y
Encoding: 89 89 60
Width: 1375
GlyphClass: 2
Flags: W
HStem: 1 21G<974.047 1032.82> 331 196<484.994 835.639> 1492 20G<487 537.639 1117.86 1174.99>
VStem: 100 200<729.057 1107.31> 975 199<69 431 640.473 1442>
LayerCount: 2
Fore
SplineSet
669 331 m 0,0,1
 565 331 565 331 449 384 c 0,2,3
 342 433 342 433 265 513 c 0,4,5
 191 590 191 590 145 702 c 0,6,7
 100 811 100 811 100 916 c 0,8,9
 100 1036 100 1036 144 1146 c 0,10,11
 186 1251 186 1251 264 1335 c 0,12,13
 331 1407 331 1407 403 1454 c 0,14,15
 472 1499 472 1499 502 1512 c 1,16,-1
 739 1379 l 1,17,18
 717 1388 717 1388 707 1388 c 0,19,20
 607 1388 607 1388 482 1289 c 0,21,22
 415 1236 415 1236 355 1128 c 1,23,24
 300 1032 300 1032 300 914 c 0,25,26
 300 793 300 793 360 703 c 0,27,28
 424 608 424 608 487 570 c 0,29,30
 558 527 558 527 676 527 c 0,31,32
 734 527 734 527 836 572 c 1,33,-1
 854 582 l 1,34,35
 935 633 935 633 975 693 c 1,36,-1
 975 1442 l 1,37,-1
 1175 1512 l 1,38,-1
 1174 69 l 1,39,-1
 974 1 l 1,40,-1
 975 431 l 1,41,42
 933 404 933 404 885 384 c 0,43,44
 759 331 759 331 669 331 c 0,0,1
EndSplineSet
Validated: 1
EndChar

StartChar: Z
Encoding: 90 90 61
Width: 1221
GlyphClass: 2
Flags: W
HStem: 20 188<356 927.055> 1308 184<244 692.085>
VStem: 830 200<1012 1164.52>
DStem2: 129 236 356 208 0.668753 0.743485<130.989 1043.73>
LayerCount: 2
Fore
SplineSet
1029 957 m 1,0,-1
 356 208 l 1,1,-1
 838 210 l 2,2,3
 898 210 898 210 928 228 c 0,4,5
 962 248 962 248 979 309 c 1,6,-1
 1141 225 l 1,7,8
 1086 34 1086 34 828 20 c 1,9,-1
 329 20 l 2,10,11
 100 20 100 20 100 150 c 0,12,13
 100 196 100 196 129 236 c 1,14,15
 129 236 129 236 827 1012 c 1,16,-1
 830 1032 l 1,17,18
 830 1122 830 1122 749 1218 c 0,19,20
 673 1308 673 1308 514 1308 c 2,21,-1
 136 1308 l 1,22,-1
 244 1492 l 1,23,-1
 533 1491 l 2,24,25
 742 1491 742 1491 886 1346 c 128,-1,26
 1030 1201 1030 1201 1030 998 c 1,27,-1
 1029 957 l 1,0,-1
EndSplineSet
Validated: 1
EndChar

StartChar: bracketleft
Encoding: 91 91 62
Width: 763
GlyphClass: 2
Flags: W
HStem: -344 181<354.033 666> 1562 181<353.202 665>
VStem: 151 202<-157.672 1556.55>
LayerCount: 2
Fore
SplineSet
353 -104 m 2,0,1
 354 -159 354 -159 393 -163 c 1,2,-1
 753 -160 l 1,3,-1
 666 -344 l 1,4,-1
 403 -344 l 2,5,6
 167 -344 167 -344 151 -132 c 1,7,-1
 150 1531 l 1,8,9
 167 1742 167 1742 402 1743 c 2,10,-1
 752 1744 l 1,11,-1
 665 1560 l 1,12,-1
 392 1562 l 1,13,14
 352 1558 352 1558 352 1503 c 2,15,-1
 353 -104 l 2,0,1
EndSplineSet
Validated: 1
EndChar

StartChar: backslash
Encoding: 92 92 63
Width: 1065
GlyphClass: 2
Flags: W
DStem2: 190 1654 10 1572 0.435903 -0.899994<0 1982.02>
LayerCount: 2
Fore
SplineSet
1055 -132 m 1,0,-1
 876 -216 l 1,1,-1
 10 1572 l 1,2,-1
 190 1654 l 1,3,-1
 1055 -132 l 1,0,-1
EndSplineSet
Validated: 1
EndChar

StartChar: bracketright
Encoding: 93 93 64
Width: 763
GlyphClass: 2
Flags: W
HStem: -344 184<98 409.798> 1560 184<97 408.993>
VStem: 411 202<-156.555 1557.67>
LayerCount: 2
Fore
SplineSet
410 1504 m 2,0,1
 410 1559 410 1559 370 1563 c 1,2,-1
 10 1560 l 1,3,-1
 97 1744 l 1,4,-1
 360 1744 l 2,5,6
 596 1744 596 1744 612 1532 c 1,7,-1
 613 -131 l 1,8,9
 596 -342 596 -342 361 -343 c 2,10,-1
 11 -344 l 1,11,-1
 98 -160 l 1,12,-1
 371 -162 l 1,13,14
 411 -158 411 -158 411 -106 c 0,15,16
 411 -104 411 -104 411 -103 c 2,17,-1
 410 1504 l 2,0,1
EndSplineSet
Validated: 1
EndChar

StartChar: asciicircum
Encoding: 94 94 65
Width: 1180
GlyphClass: 2
Flags: W
HStem: 1062 456
DStem2: 80 1168 237 1062 0.83205 0.5547<71.8337 479.538>
LayerCount: 2
Fore
SplineSet
80 1168 m 1,0,-1
 605 1518 l 1,1,-1
 1100 1168 l 1,2,-1
 926 1062 l 1,3,-1
 581 1281 l 1,4,-1
 237 1062 l 1,5,-1
 80 1168 l 1,0,-1
EndSplineSet
Validated: 16385
EndChar

StartChar: underscore
Encoding: 95 95 66
Width: 1083
GlyphClass: 2
Flags: W
HStem: -537 198<170 911>
LayerCount: 2
Fore
SplineSet
170 -339 m 1,0,-1
 1003 -339 l 1,1,-1
 911 -537 l 1,2,-1
 80 -537 l 1,3,-1
 170 -339 l 1,0,-1
EndSplineSet
Validated: 1
EndChar

StartChar: grave
Encoding: 96 96 67
Width: 752
GlyphClass: 2
Flags: W
HStem: 990 522
VStem: 150 452
DStem2: 242 1512 150 1314 0.743294 -0.668965<64.072 484.33>
LayerCount: 2
Fore
SplineSet
242 1512 m 1,0,-1
 602 1188 l 1,1,-1
 510 990 l 1,2,-1
 150 1314 l 1,3,-1
 242 1512 l 1,0,-1
EndSplineSet
Validated: 1
EndChar

StartChar: a
Encoding: 97 97 68
Width: 1118
GlyphClass: 2
Flags: W
HStem: 0 193<425.553 640.609> 933 194<426.303 655.801>
VStem: 100 200<352.447 774.136> 783 205<84 774.638>
LayerCount: 2
Fore
SplineSet
542 193 m 0,0,1
 611 193 611 193 650 249 c 0,2,3
 657 259 657 259 661 267 c 1,4,-1
 756 81 l 1,5,6
 750 76 750 76 744 72 c 0,7,8
 651 0 651 0 540 0 c 0,9,10
 422 0 422 0 321 75 c 128,-1,11
 220 150 220 150 160 281 c 128,-1,12
 100 412 100 412 100 564 c 0,13,14
 100 715 100 715 160 846 c 0,15,16
 221 978 221 978 321 1052 c 0,17,18
 423 1127 423 1127 544 1127 c 0,19,20
 653 1127 653 1127 767 1052 c 0,21,22
 857 993 857 993 928 846 c 0,23,24
 988 722 988 722 988 564 c 2,25,-1
 988 560 l 1,26,-1
 986 84 l 1,27,-1
 790 0 l 1,28,-1
 783 563 l 2,29,30
 783 565 783 565 783 567 c 128,-1,31
 783 569 783 569 783 571 c 0,32,33
 783 715 783 715 712 824 c 128,-1,34
 641 933 641 933 542 933 c 0,35,36
 440 933 440 933 371 824 c 0,37,38
 300 712 300 712 300 564 c 0,39,40
 300 414 300 414 371 302 c 0,41,42
 440 193 440 193 542 193 c 0,0,1
EndSplineSet
Validated: 16385
EndChar

StartChar: b
Encoding: 98 98 69
Width: 1138
GlyphClass: 2
Flags: W
HStem: 2 194<480.85 711.5> 937 193<478.422 710.141> 1492 20G<301.333 348>
VStem: 150 205<353.829 786.02 1037 1428> 838 200<354.752 778.09>
LayerCount: 2
Fore
SplineSet
355 554 m 0,0,1
 355 413 355 413 426 305 c 0,2,3
 498 196 498 196 594 196 c 0,4,5
 595 196 595 196 596 196 c 0,6,7
 697 196 697 196 767 305 c 0,8,9
 838 416 838 416 838 566 c 0,10,11
 838 718 838 718 767 828 c 0,12,13
 697 936 697 936 596 937 c 1,14,15
 491 937 491 937 421 827 c 0,16,17
 355 724 355 724 355 554 c 0,0,1
348 1037 m 1,18,19
 358 1045 358 1045 371 1055 c 0,20,21
 472 1130 472 1130 591 1130 c 2,22,-1
 594 1130 l 1,23,24
 717 1129 717 1129 817 1055 c 128,-1,25
 917 981 917 981 978 849 c 0,26,27
 1038 719 1038 719 1038 566 c 0,28,29
 1038 414 1038 414 978 283 c 128,-1,30
 918 152 918 152 817 77 c 128,-1,31
 716 2 716 2 597 2 c 0,32,33
 596 2 596 2 594 2 c 0,34,35
 472 2 472 2 371 77 c 0,36,37
 271 151 271 151 210 283 c 0,38,39
 150 413 150 413 150 566 c 2,40,-1
 150 570 l 1,41,-1
 152 1428 l 1,42,-1
 348 1512 l 1,43,-1
 348 1037 l 1,18,19
EndSplineSet
Validated: 16385
EndChar

StartChar: c
Encoding: 99 99 70
Width: 1068
GlyphClass: 2
Flags: W
HStem: -1 193<430.74 662> 933 193<429.74 667.361>
VStem: 100 202<350.685 774.398>
LayerCount: 2
Fore
SplineSet
968 429 m 1,0,1
 951 334 951 334 928 280 c 0,2,3
 875 155 875 155 767 74 c 0,4,5
 667 -1 667 -1 547 -1 c 0,6,7
 546 -1 546 -1 544 -1 c 0,8,9
 422 -1 422 -1 321 74 c 0,10,11
 221 148 221 148 160 280 c 0,12,13
 100 410 100 410 100 563 c 0,14,15
 100 715 100 715 160 846 c 128,-1,16
 220 977 220 977 321 1052 c 0,17,18
 420 1125 420 1125 544 1126 c 1,19,-1
 547 1126 l 2,20,21
 664 1126 664 1126 767 1052 c 0,22,23
 871 977 871 977 917 872 c 0,24,25
 924 856 924 856 931 840 c 1,26,-1
 746 758 l 1,27,28
 729 815 729 815 704 850 c 0,29,30
 645 932 645 932 544 933 c 1,31,32
 544 933 544 933 542 933 c 0,33,34
 444 933 444 933 373 824 c 128,-1,35
 302 715 302 715 302 566 c 0,36,37
 302 564 302 564 302 562 c 0,38,39
 302 408 302 408 373 301 c 0,40,41
 445 192 445 192 542 192 c 0,42,43
 543 192 543 192 544 192 c 0,44,45
 649 192 649 192 715 301 c 0,46,47
 721 311 721 311 726 320 c 1,48,-1
 968 429 l 1,0,1
EndSplineSet
Validated: 16385
EndChar

StartChar: d
Encoding: 100 100 71
Width: 1138
GlyphClass: 2
Flags: W
HStem: 3 193<428.513 659.222> 936 194<424.291 659.459> 1492 20G<939.333 986.042>
VStem: 100 202<355.08 785.599> 790 198<363.126 769.062 1037 1428>
LayerCount: 2
Fore
SplineSet
100 566 m 0,0,1
 100 717 100 717 160 849 c 128,-1,2
 220 981 220 981 321 1055 c 0,3,4
 423 1130 423 1130 544 1130 c 0,5,6
 654 1130 654 1130 767 1055 c 0,7,8
 779 1047 779 1047 790 1037 c 1,9,-1
 790 1428 l 1,10,-1
 986 1512 l 1,11,-1
 988 570 l 1,12,-1
 988 566 l 2,13,14
 988 414 988 414 928 284 c 128,-1,15
 868 154 868 154 767 78 c 0,16,17
 667 3 667 3 544 3 c 0,18,19
 426 3 426 3 321 78 c 0,20,21
 215 154 215 154 158 276 c 1,22,23
 100 405 100 405 100 566 c 0,0,1
302 566 m 0,24,25
 302 414 302 414 373 305 c 128,-1,26
 444 196 444 196 544 196 c 0,27,28
 645 196 645 196 715 305 c 0,29,30
 786 416 786 416 786 562 c 0,31,32
 786 564 786 564 786 566 c 0,33,34
 786 716 786 716 715 827 c 0,35,36
 645 936 645 936 544 936 c 0,37,38
 437 936 437 936 366 822 c 0,39,40
 302 719 302 719 302 566 c 0,24,25
EndSplineSet
Validated: 16385
EndChar

StartChar: e
Encoding: 101 101 72
Width: 1068
GlyphClass: 2
Flags: W
HStem: 0 193<427.763 661.868> 933 194<425.393 666.702>
VStem: 100 202<568 778.021>
DStem2: 302 568 337 372 0.913089 0.407759<0 486.98>
LayerCount: 2
Fore
SplineSet
960 684 m 1,0,1
 960 684 960 684 964 652 c 1,2,-1
 337 372 l 1,3,4
 353 333 353 333 373 302 c 0,5,6
 444 193 444 193 544 193 c 0,7,8
 650 193 650 193 715 302 c 0,9,10
 721 312 721 312 726 321 c 1,11,-1
 968 430 l 1,12,13
 953 345 953 345 928 281 c 1,14,15
 875 155 875 155 767 75 c 0,16,17
 666 0 666 0 544 0 c 0,18,19
 423 0 423 0 321 75 c 0,20,21
 220 149 220 149 160 281 c 128,-1,22
 100 413 100 413 100 564 c 0,23,24
 100 714 100 714 160 846 c 0,25,26
 219 976 219 976 321 1052 c 0,27,28
 422 1127 422 1127 544 1127 c 0,29,30
 664 1127 664 1127 767 1052 c 0,31,32
 851 992 851 992 898 892 c 0,33,34
 937 809 937 809 960 684 c 1,0,1
302 568 m 1,35,-1
 746 760 l 1,36,37
 729 816 729 816 704 850 c 0,38,39
 644 932 644 932 544 933 c 1,40,41
 544 933 544 933 542 933 c 0,42,43
 442 933 442 933 376 832 c 0,44,45
 304 722 304 722 302 568 c 1,35,-1
EndSplineSet
Validated: 16385
EndChar

StartChar: f
Encoding: 102 102 73
Width: 779
GlyphClass: 2
Flags: W
HStem: 0 21G<150 190.851> 926 182<366 632> 1318 194<474.765 646.273>
VStem: 150 192<94 926>
LayerCount: 2
Fore
SplineSet
150 0 m 1,0,-1
 150 948 l 2,1,2
 150 1100 150 1100 210 1231 c 0,3,4
 271 1364 271 1364 371 1437 c 0,5,6
 473 1512 473 1512 594 1512 c 0,7,8
 685 1512 685 1512 769 1467 c 9,9,-1
 639 1312 l 17,10,11
 618 1318 618 1318 594 1318 c 0,12,13
 495 1318 495 1318 422 1217 c 0,14,15
 386 1167 386 1167 366 1108 c 1,16,-1
 714 1108 l 1,17,-1
 632 926 l 1,18,-1
 342 926 l 1,19,-1
 342 94 l 1,20,-1
 150 0 l 1,0,-1
EndSplineSet
Validated: 1
EndChar

StartChar: g
Encoding: 103 103 74
Width: 1138
GlyphClass: 2
Flags: W
HStem: -382 21G<790 836.667> 0 193<426.303 663.638> 933 194<426.263 656.577>
VStem: 100 200<353.16 774.494> 783 205<-298 93 340.487 774.938>
LayerCount: 2
Fore
SplineSet
783 563 m 0,0,1
 783 717 783 717 712 824 c 0,2,3
 640 933 640 933 542 933 c 0,4,5
 442 933 442 933 371 824 c 128,-1,6
 300 715 300 715 300 568 c 0,7,8
 300 566 300 566 300 564 c 0,9,10
 300 415 300 415 371 302 c 0,11,12
 440 193 440 193 542 193 c 0,13,14
 653 193 653 193 720 306 c 0,15,16
 783 413 783 413 783 563 c 0,0,1
790 93 m 1,17,18
 779 83 779 83 767 75 c 0,19,20
 658 0 658 0 544 0 c 0,21,22
 423 0 423 0 321 75 c 0,23,24
 220 149 220 149 160 281 c 128,-1,25
 100 413 100 413 100 564 c 0,26,27
 100 716 100 716 160 846 c 128,-1,28
 220 976 220 976 321 1052 c 0,29,30
 421 1127 421 1127 544 1127 c 0,31,32
 664 1127 664 1127 767 1052 c 0,33,34
 866 979 866 979 928 846 c 0,35,36
 988 716 988 716 988 564 c 2,37,-1
 988 560 l 1,38,-1
 986 -298 l 1,39,-1
 790 -382 l 1,40,-1
 790 93 l 1,17,18
EndSplineSet
Validated: 16385
EndChar

StartChar: h
Encoding: 104 104 75
Width: 1138
GlyphClass: 2
Flags: W
HStem: 0 21G<150.014 190.851 683 723.5> 933 194<476.916 710.217> 1489 20G<299.364 343>
VStem: 150 192<94 771.47 1030 1421> 836 202<346.721 773.571>
LayerCount: 2
Fore
SplineSet
151 1421 m 1,0,-1
 343 1509 l 1,1,-1
 343 1030 l 1,2,3
 354 1040 354 1040 371 1052 c 0,4,5
 478 1127 478 1127 594 1127 c 0,6,7
 714 1127 714 1127 817 1052 c 0,8,9
 916 979 916 979 978 846 c 0,10,11
 1038 716 1038 716 1038 564 c 0,12,13
 1038 413 1038 413 978 281 c 0,14,15
 917 147 917 147 817 75 c 0,16,17
 753 28 753 28 694 0 c 1,18,19
 672 26 672 26 576 162 c 1,20,-1
 640 188 l 1,21,22
 702 217 702 217 765 302 c 0,23,24
 836 397 836 397 836 558 c 0,25,26
 836 561 836 561 836 563 c 0,27,28
 836 713 836 713 765 824 c 0,29,30
 695 933 695 933 594 933 c 0,31,32
 499 933 499 933 422 832 c 1,33,34
 347 731 347 731 342 583 c 1,35,-1
 342 94 l 1,36,-1
 150 0 l 1,37,-1
 151 1421 l 1,0,-1
EndSplineSet
Validated: 16385
EndChar

StartChar: i
Encoding: 105 105 76
Width: 496
GlyphClass: 2
Flags: W
HStem: 0 21G<150 193.077> 1112 20G<301.149 342.077> 1247 264<157.191 338.809>
VStem: 118 260<1286.71 1471.29> 150 196<91 1038>
LayerCount: 2
Fore
SplineSet
118 1379 m 128,-1,1
 118 1434 118 1434 156 1472.5 c 128,-1,2
 194 1511 194 1511 248 1511 c 128,-1,3
 302 1511 302 1511 340 1472.5 c 128,-1,4
 378 1434 378 1434 378 1379 c 128,-1,5
 378 1324 378 1324 340 1285.5 c 128,-1,6
 302 1247 302 1247 248 1247 c 128,-1,7
 194 1247 194 1247 156 1285.5 c 128,-1,0
 118 1324 118 1324 118 1379 c 128,-1,1
150 0 m 1,8,-1
 150 1038 l 1,9,-1
 342 1132 l 1,10,-1
 346 91 l 1,11,-1
 150 0 l 1,8,-1
EndSplineSet
Validated: 16385
EndChar

StartChar: j
Encoding: 106 106 77
Width: 496
GlyphClass: 2
Flags: W
HStem: -382 21G<150 199> 1112 20G<301.149 342.056> 1247 264<157.191 338.809>
VStem: 118 260<1286.71 1471.29> 150 196<-302 1038>
LayerCount: 2
Fore
SplineSet
118 1379 m 128,-1,1
 118 1434 118 1434 156 1472.5 c 128,-1,2
 194 1511 194 1511 248 1511 c 128,-1,3
 302 1511 302 1511 340 1472.5 c 128,-1,4
 378 1434 378 1434 378 1379 c 128,-1,5
 378 1324 378 1324 340 1285.5 c 128,-1,6
 302 1247 302 1247 248 1247 c 128,-1,7
 194 1247 194 1247 156 1285.5 c 128,-1,0
 118 1324 118 1324 118 1379 c 128,-1,1
150 -382 m 1,8,-1
 150 1038 l 1,9,-1
 342 1132 l 1,10,-1
 346 -302 l 1,11,-1
 150 -382 l 1,8,-1
EndSplineSet
Validated: 16385
EndChar

StartChar: k
Encoding: 107 107 78
Width: 1138
GlyphClass: 2
Flags: W
HStem: 0 21G<150 190.851 694 724> 1102 20G<825.707 864.133> 1492 20G<307.447 350.05>
VStem: 150 192<94 512.887 712 1418> 840 198<237.223 517.349>
DStem2: 352 712 700 751 0.77202 0.635599<293.451 631.556>
LayerCount: 2
Fore
SplineSet
640 127 m 0,0,1
 704 149 704 149 765 204 c 1,2,3
 840 268 840 268 840 380 c 0,4,5
 840 493 840 493 766 544 c 0,6,7
 684 601 684 601 595 601 c 0,8,9
 594 601 594 601 592 601 c 0,10,11
 491 601 491 601 423 549 c 0,12,13
 342 487 342 487 342 380 c 2,14,-1
 342 94 l 1,15,-1
 150 0 l 1,16,-1
 150 1418 l 1,17,-1
 350 1512 l 1,18,-1
 352 712 l 1,19,-1
 850 1122 l 1,20,-1
 956 972 l 1,21,-1
 700 751 l 1,22,23
 762 738 762 738 817 711 c 0,24,25
 917 663 917 663 978 572 c 0,26,27
 1038 483 1038 483 1038 381 c 0,28,29
 1038 278 1038 278 978 190 c 0,30,31
 914 96 914 96 817 50 c 0,32,33
 754 20 754 20 694 0 c 1,34,35
 694 0 694 0 576 109 c 1,36,37
 585 109 585 109 640 127 c 0,0,1
EndSplineSet
Validated: 16385
EndChar

StartChar: l
Encoding: 108 108 79
Width: 499
GlyphClass: 2
Flags: W
HStem: 0 21G<150.014 193.516> 1491 20G<305 348.986>
VStem: 150 198<91 1421>
LayerCount: 2
Fore
SplineSet
348 91 m 1,0,-1
 150 0 l 1,1,-1
 151 1421 l 1,2,-1
 349 1511 l 1,3,-1
 348 91 l 1,0,-1
EndSplineSet
Validated: 1
EndChar

StartChar: m
Encoding: 109 109 80
Width: 1784
GlyphClass: 2
Flags: W
HStem: 0 21G<796 836.851 1329 1369.5> 933 194<420.302 670.166 1123.16 1356.22>
VStem: 100 202<355.386 782.259> 796 192<94 774.741> 1482 202<346.721 774.255>
CounterMasks: 1 38
LayerCount: 2
Fore
SplineSet
796 567 m 0,0,1
 796 732 796 732 716 840 c 0,2,3
 640 941 640 941 546 941 c 2,4,-1
 544 941 l 1,5,6
 443 940 443 940 373 832 c 0,7,8
 302 722 302 722 302 571 c 0,9,10
 302 405 302 405 373 310 c 0,11,12
 438 224 438 224 498 196 c 1,13,-1
 562 170 l 1,14,15
 466 34 466 34 444 8 c 1,16,17
 387 36 387 36 321 83 c 0,18,19
 222 155 222 155 160 289 c 0,20,21
 100 420 100 420 100 572 c 0,22,23
 100 722 100 722 160 854 c 0,24,25
 219 984 219 984 321 1060 c 0,26,27
 422 1135 422 1135 544 1135 c 0,28,29
 664 1135 664 1135 767 1060 c 0,30,31
 841 1006 841 1006 894 918 c 1,32,33
 945 999 945 999 1017 1052 c 0,34,35
 1118 1127 1118 1127 1240 1127 c 0,36,37
 1360 1127 1360 1127 1463 1052 c 0,38,39
 1562 979 1562 979 1624 846 c 0,40,41
 1684 716 1684 716 1684 564 c 0,42,43
 1684 413 1684 413 1624 281 c 0,44,45
 1563 147 1563 147 1463 75 c 0,46,47
 1399 28 1399 28 1340 0 c 1,48,49
 1318 26 1318 26 1222 162 c 1,50,-1
 1286 188 l 1,51,52
 1348 217 1348 217 1411 302 c 0,53,54
 1482 397 1482 397 1482 558 c 2,55,-1
 1482 563 l 1,56,57
 1481 715 1481 715 1411 824 c 128,-1,58
 1341 933 1341 933 1240 933 c 0,59,60
 1145 933 1145 933 1068 832 c 1,61,62
 988 724 988 724 988 571 c 0,63,64
 988 566 988 566 988 562 c 2,65,-1
 988 94 l 1,66,-1
 796 0 l 1,67,-1
 796 564 l 2,68,69
 796 565 796 565 796 567 c 0,0,1
EndSplineSet
Validated: 16385
EndChar

StartChar: n
Encoding: 110 110 81
Width: 1118
GlyphClass: 2
Flags: W
HStem: 0 21G<130 170.851 663 703> 933 194<457.407 689.967>
VStem: 130 192<94 774.995> 816 202<346.721 773.571>
LayerCount: 2
Fore
SplineSet
556 162 m 1,0,1
 556 162 556 162 620 188 c 1,2,3
 682 217 682 217 745 302 c 0,4,5
 816 397 816 397 816 558 c 0,6,7
 816 561 816 561 816 563 c 0,8,9
 816 713 816 713 745 824 c 0,10,11
 675 933 675 933 574 933 c 0,12,13
 479 933 479 933 402 832 c 0,14,15
 322 727 322 727 322 562 c 2,16,-1
 322 94 l 1,17,-1
 130 0 l 1,18,-1
 130 564 l 2,19,20
 130 715 130 715 190 846 c 0,21,22
 251 978 251 978 351 1052 c 0,23,24
 453 1127 453 1127 574 1127 c 0,25,26
 693 1127 693 1127 797 1052 c 0,27,28
 897 979 897 979 958 846 c 0,29,30
 1018 714 1018 714 1018 564 c 0,31,32
 1018 412 1018 412 958 281 c 0,33,34
 896 146 896 146 797 75 c 0,35,36
 732 28 732 28 674 0 c 1,37,38
 652 26 652 26 556 162 c 1,0,1
EndSplineSet
Validated: 16385
EndChar

StartChar: o
Encoding: 111 111 82
Width: 1088
GlyphClass: 2
Flags: W
HStem: 3 193<428.763 659.222> 936 194<427.305 660.467>
VStem: 100 202<353.422 782.73> 786 202<355.237 776.571>
LayerCount: 2
Fore
SplineSet
302 566 m 0,0,1
 302 414 302 414 373 305 c 128,-1,2
 444 196 444 196 544 196 c 0,3,4
 645 196 645 196 715 305 c 0,5,6
 786 416 786 416 786 562 c 0,7,8
 786 564 786 564 786 566 c 0,9,10
 786 716 786 716 715 827 c 0,11,12
 645 936 645 936 544 936 c 0,13,14
 441 936 441 936 369 826 c 1,15,16
 302 717 302 717 302 566 c 0,0,1
100 554 m 0,17,18
 100 719 100 719 160 849 c 0,19,20
 221 981 221 981 321 1055 c 0,21,22
 422 1130 422 1130 544 1130 c 0,23,24
 665 1130 665 1130 767 1055 c 0,25,26
 868 981 868 981 928 849 c 128,-1,27
 988 717 988 717 988 566 c 0,28,29
 988 414 988 414 928 284 c 128,-1,30
 868 154 868 154 767 78 c 0,31,32
 667 3 667 3 544 3 c 0,33,34
 427 3 427 3 321 78 c 0,35,36
 219 150 219 150 159 279 c 0,37,38
 100 406 100 406 100 554 c 0,17,18
EndSplineSet
Validated: 16385
EndChar

StartChar: p
Encoding: 112 112 83
Width: 1138
GlyphClass: 2
Flags: W
HStem: -382 21G<151.958 198.667> 0 194<478.541 713.709> 934 193<478.778 709.487>
VStem: 150 198<-298 93 360.938 766.874> 836 202<344.401 774.92>
LayerCount: 2
Fore
SplineSet
1038 564 m 0,0,1
 1038 413 1038 413 978 281 c 128,-1,2
 918 149 918 149 817 75 c 0,3,4
 715 0 715 0 594 0 c 0,5,6
 484 0 484 0 371 75 c 0,7,8
 359 83 359 83 348 93 c 1,9,-1
 348 -298 l 1,10,-1
 152 -382 l 1,11,-1
 150 560 l 1,12,-1
 150 564 l 2,13,14
 150 716 150 716 210 846 c 128,-1,15
 270 976 270 976 371 1052 c 0,16,17
 471 1127 471 1127 594 1127 c 0,18,19
 712 1127 712 1127 817 1052 c 0,20,21
 923 976 923 976 980 854 c 1,22,23
 1038 725 1038 725 1038 564 c 0,0,1
836 564 m 0,24,25
 836 716 836 716 765 825 c 128,-1,26
 694 934 694 934 594 934 c 0,27,28
 493 934 493 934 423 825 c 0,29,30
 352 714 352 714 352 568 c 0,31,32
 352 566 352 566 352 564 c 0,33,34
 352 414 352 414 423 303 c 0,35,36
 493 194 493 194 594 194 c 0,37,38
 701 194 701 194 772 308 c 0,39,40
 836 411 836 411 836 564 c 0,24,25
EndSplineSet
Validated: 16385
EndChar

StartChar: q
Encoding: 113 113 84
Width: 1138
GlyphClass: 2
Flags: W
HStem: -382 21G<790 832.609> 0 193<426.791 664.275> 933 194<426.263 656.807>
VStem: 100 200<352.477 774.494> 783 205<-114 93 333.948 774.255>
LayerCount: 2
Fore
SplineSet
790 93 m 1,0,1
 779 83 779 83 767 75 c 0,2,3
 658 0 658 0 544 0 c 0,4,5
 423 0 423 0 321 75 c 0,6,7
 220 149 220 149 160 281 c 128,-1,8
 100 413 100 413 100 564 c 0,9,10
 100 716 100 716 160 846 c 128,-1,11
 220 976 220 976 321 1052 c 0,12,13
 421 1127 421 1127 544 1127 c 0,14,15
 664 1127 664 1127 767 1052 c 0,16,17
 866 979 866 979 928 846 c 0,18,19
 988 716 988 716 988 564 c 2,20,-1
 988 560 l 1,21,-1
 986 -114 l 1,22,-1
 1133 -35 l 1,23,-1
 1133 -221 l 5,24,-1
 790 -382 l 1,25,-1
 790 93 l 1,0,1
546 193 m 0,26,27
 649 193 649 193 720 302 c 0,28,29
 783 399 783 399 783 563 c 0,30,31
 783 715 783 715 712 824 c 128,-1,32
 641 933 641 933 542 933 c 0,33,34
 442 933 442 933 371 824 c 128,-1,35
 300 715 300 715 300 568 c 0,36,37
 300 566 300 566 300 564 c 0,38,39
 300 413 300 413 371 302 c 0,40,41
 441 193 441 193 546 193 c 0,26,27
EndSplineSet
Validated: 1
EndChar

StartChar: r
Encoding: 114 114 85
Width: 768
GlyphClass: 2
Flags: W
HStem: 0 21G<150 190.851> 934 194<475.216 641.782>
VStem: 150 192<94 771.651>
LayerCount: 2
Fore
SplineSet
150 0 m 1,0,-1
 150 564 l 2,1,2
 150 716 150 716 210 847 c 0,3,4
 271 979 271 979 371 1053 c 0,5,6
 473 1128 473 1128 594 1128 c 0,7,8
 683 1128 683 1128 763 1087 c 9,9,-1
 633 930 l 17,10,11
 614 934 614 934 594 934 c 0,12,13
 497 934 497 934 422 833 c 0,14,15
 342 725 342 725 342 563 c 2,16,-1
 342 94 l 1,17,-1
 150 0 l 1,0,-1
EndSplineSet
Validated: 1
EndChar

StartChar: s
Encoding: 115 115 86
Width: 973
GlyphClass: 2
Flags: W
HStem: 0 182<336.288 632.198> 932 174<378.227 607.047>
VStem: 145 191<698.635 888.816> 700 193<248.15 428.112>
DStem2: 415 684 299 526 0.964887 -0.262664<-90.007 355.099>
LayerCount: 2
Fore
SplineSet
893 363 m 1,0,1
 893 223 893 223 789 128 c 0,2,3
 649 0 649 0 495 0 c 0,4,5
 316 0 316 0 181 116 c 0,6,7
 102 184 102 184 80 240 c 1,8,-1
 255 322 l 1,9,10
 266 285 266 285 315 243 c 0,11,12
 386 182 386 182 495 182 c 0,13,14
 575 182 575 182 631 225 c 0,15,16
 686 267 686 267 697 328 c 0,17,18
 700 344 700 344 700 358 c 0,19,20
 700 409 700 409 659 428 c 1,21,-1
 299 526 l 1,22,23
 179 572 179 572 149 700 c 1,24,25
 145 730 145 730 145 759 c 0,26,27
 145 889 145 889 227 986 c 0,28,29
 328 1106 328 1106 490 1106 c 0,30,31
 649 1106 649 1106 761 1000 c 0,32,33
 799 964 799 964 818 928 c 1,34,-1
 637 850 l 1,35,36
 619 880 619 880 601 894 c 0,37,38
 551 932 551 932 490 932 c 0,39,40
 489 932 489 932 487 932 c 0,41,42
 416 932 416 932 377 888 c 1,43,44
 336 834 336 834 336 782 c 0,45,46
 336 740 336 740 363 700 c 1,47,-1
 415 684 l 1,48,-1
 645 628 l 1,49,50
 734 601 734 601 803 555 c 0,51,52
 891 497 891 497 893 363 c 1,0,1
EndSplineSet
Validated: 16385
EndChar

StartChar: t
Encoding: 116 116 87
Width: 711
GlyphClass: 2
Flags: W
HStem: 0 21G<150.056 191.263> 926 182<351 624> 1491 20G<303.909 347.95>
VStem: 150 196<95 926 1108 1423>
LayerCount: 2
Fore
SplineSet
154 1423 m 1,0,-1
 348 1511 l 1,1,-1
 347 1108 l 1,2,-1
 706 1108 l 1,3,-1
 624 926 l 1,4,-1
 351 926 l 1,5,-1
 346 95 l 1,6,-1
 150 0 l 1,7,-1
 154 1423 l 1,0,-1
EndSplineSet
Validated: 1
EndChar

StartChar: u
Encoding: 117 117 88
Width: 1118
GlyphClass: 2
Flags: W
HStem: 0 194<427.533 660.818> 1113 20G<414.5 455 947.149 988>
VStem: 100 202<353.429 780.279> 796 192<352.075 1039>
LayerCount: 2
Fore
SplineSet
562 965 m 1,0,1
 562 965 562 965 498 939 c 1,2,3
 436 910 436 910 373 825 c 0,4,5
 302 730 302 730 302 569 c 0,6,7
 302 566 302 566 302 564 c 0,8,9
 302 414 302 414 373 303 c 0,10,11
 443 194 443 194 544 194 c 0,12,13
 640 194 640 194 716 295 c 0,14,15
 796 402 796 402 796 565 c 2,16,-1
 796 1039 l 1,17,-1
 988 1133 l 1,18,-1
 988 564 l 2,19,20
 988 412 988 412 928 281 c 0,21,22
 867 148 867 148 767 75 c 0,23,24
 665 0 665 0 544 0 c 128,-1,25
 423 0 423 0 321 75 c 0,26,27
 220 149 220 149 160 281 c 128,-1,28
 100 413 100 413 100 564 c 128,-1,29
 100 715 100 715 160 846 c 0,30,31
 222 981 222 981 321 1052 c 0,32,33
 385 1098 385 1098 444 1127 c 1,34,35
 466 1101 466 1101 562 965 c 1,0,1
EndSplineSet
Validated: 16385
EndChar

StartChar: v
Encoding: 118 118 89
Width: 1118
GlyphClass: 2
Flags: W
HStem: 0 194<457.182 690.467> 1107 20G<283.6 322 663 703.5>
VStem: 130 192<352.075 1033> 816 202<353.162 781.983>
LayerCount: 2
Fore
SplineSet
816 573 m 0,0,1
 816 730 816 730 745 825 c 0,2,3
 682 910 682 910 620 939 c 1,4,-1
 556 965 l 1,5,6
 652 1101 652 1101 674 1127 c 1,7,8
 733 1098 733 1098 797 1052 c 0,9,10
 896 981 896 981 958 846 c 0,11,12
 1018 715 1018 715 1018 564 c 128,-1,13
 1018 413 1018 413 958 281 c 128,-1,14
 898 149 898 149 797 75 c 0,15,16
 695 0 695 0 574 0 c 128,-1,17
 453 0 453 0 351 75 c 0,18,19
 251 148 251 148 190 281 c 0,20,21
 130 412 130 412 130 564 c 2,22,-1
 130 1033 l 1,23,-1
 322 1133 l 1,24,-1
 322 565 l 2,25,26
 322 402 322 402 402 295 c 0,27,28
 478 194 478 194 574 194 c 0,29,30
 675 194 675 194 745 303 c 0,31,32
 816 414 816 414 816 573 c 0,0,1
EndSplineSet
Validated: 16385
EndChar

StartChar: w
Encoding: 119 119 90
Width: 1784
GlyphClass: 2
Flags: W
HStem: 0 194<435.976 655.38 1123.75 1356.25> 1115 20G<416 455 947.149 988 1329 1367>
VStem: 100 202<360.466 788.279> 796 192<360.021 1041> 1482 202<353.118 781.759>
CounterMasks: 1 38
LayerCount: 2
Fore
SplineSet
544 194 m 0,0,1
 635 194 635 194 716 303 c 0,2,3
 796 411 796 411 796 564 c 0,4,5
 796 567 796 567 796 573 c 2,6,-1
 796 1041 l 1,7,-1
 988 1135 l 1,8,-1
 988 572 l 2,9,10
 988 571 988 571 988 568.5 c 128,-1,11
 988 566 988 566 988 565 c 0,12,13
 988 403 988 403 1068 295 c 0,14,15
 1144 194 1144 194 1238 194 c 0,16,17
 1239 194 1239 194 1240 194 c 0,18,19
 1341 194 1341 194 1411 303 c 0,20,21
 1482 415 1482 415 1482 564 c 0,22,23
 1482 731 1482 731 1411 825 c 0,24,25
 1346 911 1346 911 1286 939 c 1,26,-1
 1222 965 l 1,27,28
 1318 1101 1318 1101 1340 1127 c 1,29,30
 1394 1101 1394 1101 1463 1052 c 0,31,32
 1562 981 1562 981 1624 846 c 0,33,34
 1684 714 1684 714 1684 564 c 0,35,36
 1684 413 1684 413 1624 281 c 128,-1,37
 1564 149 1564 149 1463 75 c 0,38,39
 1361 0 1361 0 1240 0 c 128,-1,40
 1119 0 1119 0 1017 75 c 0,41,42
 942 130 942 130 890 217 c 1,43,44
 834 129 834 129 767 83 c 0,45,46
 647 0 647 0 542 0 c 0,47,48
 434 0 434 0 321 83 c 0,49,50
 220 157 220 157 160 289 c 128,-1,51
 100 421 100 421 100 572 c 0,52,53
 100 722 100 722 160 854 c 0,54,55
 221 989 221 989 321 1060 c 0,56,57
 388 1108 388 1108 444 1135 c 1,58,59
 466 1109 466 1109 562 973 c 1,60,-1
 498 947 l 1,61,62
 436 918 436 918 373 833 c 0,63,64
 302 738 302 738 302 577 c 0,65,66
 302 574 302 574 302 572 c 0,67,68
 302 419 302 419 373 311 c 0,69,70
 450 194 450 194 544 194 c 0,0,1
EndSplineSet
Validated: 16385
EndChar

StartChar: x
Encoding: 120 120 91
Width: 1072
GlyphClass: 2
Flags: W
HStem: 0 21G<195.263 254.697 811.25 853.304> 1100 20G<263.462 305.75 807.568 864.381>
VStem: 116 189<877.68 1035.9> 812 190<85.0584 240.781>
DStem2: 70 76 240 0 0.584468 0.811416<37.692 559.504 789.499 1286.64>
LayerCount: 2
Fore
SplineSet
822 1120 m 1,0,-1
 1000 1036 l 1,1,-1
 685 606 l 1,2,3
 776 556 776 556 837 485 c 0,4,5
 936 371 936 371 976 229 c 0,6,7
 998 149 998 149 1002 92 c 1,8,-1
 812 0 l 1,9,-1
 809 80 l 1,10,11
 799 185 799 185 758 260 c 0,12,13
 695 376 695 376 567 445 c 1,14,-1
 240 0 l 1,15,-1
 70 76 l 1,16,-1
 397 530 l 1,17,18
 318 575 318 575 282 617 c 0,19,20
 178 738 178 738 143 874 c 0,21,22
 123 952 123 952 116 1029 c 1,23,-1
 305 1120 l 1,24,-1
 308 1040 l 1,25,26
 323 917 323 917 374 828 c 0,27,28
 424 741 424 741 511 689 c 1,29,-1
 822 1120 l 1,0,-1
EndSplineSet
Validated: 16385
EndChar

StartChar: y
Encoding: 121 121 92
Width: 1138
GlyphClass: 2
Flags: W
HStem: -382 21G<795 838.636> 0 194<427.783 660.81> 1107 20G<414.5 455 947.149 987.986>
VStem: 100 202<353.429 780.279> 796 192<-294 97 355.53 1033>
LayerCount: 2
Fore
SplineSet
987 -294 m 1,0,-1
 795 -382 l 1,1,-1
 795 97 l 1,2,3
 783 86 783 86 767 75 c 0,4,5
 658 0 658 0 544 0 c 0,6,7
 424 0 424 0 321 75 c 0,8,9
 222 148 222 148 160 281 c 0,10,11
 100 411 100 411 100 564 c 0,12,13
 100 714 100 714 160 846 c 0,14,15
 221 980 221 980 321 1052 c 0,16,17
 385 1098 385 1098 444 1127 c 1,18,19
 466 1101 466 1101 562 965 c 1,20,-1
 498 939 l 1,21,22
 436 910 436 910 373 825 c 0,23,24
 302 730 302 730 302 569 c 0,25,26
 302 566 302 566 302 564 c 0,27,28
 302 414 302 414 373 303 c 0,29,30
 443 194 443 194 544 194 c 0,31,32
 640 194 640 194 716 295 c 0,33,34
 791 396 791 396 796 544 c 1,35,-1
 796 1033 l 1,36,-1
 988 1127 l 1,37,-1
 987 -294 l 1,0,-1
EndSplineSet
Validated: 16385
EndChar

StartChar: z
Encoding: 122 122 93
Width: 963
GlyphClass: 2
Flags: W
HStem: 22 184<346 745.406> 924 180<185 546.612>
DStem2: 93 181 346 206 0.671586 0.740927<188.434 778.754>
LayerCount: 2
Fore
SplineSet
815 711 m 1,0,-1
 346 206 l 1,1,-1
 689 206 l 2,2,3
 718 206 718 206 732 226 c 0,4,5
 743 243 743 243 754 271 c 1,6,-1
 913 202 l 1,7,8
 868 30 868 30 654 22 c 1,9,-1
 254 22 l 2,10,11
 70 22 70 22 70 118 c 0,12,13
 70 152 70 152 93 181 c 1,14,15
 93 181 93 181 616 758 c 1,16,-1
 618 773 l 1,17,18
 612 846 612 846 548 890 c 0,19,20
 504 920 504 920 407 924 c 1,21,-1
 110 924 l 1,22,-1
 185 1104 l 1,23,-1
 417 1103 l 2,24,25
 586 1103 586 1103 700 997 c 0,26,27
 815 890 815 890 816 741 c 1,28,-1
 815 711 l 1,0,-1
EndSplineSet
Validated: 1
EndChar

StartChar: braceleft
Encoding: 123 123 94
Width: 788
GlyphClass: 2
Flags: W
HStem: -336 182<528.962 694> 612 198<99 246> 1587 183<525.437 691>
VStem: 246 195<-69.6123 612 808 1503.48>
LayerCount: 2
Fore
SplineSet
694 -336 m 1,0,-1
 659 -336 l 2,1,2
 489 -336 489 -336 368 -213 c 128,-1,3
 247 -90 247 -90 247 78 c 2,4,-1
 247 199 l 1,5,-1
 246 612 l 1,6,-1
 10 612 l 1,7,-1
 99 810 l 1,8,-1
 246 808 l 1,9,-1
 246 1332 l 1,10,-1
 247 1357 l 2,11,12
 254 1532 254 1532 368 1648 c 0,13,14
 489 1771 489 1771 649 1771 c 0,15,16
 654 1771 654 1771 659 1771 c 2,17,-1
 696 1770 l 1,18,-1
 776 1770 l 1,19,-1
 691 1587 l 1,20,-1
 675 1587 l 1,21,-1
 659 1589 l 1,22,23
 575 1589 575 1589 511 1533 c 0,24,25
 441 1472 441 1472 441 1372 c 2,26,-1
 441 1349 l 1,27,-1
 441 86 l 1,28,-1
 441 63 l 2,29,30
 441 -37 441 -37 511 -98 c 0,31,32
 575 -154 575 -154 659 -154 c 2,33,-1
 688 -154 l 1,34,-1
 778 -152 l 1,35,-1
 694 -336 l 1,0,-1
EndSplineSet
Validated: 1
EndChar

StartChar: bar
Encoding: 124 124 95
Width: 538
GlyphClass: 2
Flags: W
VStem: 170 197<-140 1560>
LayerCount: 2
Fore
SplineSet
367 -140 m 1,0,-1
 170 -232 l 1,1,-1
 170 1560 l 1,2,-1
 368 1649 l 1,3,-1
 367 -140 l 1,0,-1
EndSplineSet
Validated: 1
EndChar

StartChar: braceright
Encoding: 125 125 96
Width: 788
GlyphClass: 2
Flags: W
HStem: -335 183<97 262.563> 627 196<542 689> 1589 182<94 259.038>
VStem: 347 195<-68.4797 627 823 1504.61>
LayerCount: 2
Fore
SplineSet
94 1771 m 1,0,-1
 129 1771 l 2,1,2
 299 1771 299 1771 420 1648 c 128,-1,3
 541 1525 541 1525 541 1357 c 2,4,-1
 541 1236 l 1,5,-1
 542 823 l 1,6,-1
 778 823 l 1,7,-1
 689 625 l 1,8,-1
 542 627 l 1,9,-1
 542 103 l 1,10,-1
 541 78 l 2,11,12
 534 -97 534 -97 420 -213 c 0,13,14
 299 -336 299 -336 139 -336 c 0,15,16
 134 -336 134 -336 129 -336 c 2,17,-1
 92 -335 l 1,18,-1
 12 -335 l 1,19,-1
 97 -152 l 1,20,-1
 113 -152 l 1,21,-1
 129 -154 l 1,22,23
 213 -154 213 -154 277 -98 c 0,24,25
 347 -37 347 -37 347 63 c 2,26,-1
 347 86 l 1,27,-1
 347 1349 l 1,28,-1
 347 1372 l 2,29,30
 347 1472 347 1472 277 1533 c 0,31,32
 213 1589 213 1589 129 1589 c 2,33,-1
 100 1589 l 1,34,-1
 10 1587 l 1,35,-1
 94 1771 l 1,0,-1
EndSplineSet
Validated: 1
EndChar

StartChar: asciitilde
Encoding: 126 126 97
Width: 1116
GlyphClass: 2
Flags: W
HStem: 527 184<659.36 828.277> 676 183<307.308 474>
DStem2: 416 846 379 670 0.930468 -0.366372<4.91525 387.713>
LayerCount: 2
Fore
SplineSet
379 670 m 2,0,1
 365 676 365 676 354 676 c 0,2,3
 305 674 305 674 285 580 c 1,4,-1
 80 506 l 1,5,-1
 83 541 l 1,6,-1
 86 571 l 1,7,8
 112 846 112 846 342 859 c 0,9,10
 360 860 360 860 373 858 c 0,11,12
 388 856 388 856 416 846 c 0,13,14
 609 777 609 777 746 719 c 0,15,16
 765 711 765 711 780 711 c 0,17,18
 828 712 828 712 833 787 c 0,19,20
 834 802 834 802 834 808 c 1,21,-1
 1036 880 l 1,22,-1
 1035 845 l 1,23,-1
 1031 795 l 2,24,25
 1010 527 1010 527 796 527 c 0,26,27
 779 527 779 527 760 529 c 0,28,29
 727 532 727 532 699 544 c 2,30,-1
 379 670 l 2,0,1
EndSplineSet
Validated: 16385
EndChar

StartChar: exclamdown
Encoding: 161 161 99
Width: 600
GlyphClass: 2
Flags: W
HStem: 0 21G<202 246.944> 1248 264<209.191 390.809>
VStem: 170 260<1287.71 1472.29> 202 200<89 1108>
LayerCount: 2
Fore
SplineSet
430 1380 m 128,-1,1
 430 1325 430 1325 392 1286.5 c 128,-1,2
 354 1248 354 1248 300 1248 c 128,-1,3
 246 1248 246 1248 208 1286.5 c 128,-1,4
 170 1325 170 1325 170 1380 c 128,-1,5
 170 1435 170 1435 208 1473.5 c 128,-1,6
 246 1512 246 1512 300 1512 c 128,-1,7
 354 1512 354 1512 392 1473.5 c 128,-1,0
 430 1435 430 1435 430 1380 c 128,-1,1
402 89 m 1,8,-1
 202 0 l 1,9,-1
 202 1108 l 1,10,-1
 400 1200 l 1,11,-1
 402 89 l 1,8,-1
EndSplineSet
Validated: 16385
EndChar

StartChar: cent
Encoding: 162 162 100
Width: 1068
GlyphClass: 2
Flags: W
VStem: 100 202<350.745 774.398> 429 197<-116 20.4966 236 889 1104.17 1259>
LayerCount: 2
Fore
SplineSet
968 429 m 1,0,1
 951 334 951 334 928 280 c 0,2,3
 876 156 876 156 767 74 c 0,4,5
 701 24 701 24 626 8 c 1,6,-1
 626 -116 l 1,7,-1
 429 -208 l 1,8,-1
 429 17 l 1,9,10
 372 36 372 36 321 74 c 0,11,12
 221 149 221 149 160 280 c 0,13,14
 100 410 100 410 100 563 c 0,15,16
 100 715 100 715 160 846 c 128,-1,17
 220 977 220 977 321 1052 c 0,18,19
 371 1089 371 1089 428 1108 c 1,20,-1
 428 1259 l 1,21,-1
 626 1348 l 1,22,-1
 626 1117 l 1,23,24
 700 1100 700 1100 767 1052 c 0,25,26
 871 978 871 978 917 872 c 2,27,-1
 931 840 l 1,28,-1
 746 758 l 1,29,30
 729 817 729 817 704 850 c 0,31,32
 671 895 671 895 626 916 c 1,33,-1
 626 212 l 1,34,35
 677 238 677 238 715 301 c 1,36,-1
 726 320 l 1,37,-1
 968 429 l 1,0,1
429 236 m 1,38,-1
 428 889 l 1,39,40
 399 864 399 864 373 824 c 0,41,42
 302 715 302 715 302 566 c 2,43,-1
 302 562 l 2,44,45
 302 410 302 410 373 301 c 0,46,47
 399 261 399 261 429 236 c 1,38,-1
EndSplineSet
Validated: 1
EndChar

StartChar: sterling
Encoding: 163 163 101
Width: 1179
GlyphClass: 2
Flags: W
HStem: 22 196<161 220 419 1043> 600 198<170 222 419 911> 1329 182<501.469 770.077>
VStem: 220 199<218 600 798 1245.11> 852 194<1087 1242.91>
LayerCount: 2
Fore
SplineSet
419 600 m 1,0,-1
 419 218 l 1,1,-1
 1152 224 l 1,2,-1
 1043 28 l 1,3,-1
 53 22 l 1,4,-1
 161 218 l 1,5,-1
 220 218 l 1,6,-1
 222 600 l 1,7,-1
 80 600 l 1,8,-1
 170 798 l 1,9,-1
 223 798 l 1,10,-1
 224 1097 l 2,11,12
 225 1266 225 1266 345 1388 c 0,13,14
 466 1511 466 1511 636 1511 c 0,15,16
 794 1511 794 1511 926 1392 c 0,17,18
 1046 1283 1046 1283 1046 1105 c 2,19,-1
 1046 1087 l 1,20,-1
 854 1015 l 1,21,-1
 852 1110 l 2,22,23
 850 1203 850 1203 792 1265 c 1,24,25
 734 1329 734 1329 636 1329 c 0,26,27
 549 1329 549 1329 488 1273 c 0,28,29
 418 1208 418 1208 418 1112 c 2,30,-1
 418 798 l 1,31,-1
 1003 798 l 1,32,-1
 911 600 l 1,33,-1
 419 600 l 1,0,-1
EndSplineSet
Validated: 16385
EndChar

StartChar: currency
Encoding: 164 164 102
Width: 1542
GlyphClass: 2
Flags: W
HStem: 267 207<614.555 910.607> 1044 207<614.677 911.907>
VStem: 280 204<606.116 912.648> 1042 203<604.671 911.734>
DStem2: 354 1256 150 1179 0.744078 -0.668093<0 159.658 1104.95 1292.59> 150 336 354 259 0.741942 0.670464<99.7304 262.081 1214.01 1396.95>
LayerCount: 2
Fore
SplineSet
484 759 m 128,-1,1
 484 642 484 642 566 558 c 128,-1,2
 648 474 648 474 762 474 c 0,3,4
 878 474 878 474 960 558 c 128,-1,5
 1042 642 1042 642 1042 755 c 2,6,-1
 1042 758 l 1,7,8
 1041 878 1041 878 960 960 c 0,9,10
 877 1044 877 1044 763 1044 c 0,11,12
 648 1044 648 1044 566 960 c 128,-1,0
 484 876 484 876 484 759 c 128,-1,1
280 759 m 0,13,14
 280 942 280 942 344 1006 c 2,15,-1
 345 1007 l 1,16,-1
 150 1179 l 1,17,-1
 354 1256 l 1,18,-1
 473 1153 l 1,19,20
 495 1170 495 1170 520 1185 c 0,21,22
 633 1251 633 1251 763 1251 c 0,23,24
 890 1251 890 1251 1004 1185 c 0,25,26
 1030 1170 1030 1170 1053 1153 c 1,27,-1
 1187 1272 l 1,28,-1
 1392 1197 l 1,29,-1
 1179 1008 l 1,30,-1
 1180 1006 l 2,31,32
 1244 879 1244 879 1245 759 c 1,33,34
 1245 759 1245 759 1245 755 c 0,35,36
 1245 626 1245 626 1181 513 c 1,37,-1
 1392 324 l 1,38,-1
 1187 249 l 1,39,-1
 1054 366 l 1,40,41
 1030 348 1030 348 1004 333 c 0,42,43
 892 267 892 267 762 267 c 0,44,45
 633 267 633 267 520 333 c 0,46,47
 496 347 496 347 474 364 c 1,48,-1
 354 259 l 1,49,-1
 150 336 l 1,50,-1
 346 510 l 1,51,-1
 344 512 l 1,52,53
 280 625 280 625 280 759 c 0,13,14
EndSplineSet
Validated: 16385
EndChar

StartChar: yen
Encoding: 165 165 103
Width: 1118
GlyphClass: 2
Flags: W
HStem: 0 21G<452 501> 374 196<159 376 698 872> 701 196<199 251 527 563 842 912> 1492 20G<182.255 225.655 905.289 944.196>
VStem: 452 196<80 376>
DStem2: 218 1512 50 1418 0.357362 -0.933966<27.7559 586.182 866.003 912.239> 544 660 698 573 0.398332 0.917241<0 47.0097 338.841 896.657>
LayerCount: 2
Fore
SplineSet
648 80 m 1,0,-1
 452 0 l 1,1,-1
 452 375 l 1,2,-1
 452 376 l 1,3,-1
 51 374 l 1,4,-1
 159 570 l 1,5,-1
 376 571 l 1,6,-1
 326 702 l 1,7,-1
 91 701 l 1,8,-1
 199 897 l 1,9,-1
 251 897 l 1,10,-1
 50 1418 l 1,11,-1
 218 1512 l 1,12,-1
 453 898 l 1,13,-1
 647 899 l 1,14,-1
 914 1512 l 1,15,-1
 1068 1410 l 1,16,-1
 842 900 l 1,17,-1
 1021 901 l 1,18,-1
 912 705 l 1,19,-1
 756 704 l 1,20,-1
 698 573 l 1,21,-1
 981 574 l 1,22,-1
 872 378 l 1,23,-1
 648 377 l 1,24,-1
 648 80 l 1,0,-1
563 703 m 1,25,-1
 527 703 l 1,26,-1
 544 660 l 1,27,-1
 563 703 l 1,25,-1
EndSplineSet
Validated: 16385
EndChar

StartChar: brokenbar
Encoding: 166 166 104
Width: 536
GlyphClass: 2
Flags: W
VStem: 170 196<-171 555 879 1580>
LayerCount: 2
Fore
SplineSet
171 786 m 1,0,-1
 172 1580 l 1,1,-1
 366 1668 l 1,2,-1
 366 879 l 1,3,-1
 171 786 l 1,0,-1
366 648 m 1,4,-1
 366 -171 l 1,5,-1
 170 -262 l 1,6,-1
 170 555 l 1,7,-1
 366 648 l 1,4,-1
EndSplineSet
Validated: 1
EndChar

StartChar: section
Encoding: 167 167 105
Width: 1077
GlyphClass: 2
Flags: W
HStem: -44 174<414.953 643.896> 1338 174<431.104 660.047>
VStem: 150 198<675.345 837.321> 198 191<1103.38 1292.41> 686 191<175.593 367.216> 748 179<632.234 793.342>
LayerCount: 2
Fore
SplineSet
349 776 m 0,0,1
 348 770 348 770 348 763 c 0,2,3
 349 717 349 717 393 675 c 0,4,5
 443 627 443 627 525 610 c 0,6,7
 559 603 559 603 590 603 c 0,8,9
 635 603 635 603 672 617 c 0,10,11
 735 640 735 640 746 692 c 0,12,13
 748 701 748 701 748 709 c 0,14,15
 746 754 746 754 705 792 c 0,16,17
 651 842 651 842 572 858 c 0,18,19
 532 866 532 866 498 866 c 0,20,21
 456 866 456 866 422 853 c 0,22,23
 358 828 358 828 349 776 c 0,0,1
204 134 m 1,24,-1
 385 212 l 1,25,26
 403 182 403 182 421 168 c 0,27,28
 471 130 471 130 532 130 c 2,29,-1
 535 130 l 2,30,31
 610 130 610 130 645 174 c 16,32,33
 686 225 686 225 686 273 c 0,34,35
 686 276 686 276 686 280 c 0,36,37
 686 352 686 352 624 377 c 1,38,-1
 616 381 l 1,39,40
 325 496 325 496 253 543 c 24,41,42
 152 608 152 608 150 742 c 1,43,44
 150 860 150 860 233 934 c 0,45,46
 256 955 256 955 280 973 c 1,47,48
 222 1022 222 1022 202 1106 c 1,49,50
 198 1136 198 1136 198 1165 c 0,51,52
 198 1295 198 1295 280 1392 c 0,53,54
 381 1512 381 1512 543 1512 c 0,55,56
 702 1512 702 1512 814 1406 c 0,57,58
 852 1370 852 1370 871 1334 c 1,59,-1
 690 1256 l 1,60,61
 672 1286 672 1286 654 1300 c 0,62,63
 604 1338 604 1338 543 1338 c 2,64,-1
 540 1338 l 2,65,66
 465 1338 465 1338 430 1294 c 16,67,68
 389 1243 389 1243 389 1195 c 0,69,70
 389 1192 389 1192 389 1188 c 0,71,72
 389 1126 389 1126 443 1096 c 1,73,-1
 455 1091 l 1,74,75
 693 1002 693 1002 785 950 c 0,76,77
 927 870 927 870 927 717 c 16,78,79
 927 610 927 610 842 534 c 0,80,81
 814 509 814 509 795 495 c 1,82,83
 853 446 853 446 873 362 c 1,84,85
 877 332 877 332 877 303 c 0,86,87
 877 173 877 173 795 76 c 0,88,89
 694 -44 694 -44 532 -44 c 0,90,91
 373 -44 373 -44 261 62 c 0,92,93
 223 98 223 98 204 134 c 1,24,-1
EndSplineSet
Validated: 1
EndChar

StartChar: dieresis
Encoding: 168 168 106
Width: 996
GlyphClass: 2
Flags: W
HStem: 1218 294<166.411 379.589 616.411 829.589>
VStem: 120 306<1262.35 1467.65> 570 306<1265.35 1470.65>
LayerCount: 2
Fore
SplineSet
570 1368 m 128,-1,1
 570 1429 570 1429 615 1472 c 128,-1,2
 660 1515 660 1515 723 1515 c 128,-1,3
 786 1515 786 1515 831 1472 c 128,-1,4
 876 1429 876 1429 876 1368 c 128,-1,5
 876 1307 876 1307 831 1264 c 128,-1,6
 786 1221 786 1221 723 1221 c 128,-1,7
 660 1221 660 1221 615 1264 c 128,-1,0
 570 1307 570 1307 570 1368 c 128,-1,1
120 1365 m 128,-1,9
 120 1426 120 1426 165 1469 c 128,-1,10
 210 1512 210 1512 273 1512 c 128,-1,11
 336 1512 336 1512 381 1469 c 128,-1,12
 426 1426 426 1426 426 1365 c 128,-1,13
 426 1304 426 1304 381 1261 c 128,-1,14
 336 1218 336 1218 273 1218 c 128,-1,15
 210 1218 210 1218 165 1261 c 128,-1,8
 120 1304 120 1304 120 1365 c 128,-1,9
EndSplineSet
Validated: 16385
EndChar

StartChar: copyright
Encoding: 169 169 107
Width: 1261
GlyphClass: 2
Flags: W
HStem: 180 79<444.499 817.229> 336 141<546.68 741.973> 1026 143<531.203 744.079> 1251 80<441.931 819.969>
VStem: 80 74<566.018 943.982> 288 157<596.075 928.12> 1106 75<560.265 949.908>
LayerCount: 2
Fore
SplineSet
631 1331 m 0,0,1
 741 1331 741 1331 841 1288 c 0,2,3
 937 1247 937 1247 1020 1161 c 0,4,5
 1100 1078 1100 1078 1141 975 c 0,6,7
 1181 874 1181 874 1181 754 c 0,8,9
 1181 638 1181 638 1141 535 c 0,10,11
 1103 437 1103 437 1020 350 c 0,12,13
 941 267 941 267 841 223 c 0,14,15
 743 180 743 180 631 180 c 0,16,17
 520 180 520 180 420 223 c 0,18,19
 324 264 324 264 241 350 c 0,20,21
 160 434 160 434 120 535 c 128,-1,22
 80 636 80 636 80 754 c 0,23,24
 80 873 80 873 120 975 c 128,-1,25
 160 1077 160 1077 241 1161 c 0,26,27
 322 1246 322 1246 420 1288.5 c 128,-1,28
 518 1331 518 1331 631 1331 c 0,0,1
631 1251 m 0,29,30
 533 1251 533 1251 450 1215 c 128,-1,31
 367 1179 367 1179 296 1105 c 0,32,33
 226 1032 226 1032 190 944 c 128,-1,34
 154 856 154 856 154 759 c 2,35,-1
 154 754 l 2,36,37
 154 655 154 655 190 566 c 0,38,39
 224 483 224 483 296 406 c 0,40,41
 366 332 366 332 449 296 c 0,42,43
 534 259 534 259 631 259 c 128,-1,44
 728 259 728 259 813 296 c 0,45,46
 896 332 896 332 967 406 c 0,47,48
 1036 478 1036 478 1071 565 c 128,-1,49
 1106 652 1106 652 1106 754 c 0,50,51
 1106 857 1106 857 1071 945 c 0,52,53
 1037 1031 1037 1031 967 1105 c 0,54,55
 898 1178 898 1178 813 1215 c 0,56,57
 728 1251 728 1251 631 1251 c 0,29,30
659 477 m 0,58,59
 721 477 721 477 768 559 c 2,60,61
 768 559 768 559 776 573 c 1,62,-1
 965 654 l 1,63,64
 952 584 952 584 934 544 c 0,65,66
 893 453 893 453 808 392 c 0,67,68
 730 336 730 336 637 336 c 2,69,-1
 634 336 l 1,70,71
 535 340 535 340 460 392 c 0,72,73
 383 445 383 445 335 544 c 0,74,75
 288 641 288 641 288 753 c 128,-1,76
 288 865 288 865 335 962 c 128,-1,77
 382 1059 382 1059 460 1114 c 0,78,79
 537 1168 537 1168 634 1169 c 1,80,-1
 637 1169 l 2,81,82
 734 1169 734 1169 808 1114 c 0,83,84
 881 1060 881 1060 925 981 c 0,85,86
 926 980 926 980 936 958 c 1,87,-1
 792 897 l 1,88,89
 779 938 779 938 759 965 c 0,90,91
 713 1026 713 1026 634 1026 c 2,92,-1
 633 1026 l 2,93,94
 556 1026 556 1026 501 946 c 0,95,96
 445 864 445 864 445 779 c 0,97,98
 445 767 445 767 446 755 c 0,99,100
 455 643 455 643 505 569 c 0,101,102
 567 477 567 477 659 477 c 0,58,59
EndSplineSet
Validated: 16385
EndChar

StartChar: ordfeminine
Encoding: 170 170 108
Width: 1083
GlyphClass: 2
Flags: W
HStem: 429 198<170 911> 688 141<426.756 646.024> 1370 142<429.688 637.333>
VStem: 190 155<920.152 1273.04> 719 159<749 1269>
LayerCount: 2
Fore
SplineSet
170 627 m 1,0,-1
 1003 627 l 1,1,-1
 911 429 l 1,2,-1
 80 429 l 1,3,-1
 170 627 l 1,0,-1
533 829 m 0,4,5
 581 829 581 829 616 870 c 0,6,7
 622 877 622 877 625 883 c 1,8,-1
 698 747 l 1,9,10
 695 744 695 744 689 741 c 0,11,12
 584 688 584 688 531 688 c 0,13,14
 440 688 440 688 361 743 c 0,15,16
 281 799 281 799 236 893 c 0,17,18
 190 990 190 990 190 1100 c 0,19,20
 190 1213 190 1213 236 1307 c 0,21,22
 283 1404 283 1404 361 1457 c 0,23,24
 441 1512 441 1512 534 1512 c 0,25,26
 620 1512 620 1512 707 1457 c 0,27,28
 779 1412 779 1412 832 1307 c 0,29,30
 878 1216 878 1216 878 1100 c 2,31,-1
 878 1097 l 1,32,-1
 877 749 l 1,33,-1
 725 688 l 1,34,-1
 719 1100 l 1,35,-1
 719 1102 l 1,36,-1
 719 1105 l 1,37,38
 712 1207 712 1207 664 1290 c 0,39,40
 617 1370 617 1370 533 1370 c 0,41,42
 454 1370 454 1370 400 1290 c 0,43,44
 345 1209 345 1209 345 1100 c 0,45,46
 345 987 345 987 396 910 c 0,47,48
 449 829 449 829 533 829 c 0,4,5
EndSplineSet
Validated: 16385
EndChar

StartChar: guillemotleft
Encoding: 171 171 109
Width: 1066
GlyphClass: 2
Flags: W
DStem2: 322 702 100 687 0.577331 -0.81651<0 409.443> 100 687 322 702 0.5547 0.83205<135.624 553.313> 682 711 460 696 0.577331 -0.81651<0 409.443> 460 696 682 711 0.5547 0.83205<135.624 553.313>
LayerCount: 2
Fore
SplineSet
810 1221 m 1,0,-1
 904 1065 l 1,1,-1
 682 711 l 1,2,-1
 916 375 l 1,3,-1
 810 201 l 1,4,-1
 460 696 l 1,5,-1
 810 1221 l 1,0,-1
450 1212 m 1,6,-1
 544 1056 l 1,7,-1
 322 702 l 1,8,-1
 556 366 l 1,9,-1
 450 192 l 1,10,-1
 100 687 l 1,11,-1
 450 1212 l 1,6,-1
EndSplineSet
Validated: 16385
EndChar

StartChar: logicalnot
Encoding: 172 172 110
Width: 1083
GlyphClass: 2
Flags: W
HStem: 600 198<170 712>
VStem: 608 206<362 568>
LayerCount: 2
Fore
SplineSet
170 798 m 1,0,-1
 1003 798 l 1,1,-1
 814 362 l 1,2,-1
 608 362 l 1,3,-1
 712 600 l 1,4,-1
 80 600 l 1,5,-1
 170 798 l 1,0,-1
EndSplineSet
Validated: 1
EndChar

StartChar: uni00AD
Encoding: 173 173 111
Width: 1083
GlyphClass: 2
Flags: W
HStem: 600 198<170 911>
LayerCount: 2
Fore
SplineSet
170 798 m 1,0,-1
 1003 798 l 1,1,-1
 911 600 l 1,2,-1
 80 600 l 1,3,-1
 170 798 l 1,0,-1
EndSplineSet
Validated: 1
EndChar

StartChar: registered
Encoding: 174 174 112
Width: 1261
GlyphClass: 2
Flags: W
HStem: 180 79<444.499 817.229> 642 137<522 686> 1067 140<545.406 769.929> 1251 80<441.931 819.969>
VStem: 80 74<566.018 943.982> 391 131<409 642 779 1044.39> 802 143<828.945 1031.99> 1106 75<560.265 949.908>
DStem2: 814 683 686 642 0.388617 -0.921399<-11.9657 293.469>
LayerCount: 2
Fore
SplineSet
631 1331 m 0,0,1
 741 1331 741 1331 841 1288 c 0,2,3
 937 1247 937 1247 1020 1161 c 0,4,5
 1100 1078 1100 1078 1141 975 c 0,6,7
 1181 874 1181 874 1181 754 c 0,8,9
 1181 638 1181 638 1141 535 c 0,10,11
 1103 437 1103 437 1020 350 c 0,12,13
 941 267 941 267 841 223 c 0,14,15
 743 180 743 180 631 180 c 0,16,17
 520 180 520 180 420 223 c 0,18,19
 324 264 324 264 241 350 c 0,20,21
 160 434 160 434 120 535 c 128,-1,22
 80 636 80 636 80 754 c 0,23,24
 80 873 80 873 120 975 c 128,-1,25
 160 1077 160 1077 241 1161 c 0,26,27
 322 1246 322 1246 420 1288.5 c 128,-1,28
 518 1331 518 1331 631 1331 c 0,0,1
631 1251 m 0,29,30
 533 1251 533 1251 450 1215 c 128,-1,31
 367 1179 367 1179 296 1105 c 0,32,33
 226 1032 226 1032 190 944 c 128,-1,34
 154 856 154 856 154 759 c 2,35,-1
 154 754 l 2,36,37
 154 655 154 655 190 566 c 0,38,39
 224 483 224 483 296 406 c 0,40,41
 366 332 366 332 449 296 c 0,42,43
 534 259 534 259 631 259 c 128,-1,44
 728 259 728 259 813 296 c 0,45,46
 896 332 896 332 967 406 c 0,47,48
 1036 478 1036 478 1071 565 c 128,-1,49
 1106 652 1106 652 1106 754 c 0,50,51
 1106 857 1106 857 1071 945 c 0,52,53
 1037 1031 1037 1031 967 1105 c 0,54,55
 898 1178 898 1178 813 1215 c 0,56,57
 728 1251 728 1251 631 1251 c 0,29,30
771 1033 m 0,58,59
 737 1067 737 1067 670 1067 c 2,60,-1
 647 1067 l 2,61,62
 521 1067 521 1067 521 930 c 0,63,-1
 521 928 l 2,64,-1
 522 779 l 1,65,-1
 670 779 l 2,66,67
 749 779 749 779 782 828 c 0,68,69
 802 858 802 858 802 919 c 0,70,71
 802 924 802 924 802 930 c 0,72,73
 802 1001 802 1001 771 1033 c 0,58,59
454 1131 m 0,74,75
 524 1207 524 1207 634 1207 c 2,76,-1
 635 1207 l 1,77,-1
 674 1207 l 1,78,-1
 677 1207 l 2,79,80
 796 1207 796 1207 864 1136 c 0,81,82
 945 1051 945 1051 945 934 c 2,83,-1
 945 931 l 1,84,85
 944 809 944 809 864 726 c 0,86,87
 840 701 840 701 814 683 c 1,88,-1
 929 413 l 1,89,-1
 810 348 l 1,90,-1
 686 642 l 1,91,92
 680 642 680 642 673 642 c 2,93,-1
 522 642 l 1,94,-1
 522 409 l 1,95,-1
 391 345 l 1,96,-1
 390 942 l 9,97,98
 399 1072 399 1072 454 1131 c 0,74,75
EndSplineSet
Validated: 1
EndChar

StartChar: macron
Encoding: 175 175 113
Width: 1083
GlyphClass: 2
Flags: W
HStem: 1314 198<170 911>
LayerCount: 2
Fore
SplineSet
170 1512 m 1,0,-1
 1003 1512 l 1,1,-1
 911 1314 l 1,2,-1
 80 1314 l 1,3,-1
 170 1512 l 1,0,-1
EndSplineSet
Validated: 1
EndChar

StartChar: degree
Encoding: 176 176 114
Width: 848
GlyphClass: 2
Flags: W
HStem: 823 151<330.779 516.675> 1365 147<329.213 517.561>
VStem: 120 157<1029.42 1312.25> 571 157<1029.37 1309.03>
LayerCount: 2
Fore
SplineSet
571 1167 m 0,0,1
 571 1243 571 1243 528 1307 c 0,2,3
 488 1365 488 1365 424 1365 c 0,4,5
 358 1365 358 1365 318 1307 c 0,6,7
 277 1249 277 1249 277 1169 c 0,8,9
 277 1088 277 1088 320 1031 c 128,-1,10
 363 974 363 974 424 974 c 0,11,12
 484 974 484 974 528 1031 c 0,13,14
 571 1087 571 1087 571 1167 c 0,0,1
728 1159 m 0,15,16
 728 1073 728 1073 687 995 c 0,17,18
 645 915 645 915 577 869 c 128,-1,19
 509 823 509 823 424 823 c 0,20,21
 347 823 347 823 271 869 c 0,22,23
 196 914 196 914 155 992 c 0,24,25
 120 1058 120 1058 120 1160 c 0,26,27
 120 1261 120 1261 161 1340 c 0,28,29
 203 1421 203 1421 271 1466 c 0,30,31
 341 1512 341 1512 424 1512 c 0,32,33
 506 1512 506 1512 577 1466 c 0,34,35
 645 1422 645 1422 687 1340 c 0,36,37
 728 1260 728 1260 728 1159 c 0,15,16
EndSplineSet
Validated: 16385
EndChar

StartChar: plusminus
Encoding: 177 177 115
Width: 1084
GlyphClass: 2
Flags: W
HStem: 168 198<171 912> 741 198<170 442 640 911>
VStem: 442 198<468 741 939 1210>
LayerCount: 2
Fore
SplineSet
640 468 m 1,0,-1
 442 378 l 1,1,-1
 442 741 l 1,2,-1
 80 741 l 1,3,-1
 170 939 l 1,4,-1
 442 939 l 1,5,-1
 442 1210 l 1,6,-1
 640 1302 l 1,7,-1
 640 939 l 1,8,-1
 1003 939 l 1,9,-1
 911 741 l 1,10,-1
 640 741 l 1,11,-1
 640 468 l 1,0,-1
171 366 m 1,12,-1
 1004 366 l 1,13,-1
 912 168 l 1,14,-1
 81 168 l 1,15,-1
 171 366 l 1,12,-1
EndSplineSet
Validated: 16385
EndChar

StartChar: uni00B2
Encoding: 178 178 116
Width: 965
GlyphClass: 2
Flags: W
HStem: 680 133<307 657.65> 1380 132<353.635 586.114>
VStem: 156 156<1212 1337.99> 632 154<1212 1335.06>
LayerCount: 2
Fore
SplineSet
448 1380 m 0,0,1
 400 1380 400 1380 356 1338 c 128,-1,2
 312 1296 312 1296 312 1231 c 2,3,-1
 312 1212 l 1,4,-1
 159 1152 l 1,5,-1
 156 1234 l 1,6,7
 156 1351 156 1351 249 1432 c 0,8,9
 341 1512 341 1512 471 1512 c 0,10,11
 600 1512 600 1512 693 1431 c 128,-1,12
 786 1350 786 1350 786 1234 c 1,13,-1
 785 1211 l 1,14,-1
 785 1210 l 2,15,16
 785 1123 785 1123 693 1052 c 0,17,18
 632 1005 632 1005 519 969 c 1,19,20
 327 898 327 898 307 813 c 1,21,22
 323 813 323 813 347 813 c 2,23,-1
 415 813 l 1,24,25
 484 818 484 818 610 818 c 0,26,27
 647 818 647 818 658 824 c 0,28,29
 672 831 672 831 679 855 c 2,30,-1
 685 874 l 1,31,-1
 815 815 l 1,32,-1
 810 800 l 2,33,34
 773 690 773 690 607 682 c 0,35,36
 575 681 575 681 517 681 c 0,37,38
 458 680 458 680 401 680 c 128,-1,39
 344 680 344 680 297 680 c 0,40,41
 269 680 269 680 238 691 c 0,42,43
 204 703 204 703 186 723 c 0,44,45
 173 738 173 738 160 764 c 0,46,47
 150 784 150 784 150 809 c 2,48,-1
 150 812 l 1,49,-1
 151 815 l 2,50,51
 203 971 203 971 417 1068 c 1,52,-1
 456 1086 l 1,53,-1
 558 1131 l 1,54,55
 615 1162 615 1162 628 1212 c 1,56,-1
 632 1232 l 1,57,58
 631 1292 631 1292 586 1338 c 0,59,60
 545 1380 545 1380 448 1380 c 0,0,1
EndSplineSet
Validated: 16385
EndChar

StartChar: uni00B3
Encoding: 179 179 117
Width: 976
GlyphClass: 2
Flags: W
HStem: 660 140<365.979 616.905> 1368 141<245 566>
VStem: 150 164<852.645 974> 664 162<848.286 953>
LayerCount: 2
Fore
SplineSet
592 1206 m 1,0,1
 619 1199 619 1199 644 1189 c 0,2,3
 690 1170 690 1170 732 1138 c 0,4,5
 811 1078 811 1078 825 965 c 1,6,-1
 826 953 l 1,7,-1
 826 952 l 2,8,9
 826 834 826 834 727 747 c 128,-1,10
 628 660 628 660 488 660 c 128,-1,11
 348 660 348 660 250 743 c 0,12,13
 150 828 150 828 150 947 c 2,14,-1
 150 974 l 1,15,-1
 315 1038 l 1,16,-1
 314 975 l 1,17,18
 314 898 314 898 362 848 c 0,19,20
 408 800 408 800 486 800 c 0,21,22
 487 800 487 800 489 800 c 0,23,24
 571 800 571 800 620 847 c 0,25,26
 663 888 663 888 664 950 c 1,27,-1
 662 961 l 1,28,29
 656 1016 656 1016 597 1055 c 0,30,31
 556 1082 556 1082 501 1083 c 0,32,33
 410 1085 410 1085 383 1144 c 0,34,35
 378 1156 378 1156 378 1169 c 0,36,37
 379 1201 379 1201 412 1235 c 1,38,-1
 566 1368 l 1,39,-1
 163 1368 l 1,40,-1
 245 1509 l 1,41,-1
 616 1508 l 2,42,43
 750 1508 750 1508 783 1432 c 0,44,45
 789 1418 789 1418 789 1403 c 0,46,47
 789 1368 789 1368 751 1336 c 2,48,-1
 592 1206 l 1,0,1
EndSplineSet
Validated: 16385
EndChar

StartChar: acute
Encoding: 180 180 118
Width: 752
GlyphClass: 2
Flags: W
HStem: 1023 522
VStem: 150 452
DStem2: 150 1221 242 1023 0.743294 0.668965<0 420.259>
LayerCount: 2
Fore
SplineSet
510 1545 m 1,0,-1
 602 1347 l 1,1,-1
 242 1023 l 1,2,-1
 150 1221 l 1,3,-1
 510 1545 l 1,0,-1
EndSplineSet
Validated: 16385
EndChar

StartChar: uni00B5
Encoding: 181 181 119
Width: 1118
GlyphClass: 2
Flags: W
HStem: 0 194<428.029 660.818> 1113 20G<414.5 455 947.149 988>
VStem: 100 196<-190 95 364.72 769.875> 796 192<352.075 1039>
LayerCount: 2
Fore
SplineSet
562 965 m 1,0,-1
 498 939 l 1,1,2
 436 910 436 910 373 825 c 0,3,4
 302 730 302 730 302 569 c 2,5,-1
 302 564 l 2,6,7
 302 414 302 414 373 303 c 0,8,9
 443 194 443 194 544 194 c 0,10,11
 640 194 640 194 716 295 c 0,12,13
 796 402 796 402 796 565 c 2,14,-1
 796 1039 l 1,15,-1
 988 1133 l 1,16,-1
 988 564 l 2,17,18
 988 412 988 412 928 281 c 0,19,20
 867 148 867 148 767 75 c 0,21,22
 665 0 665 0 544 0 c 0,23,24
 418 0 418 0 321 75 c 0,25,26
 308 85 308 85 296 95 c 1,27,-1
 296 -190 l 1,28,-1
 100 -278 l 1,29,-1
 100 564 l 2,30,31
 100 715 100 715 160 846 c 0,32,33
 222 981 222 981 321 1052 c 0,34,35
 385 1098 385 1098 444 1127 c 1,36,37
 466 1101 466 1101 562 965 c 1,0,-1
EndSplineSet
Validated: 16385
EndChar

StartChar: paragraph
Encoding: 182 182 120
Width: 1138
GlyphClass: 2
Flags: W
HStem: 0 21G<790 831.622> 382 193<426.791 664.275> 1315 194<426.263 656.807>
VStem: 100 200<734.477 1156.49> 790 77<37 475 747.499 1059> 921 67<96 1083.67>
LayerCount: 2
Fore
SplineSet
790 0 m 1,0,-1
 790 475 l 1,1,2
 779 465 779 465 767 457 c 0,3,4
 658 382 658 382 544 382 c 0,5,6
 423 382 423 382 321 457 c 0,7,8
 220 531 220 531 160 663 c 128,-1,9
 100 795 100 795 100 946 c 0,10,11
 100 1098 100 1098 160 1228 c 128,-1,12
 220 1358 220 1358 321 1434 c 0,13,14
 421 1509 421 1509 544 1509 c 0,15,16
 664 1509 664 1509 767 1434 c 0,17,18
 866 1361 866 1361 928 1228 c 0,19,20
 988 1098 988 1098 988 946 c 2,21,-1
 988 942 l 1,22,-1
 985 96 l 1,23,-1
 913 59 l 1,24,-1
 921 1087 l 1,25,-1
 865 1059 l 1,26,-1
 867 37 l 1,27,-1
 790 0 l 1,0,-1
546 575 m 0,28,29
 649 575 649 575 720 684 c 0,30,31
 783 781 783 781 783 945 c 0,32,33
 783 1097 783 1097 712 1206 c 128,-1,34
 641 1315 641 1315 542 1315 c 0,35,36
 442 1315 442 1315 371 1206 c 128,-1,37
 300 1097 300 1097 300 950 c 0,38,39
 300 948 300 948 300 946 c 0,40,41
 300 795 300 795 371 684 c 0,42,43
 441 575 441 575 546 575 c 0,28,29
EndSplineSet
Validated: 16385
EndChar

StartChar: periodcentered
Encoding: 183 183 121
Width: 560
GlyphClass: 2
Flags: W
HStem: 562 264<189.191 370.809>
VStem: 150 260<601.707 786.293>
LayerCount: 2
Fore
SplineSet
150 694 m 128,-1,1
 150 749 150 749 188 787.5 c 128,-1,2
 226 826 226 826 280 826 c 128,-1,3
 334 826 334 826 372 787.5 c 128,-1,4
 410 749 410 749 410 694 c 128,-1,5
 410 639 410 639 372 600.5 c 128,-1,6
 334 562 334 562 280 562 c 128,-1,7
 226 562 226 562 188 600.5 c 128,-1,0
 150 639 150 639 150 694 c 128,-1,1
EndSplineSet
Validated: 1
EndChar

StartChar: cedilla
Encoding: 184 184 122
Width: 1222
GlyphClass: 2
Flags: W
HStem: -386 452
VStem: 436 350
LayerCount: 2
Fore
SplineSet
579 66 m 1,0,-1
 786 -142 l 1,1,-1
 562 -386 l 1,2,-1
 436 -256 l 1,3,-1
 552 -142 l 1,4,-1
 462 -50 l 1,5,-1
 579 66 l 1,0,-1
EndSplineSet
Validated: 1
EndChar

StartChar: uni00B9
Encoding: 185 185 123
Width: 776
GlyphClass: 2
Flags: W
HStem: 1492 20G<242.701 397.5>
VStem: 339 187<726 1398.63>
DStem2: 20 1345 154 1304 0.834579 0.550888<89.2472 280.015>
LayerCount: 2
Fore
SplineSet
273 1512 m 1,0,-1
 285 1512 l 2,1,2
 510 1512 510 1512 525 1395 c 1,3,-1
 526 726 l 1,4,-1
 339 675 l 1,5,-1
 338 1368 l 2,6,7
 338 1399 338 1399 300 1401 c 1,8,-1
 154 1304 l 1,9,-1
 20 1345 l 1,10,-1
 273 1512 l 1,0,-1
EndSplineSet
Validated: 16385
EndChar

StartChar: ordmasculine
Encoding: 186 186 124
Width: 1083
GlyphClass: 2
Flags: W
HStem: 429 198<170 911> 679 143<443.443 652.555> 1369 143<439.075 652.751>
VStem: 194 161<921.64 1272.48> 741 161<922.255 1267>
LayerCount: 2
Fore
SplineSet
741 1114 m 0,0,1
 741 1204 741 1204 684 1288 c 0,2,3
 629 1369 629 1369 548 1369 c 0,4,5
 462 1368 462 1368 408.5 1287.5 c 128,-1,6
 355 1207 355 1207 355 1095 c 128,-1,7
 355 983 355 983 412 902 c 0,8,9
 468 823 468 823 548 822 c 1,10,-1
 550 822 l 2,11,12
 629 822 629 822 684 902 c 0,13,14
 741 985 741 985 741 1114 c 0,0,1
194 1086 m 0,15,16
 194 1206 194 1206 242 1304 c 0,17,18
 291 1404 291 1404 370 1457 c 0,19,20
 452 1512 452 1512 548 1512 c 0,21,22
 646 1512 646 1512 726 1457 c 0,23,24
 805 1402 805 1402 854 1304 c 0,25,26
 902 1207 902 1207 902 1095 c 0,27,28
 902 985 902 985 854 887 c 0,29,30
 808 792 808 792 726 735 c 0,31,32
 646 679 646 679 548 679 c 0,33,34
 459 679 459 679 370 735 c 0,35,36
 279 792 279 792 236 881 c 0,37,38
 194 968 194 968 194 1086 c 0,15,16
170 627 m 1,39,-1
 1003 627 l 1,40,-1
 911 429 l 1,41,-1
 80 429 l 1,42,-1
 170 627 l 1,39,-1
EndSplineSet
Validated: 16385
EndChar

StartChar: guillemotright
Encoding: 187 187 125
Width: 1066
GlyphClass: 2
Flags: W
DStem2: 256 1212 150 1038 0.577331 -0.81651<80.8758 490.319> 162 348 256 192 0.5547 0.83205<0 417.689> 616 1221 510 1047 0.577331 -0.81651<80.8758 490.319> 522 357 616 201 0.5547 0.83205<0 417.689>
LayerCount: 2
Fore
SplineSet
256 192 m 1,0,-1
 162 348 l 1,1,-1
 384 702 l 1,2,-1
 150 1038 l 1,3,-1
 256 1212 l 1,4,-1
 606 717 l 1,5,-1
 256 192 l 1,0,-1
616 201 m 1,6,-1
 522 357 l 1,7,-1
 744 711 l 1,8,-1
 510 1047 l 1,9,-1
 616 1221 l 1,10,-1
 966 726 l 1,11,-1
 616 201 l 1,6,-1
EndSplineSet
Validated: 16385
EndChar

StartChar: onequarter
Encoding: 188 188 126
Width: 1663
GlyphClass: 2
Flags: W
HStem: 1 21G<1281.91 1340.71> 219 137<1042 1280 1463 1521> 1492 20G<242.701 397.5>
VStem: 339 187<726 1398.63> 1281 182<63 219 356 635>
DStem2: 20 1345 154 1304 0.834579 0.550888<89.2472 280.015> 253 -132 432 -216 0.435903 0.899994<2.42717 1984.44> 863 385 1042 356 0.674867 0.737939<99.401 466.579>
LayerCount: 2
Fore
SplineSet
1281 219 m 1,0,-1
 1020 219 l 2,1,2
 830 219 830 219 830 305 c 0,3,4
 830 339 830 339 863 384 c 1,5,-1
 863 385 l 1,6,-1
 1291 853 l 1,7,-1
 1308 853 l 2,8,9
 1377 853 1377 853 1417 820 c 128,-1,10
 1457 787 1457 787 1463 724 c 1,11,-1
 1463 723 l 1,12,-1
 1463 353 l 1,13,-1
 1613 355 l 1,14,-1
 1521 221 l 1,15,-1
 1463 221 l 1,16,-1
 1464 63 l 1,17,-1
 1282 1 l 1,18,-1
 1281 219 l 1,0,-1
1280 356 m 1,19,-1
 1281 635 l 1,20,-1
 1042 356 l 1,21,-1
 1280 356 l 1,19,-1
273 1512 m 1,22,-1
 285 1512 l 2,23,24
 510 1512 510 1512 525 1395 c 1,25,-1
 526 726 l 1,26,-1
 339 675 l 1,27,-1
 338 1368 l 2,28,29
 338 1399 338 1399 300 1401 c 1,30,-1
 154 1304 l 1,31,-1
 20 1345 l 1,32,-1
 273 1512 l 1,22,-1
253 -132 m 1,33,-1
 1118 1654 l 1,34,-1
 1298 1572 l 1,35,-1
 432 -216 l 1,36,-1
 253 -132 l 1,33,-1
EndSplineSet
Validated: 16385
EndChar

StartChar: onehalf
Encoding: 189 189 127
Width: 1783
GlyphClass: 2
Flags: W
HStem: 0 133<1145 1495.65> 700 132<1191.64 1424.11> 1492 20G<242.701 397.5>
VStem: 339 187<726 1398.63> 994 156<532 657.992> 1470 154<532 655.06>
DStem2: 20 1345 154 1304 0.834579 0.550888<89.2472 280.015> 244 -135 423 -219 0.435903 0.899994<2.42717 1984.44>
LayerCount: 2
Fore
SplineSet
1286 700 m 0,0,1
 1238 700 1238 700 1194 658 c 128,-1,2
 1150 616 1150 616 1150 551 c 2,3,-1
 1150 532 l 1,4,-1
 997 472 l 1,5,-1
 994 554 l 1,6,7
 994 671 994 671 1087 752 c 0,8,9
 1179 832 1179 832 1309 832 c 0,10,11
 1438 832 1438 832 1531 751 c 128,-1,12
 1624 670 1624 670 1624 554 c 1,13,-1
 1623 531 l 1,14,-1
 1623 530 l 2,15,16
 1623 443 1623 443 1531 372 c 0,17,18
 1470 325 1470 325 1357 289 c 1,19,20
 1165 218 1165 218 1145 133 c 1,21,22
 1161 133 1161 133 1185 133 c 2,23,-1
 1253 133 l 1,24,25
 1322 138 1322 138 1448 138 c 0,26,27
 1485 138 1485 138 1496 144 c 0,28,29
 1510 151 1510 151 1517 175 c 2,30,-1
 1523 194 l 1,31,-1
 1653 135 l 1,32,-1
 1648 120 l 2,33,34
 1611 10 1611 10 1445 2 c 0,35,36
 1413 1 1413 1 1355 1 c 0,37,38
 1296 0 1296 0 1239 0 c 128,-1,39
 1182 0 1182 0 1135 0 c 0,40,41
 1107 0 1107 0 1076 11 c 0,42,43
 1042 23 1042 23 1024 43 c 0,44,45
 1011 58 1011 58 998 84 c 0,46,47
 988 104 988 104 988 129 c 2,48,-1
 988 132 l 1,49,-1
 989 135 l 2,50,51
 1041 291 1041 291 1255 388 c 1,52,-1
 1294 406 l 1,53,-1
 1396 451 l 1,54,55
 1453 482 1453 482 1466 532 c 1,56,-1
 1470 552 l 1,57,58
 1469 612 1469 612 1424 658 c 0,59,60
 1383 700 1383 700 1286 700 c 0,0,1
273 1512 m 1,61,-1
 285 1512 l 2,62,63
 510 1512 510 1512 525 1395 c 1,64,-1
 526 726 l 1,65,-1
 339 675 l 1,66,-1
 338 1368 l 2,67,68
 338 1399 338 1399 300 1401 c 1,69,-1
 154 1304 l 1,70,-1
 20 1345 l 1,71,-1
 273 1512 l 1,61,-1
244 -135 m 1,72,-1
 1109 1651 l 1,73,-1
 1289 1569 l 1,74,-1
 423 -219 l 1,75,-1
 244 -135 l 1,72,-1
EndSplineSet
Validated: 16385
EndChar

StartChar: threequarters
Encoding: 190 190 128
Width: 1905
GlyphClass: 2
Flags: W
HStem: 0 21G<1523.91 1582.71> 218 137<1284 1522 1705 1763> 660 140<365.979 616.905> 1368 141<245 566>
VStem: 150 164<852.645 974> 664 162<848.286 953> 1523 182<62 218 355 634>
DStem2: 496 -135 675 -219 0.435903 0.899994<2.42717 1984.44> 1105 384 1284 355 0.674867 0.737939<99.401 466.579>
LayerCount: 2
Fore
SplineSet
1523 218 m 1,0,-1
 1262 218 l 2,1,2
 1072 218 1072 218 1072 304 c 0,3,4
 1072 338 1072 338 1105 383 c 1,5,-1
 1105 384 l 1,6,-1
 1533 852 l 1,7,-1
 1550 852 l 2,8,9
 1619 852 1619 852 1659 819 c 128,-1,10
 1699 786 1699 786 1705 723 c 1,11,-1
 1705 722 l 1,12,-1
 1705 352 l 1,13,-1
 1855 354 l 1,14,-1
 1763 220 l 1,15,-1
 1705 220 l 1,16,-1
 1706 62 l 1,17,-1
 1524 0 l 1,18,-1
 1523 218 l 1,0,-1
1522 355 m 1,19,-1
 1523 634 l 1,20,-1
 1284 355 l 1,21,-1
 1522 355 l 1,19,-1
592 1206 m 1,22,23
 619 1199 619 1199 644 1189 c 0,24,25
 690 1170 690 1170 732 1138 c 0,26,27
 811 1078 811 1078 825 965 c 1,28,-1
 826 953 l 1,29,-1
 826 952 l 2,30,31
 826 834 826 834 727 747 c 128,-1,32
 628 660 628 660 488 660 c 128,-1,33
 348 660 348 660 250 743 c 0,34,35
 150 828 150 828 150 947 c 2,36,-1
 150 974 l 1,37,-1
 315 1038 l 1,38,-1
 314 975 l 1,39,40
 314 898 314 898 362 848 c 0,41,42
 408 800 408 800 486 800 c 0,43,44
 487 800 487 800 489 800 c 0,45,46
 571 800 571 800 620 847 c 0,47,48
 663 888 663 888 664 950 c 1,49,-1
 662 961 l 1,50,51
 656 1016 656 1016 597 1055 c 0,52,53
 556 1082 556 1082 501 1083 c 0,54,55
 410 1085 410 1085 383 1144 c 0,56,57
 378 1156 378 1156 378 1169 c 0,58,59
 379 1201 379 1201 412 1235 c 1,60,-1
 566 1368 l 1,61,-1
 163 1368 l 1,62,-1
 245 1509 l 1,63,-1
 616 1508 l 2,64,65
 750 1508 750 1508 783 1432 c 0,66,67
 789 1418 789 1418 789 1403 c 0,68,69
 789 1368 789 1368 751 1336 c 2,70,-1
 592 1206 l 1,22,23
496 -135 m 1,71,-1
 1361 1651 l 1,72,-1
 1541 1569 l 1,73,-1
 675 -219 l 1,74,-1
 496 -135 l 1,71,-1
EndSplineSet
Validated: 16385
EndChar

StartChar: questiondown
Encoding: 191 191 129
Width: 1287
GlyphClass: 2
Flags: W
HStem: 0 185<476.223 805.924> 1250 264<588.191 769.809>
VStem: 150 197<325.889 544> 549 260<1289.71 1474.29> 935 202<321.23 512>
LayerCount: 2
Fore
SplineSet
809 1382 m 128,-1,1
 809 1327 809 1327 771 1288.5 c 128,-1,2
 733 1250 733 1250 679 1250 c 128,-1,3
 625 1250 625 1250 587 1288.5 c 128,-1,4
 549 1327 549 1327 549 1382 c 128,-1,5
 549 1437 549 1437 587 1475.5 c 128,-1,6
 625 1514 625 1514 679 1514 c 128,-1,7
 733 1514 733 1514 771 1475.5 c 128,-1,0
 809 1437 809 1437 809 1382 c 128,-1,1
1137 493 m 1,8,9
 1137 291 1137 291 992 144 c 1,10,11
 847 0 847 0 643 0 c 128,-1,12
 439 0 439 0 294.5 144.5 c 128,-1,13
 150 289 150 289 150 493 c 1,14,-1
 151 534 l 1,15,16
 179 684 179 684 293 798 c 0,17,18
 305 810 305 810 507 994 c 0,19,20
 581 1061 581 1061 585 1114 c 2,21,-1
 586 1127 l 1,22,-1
 779 1220 l 1,23,-1
 779 1095 l 1,24,25
 751 958 751 958 615 844 c 1,26,-1
 585 822 l 1,27,28
 383 654 383 654 355 544 c 1,29,-1
 347 500 l 1,30,31
 347 365 347 365 429 270 c 0,32,33
 503 185 503 185 652 185 c 1,34,35
 787 186 787 186 864 281 c 0,36,37
 935 368 935 368 935 500 c 2,38,-1
 935 512 l 1,39,-1
 1135 590 l 1,40,-1
 1137 493 l 1,8,9
EndSplineSet
Validated: 16385
EndChar

StartChar: Agrave
Encoding: 192 192 130
Width: 1405
GlyphClass: 2
Flags: W
HStem: 0 21G<180 224.444 825.281 866.5> 684 192<380 1039> 1303 211<545.889 829.695>
VStem: 180 200<90 684 876 1126.96>
DStem2: 502 1992 372 1866 0.770645 -0.637264<0 384.967>
LayerCount: 2
Fore
SplineSet
502 1992 m 1,0,-1
 814 1734 l 1,1,-1
 684 1608 l 1,2,-1
 372 1866 l 1,3,-1
 502 1992 l 1,0,-1
686 1514 m 0,4,5
 793 1514 793 1514 906 1447 c 0,6,7
 1014 1383 1014 1383 1090 1282 c 0,8,9
 1164 1183 1164 1183 1210 1039 c 0,10,11
 1255 897 1255 897 1255 764 c 0,12,13
 1255 611 1255 611 1211 470 c 0,14,15
 1169 335 1169 335 1091 227 c 0,16,17
 1023 133 1023 133 951.5 74 c 128,-1,18
 880 15 880 15 853 0 c 1,19,-1
 616 171 l 1,20,21
 638 159 638 159 648 159 c 0,22,23
 746 159 746 159 873 286 c 1,24,25
 952 367 952 367 1000 493 c 0,26,27
 1033 580 1033 580 1044 684 c 1,28,-1
 380 684 l 1,29,-1
 380 90 l 1,30,-1
 180 0 l 1,31,-1
 180 1065 l 1,32,33
 212 1198 212 1198 317 1324 c 0,34,35
 379 1397 379 1397 470 1447 c 0,36,37
 592 1514 592 1514 686 1514 c 0,4,5
380 876 m 1,38,-1
 1039 874 l 1,39,40
 1026 952 1026 952 995 1038 c 0,41,42
 960 1136 960 1136 868 1227 c 0,43,44
 791 1303 791 1303 686 1303 c 0,45,46
 588 1303 588 1303 505 1227 c 1,47,-1
 493 1215 l 1,48,49
 426 1146 426 1146 380 1050 c 1,50,-1
 380 876 l 1,38,-1
EndSplineSet
Validated: 1
EndChar

StartChar: Aacute
Encoding: 193 193 131
Width: 1405
GlyphClass: 2
Flags: W
HStem: 0 21G<180 224.444 825.281 866.5> 684 192<380 1039> 1303 211<545.889 829.695>
VStem: 180 200<90 684 876 1126.96>
DStem2: 566 1722 696 1596 0.770645 0.637264<19.8886 404.856>
LayerCount: 2
Fore
SplineSet
878 1980 m 1,0,-1
 1008 1854 l 1,1,-1
 696 1596 l 1,2,-1
 566 1722 l 1,3,-1
 878 1980 l 1,0,-1
686 1514 m 0,4,5
 793 1514 793 1514 906 1447 c 0,6,7
 1014 1383 1014 1383 1090 1282 c 0,8,9
 1164 1183 1164 1183 1210 1039 c 0,10,11
 1255 897 1255 897 1255 764 c 0,12,13
 1255 611 1255 611 1211 470 c 0,14,15
 1169 335 1169 335 1091 227 c 0,16,17
 1023 133 1023 133 951.5 74 c 128,-1,18
 880 15 880 15 853 0 c 1,19,-1
 616 171 l 1,20,21
 638 159 638 159 648 159 c 0,22,23
 746 159 746 159 873 286 c 1,24,25
 952 367 952 367 1000 493 c 0,26,27
 1033 580 1033 580 1044 684 c 1,28,-1
 380 684 l 1,29,-1
 380 90 l 1,30,-1
 180 0 l 1,31,-1
 180 1065 l 1,32,33
 212 1198 212 1198 317 1324 c 0,34,35
 379 1397 379 1397 470 1447 c 0,36,37
 592 1514 592 1514 686 1514 c 0,4,5
380 876 m 1,38,-1
 1039 874 l 1,39,40
 1026 952 1026 952 995 1038 c 0,41,42
 960 1136 960 1136 868 1227 c 0,43,44
 791 1303 791 1303 686 1303 c 0,45,46
 588 1303 588 1303 505 1227 c 1,47,-1
 493 1215 l 1,48,49
 426 1146 426 1146 380 1050 c 1,50,-1
 380 876 l 1,38,-1
EndSplineSet
Validated: 1
EndChar

StartChar: Acircumflex
Encoding: 194 194 132
Width: 1405
GlyphClass: 2
Flags: W
HStem: 0 21G<180 224.444 825.281 866.5> 684 192<380 1039> 1303 211<545.889 829.695> 1752 234<571 805>
VStem: 180 200<90 684 876 1126.96>
LayerCount: 2
Fore
SplineSet
380 876 m 1,0,-1
 1039 874 l 1,1,2
 1026 951 1026 951 995 1038 c 0,3,4
 960 1136 960 1136 868 1227 c 0,5,6
 791 1303 791 1303 686 1303 c 0,7,8
 588 1303 588 1303 505 1227 c 1,9,-1
 493 1215 l 1,10,11
 426 1146 426 1146 380 1050 c 1,12,-1
 380 876 l 1,0,-1
686 1514 m 0,13,14
 793 1514 793 1514 906 1447 c 0,15,16
 1014 1383 1014 1383 1090 1282 c 0,17,18
 1164 1184 1164 1184 1210 1039 c 0,19,20
 1255 897 1255 897 1255 764 c 0,21,22
 1255 611 1255 611 1211 470 c 0,23,24
 1169 335 1169 335 1091 227 c 0,25,26
 1023 133 1023 133 951.5 74 c 128,-1,27
 880 15 880 15 853 0 c 1,28,-1
 616 171 l 1,29,30
 638 159 638 159 648 159 c 0,31,32
 746 159 746 159 873 286 c 1,33,34
 952 367 952 367 1000 493 c 0,35,36
 1033 580 1033 580 1044 684 c 1,37,-1
 380 684 l 1,38,-1
 380 90 l 1,39,-1
 180 0 l 1,40,-1
 180 1065 l 1,41,42
 212 1198 212 1198 317 1324 c 0,43,44
 379 1397 379 1397 470 1447 c 0,45,46
 592 1514 592 1514 686 1514 c 0,13,14
688 1752 m 1,47,-1
 506 1602 l 1,48,-1
 376 1728 l 1,49,-1
 688 1986 l 1,50,-1
 1000 1728 l 1,51,-1
 870 1602 l 1,52,-1
 688 1752 l 1,47,-1
EndSplineSet
Validated: 1
EndChar

StartChar: Atilde
Encoding: 195 195 133
Width: 1405
GlyphClass: 2
Flags: W
HStem: 0 21G<180 224.444 825.281 866.5> 684 192<380 1039> 1303 211<545.889 829.695> 1613 204<798.095 898.253> 1779 185<530.554 657.676>
VStem: 180 200<90 684 876 1126.96>
DStem2: 652 1938 604 1767 0.859047 -0.511898<0.354202 250.577>
LayerCount: 2
Fore
SplineSet
872 1817 m 1,0,1
 896 1818 896 1818 899 1871 c 0,2,3
 900 1889 900 1889 900 1892 c 1,4,-1
 1102 1964 l 1,5,-1
 1101 1929 l 1,6,-1
 1097 1879 l 2,7,8
 1076 1613 1076 1613 911 1613 c 0,9,10
 873 1613 873 1613 815 1646 c 0,11,12
 631 1750 631 1750 604 1767 c 0,13,14
 580 1782 580 1782 557 1779 c 0,15,16
 533 1776 533 1776 520 1685 c 1,17,-1
 315 1611 l 1,18,-1
 318 1646 l 1,19,-1
 321 1676 l 1,20,21
 348 1964 348 1964 563 1964 c 2,22,-1
 564 1964 l 2,23,24
 606 1964 606 1964 652 1938 c 1,25,-1
 798 1851 l 1,26,27
 860 1818 860 1818 872 1817 c 1,0,1
686 1514 m 0,28,29
 793 1514 793 1514 906 1447 c 0,30,31
 1014 1383 1014 1383 1090 1282 c 0,32,33
 1164 1183 1164 1183 1210 1039 c 0,34,35
 1255 897 1255 897 1255 764 c 0,36,37
 1255 611 1255 611 1211 470 c 0,38,39
 1169 335 1169 335 1091 227 c 0,40,41
 1023 133 1023 133 951.5 74 c 128,-1,42
 880 15 880 15 853 0 c 1,43,-1
 616 171 l 1,44,45
 638 159 638 159 648 159 c 0,46,47
 746 159 746 159 873 286 c 1,48,49
 952 367 952 367 1000 493 c 0,50,51
 1033 580 1033 580 1044 684 c 1,52,-1
 380 684 l 1,53,-1
 380 90 l 1,54,-1
 180 0 l 1,55,-1
 180 1065 l 1,56,57
 212 1198 212 1198 317 1324 c 0,58,59
 379 1397 379 1397 470 1447 c 0,60,61
 592 1514 592 1514 686 1514 c 0,28,29
380 876 m 1,62,-1
 1039 874 l 1,63,64
 1026 952 1026 952 995 1038 c 0,65,66
 960 1136 960 1136 868 1227 c 0,67,68
 791 1303 791 1303 686 1303 c 0,69,70
 588 1303 588 1303 505 1227 c 1,71,-1
 493 1215 l 1,72,73
 426 1146 426 1146 380 1050 c 1,74,-1
 380 876 l 1,62,-1
EndSplineSet
Validated: 1
EndChar

StartChar: Adieresis
Encoding: 196 196 134
Width: 1405
GlyphClass: 2
Flags: W
HStem: 0 21G<180 224.444 825.281 866.5> 684 192<380 1039> 1303 211<545.889 829.695> 1641 264<374.191 555.809 824.191 1005.81>
VStem: 180 200<90 684 876 1126.96> 335 260<1680.71 1865.29> 785 260<1683.71 1868.29>
LayerCount: 2
Fore
SplineSet
785 1776 m 128,-1,1
 785 1831 785 1831 823 1869.5 c 128,-1,2
 861 1908 861 1908 915 1908 c 128,-1,3
 969 1908 969 1908 1007 1869.5 c 128,-1,4
 1045 1831 1045 1831 1045 1776 c 128,-1,5
 1045 1721 1045 1721 1007 1682.5 c 128,-1,6
 969 1644 969 1644 915 1644 c 128,-1,7
 861 1644 861 1644 823 1682.5 c 128,-1,0
 785 1721 785 1721 785 1776 c 128,-1,1
335 1773 m 128,-1,9
 335 1828 335 1828 373 1866.5 c 128,-1,10
 411 1905 411 1905 465 1905 c 128,-1,11
 519 1905 519 1905 557 1866.5 c 128,-1,12
 595 1828 595 1828 595 1773 c 128,-1,13
 595 1718 595 1718 557 1679.5 c 128,-1,14
 519 1641 519 1641 465 1641 c 128,-1,15
 411 1641 411 1641 373 1679.5 c 128,-1,8
 335 1718 335 1718 335 1773 c 128,-1,9
686 1514 m 0,16,17
 793 1514 793 1514 906 1447 c 0,18,19
 1014 1383 1014 1383 1090 1282 c 0,20,21
 1164 1183 1164 1183 1210 1039 c 0,22,23
 1255 897 1255 897 1255 764 c 0,24,25
 1255 611 1255 611 1211 470 c 0,26,27
 1169 335 1169 335 1091 227 c 0,28,29
 1023 133 1023 133 951.5 74 c 128,-1,30
 880 15 880 15 853 0 c 1,31,-1
 616 171 l 1,32,33
 638 159 638 159 648 159 c 0,34,35
 746 159 746 159 873 286 c 1,36,37
 952 367 952 367 1000 493 c 0,38,39
 1033 580 1033 580 1044 684 c 1,40,-1
 380 684 l 1,41,-1
 380 90 l 1,42,-1
 180 0 l 1,43,-1
 180 1065 l 1,44,45
 212 1198 212 1198 317 1324 c 0,46,47
 379 1397 379 1397 470 1447 c 0,48,49
 592 1514 592 1514 686 1514 c 0,16,17
380 876 m 1,50,-1
 1039 874 l 1,51,52
 1026 952 1026 952 995 1038 c 0,53,54
 960 1136 960 1136 868 1227 c 0,55,56
 791 1303 791 1303 686 1303 c 0,57,58
 588 1303 588 1303 505 1227 c 1,59,-1
 493 1215 l 1,60,61
 426 1146 426 1146 380 1050 c 1,62,-1
 380 876 l 1,50,-1
EndSplineSet
Validated: 1
EndChar

StartChar: Aring
Encoding: 197 197 135
Width: 1405
GlyphClass: 2
Flags: W
HStem: 0 21G<180 224.444 825.281 866.5> 684 192<380 1039> 1303 211<545.889 829.695> 1623 141<611.808 764.366> 1953 142<604.25 763.975>
VStem: 180 200<90 684 876 1126.96> 441 148<1786.34 1939.17> 787 152<1785.89 1930.83>
LayerCount: 2
Fore
SplineSet
680 1953 m 0,0,1
 644 1953 644 1953 617 1925 c 0,2,3
 589 1896 589 1896 589 1859 c 0,4,5
 589 1820 589 1820 618 1792 c 128,-1,6
 647 1764 647 1764 688 1764 c 128,-1,7
 729 1764 729 1764 758 1791.5 c 128,-1,8
 787 1819 787 1819 787 1858 c 0,9,10
 787 1894 787 1894 758 1925 c 0,11,12
 732 1953 732 1953 680 1953 c 0,0,1
441 1866 m 0,13,14
 441 1926 441 1926 474 1977 c 0,15,16
 510 2033 510 2033 565 2063 c 1,17,18
 621 2095 621 2095 690 2095 c 0,19,20
 754 2095 754 2095 815 2063 c 0,21,22
 860 2040 860 2040 902 1976 c 0,23,24
 939 1919 939 1919 939 1853 c 0,25,26
 939 1793 939 1793 906 1741 c 0,27,28
 870 1685 870 1685 815 1654 c 128,-1,29
 760 1623 760 1623 690 1623 c 0,30,31
 629 1623 629 1623 565 1655 c 0,32,33
 502 1687 502 1687 469 1739 c 0,34,35
 441 1784 441 1784 441 1866 c 0,13,14
686 1514 m 0,36,37
 793 1514 793 1514 906 1447 c 0,38,39
 1014 1383 1014 1383 1090 1282 c 0,40,41
 1164 1183 1164 1183 1210 1039 c 0,42,43
 1255 897 1255 897 1255 764 c 0,44,45
 1255 611 1255 611 1211 470 c 0,46,47
 1169 335 1169 335 1091 227 c 0,48,49
 1023 133 1023 133 951.5 74 c 128,-1,50
 880 15 880 15 853 0 c 1,51,-1
 616 171 l 1,52,53
 638 159 638 159 648 159 c 0,54,55
 746 159 746 159 873 286 c 1,56,57
 952 367 952 367 1000 493 c 0,58,59
 1033 580 1033 580 1044 684 c 1,60,-1
 380 684 l 1,61,-1
 380 90 l 1,62,-1
 180 0 l 1,63,-1
 180 1065 l 1,64,65
 212 1198 212 1198 317 1324 c 0,66,67
 379 1397 379 1397 470 1447 c 0,68,69
 592 1514 592 1514 686 1514 c 0,36,37
380 876 m 1,70,-1
 1039 874 l 1,71,72
 1026 952 1026 952 995 1038 c 0,73,74
 960 1136 960 1136 868 1227 c 0,75,76
 791 1303 791 1303 686 1303 c 0,77,78
 588 1303 588 1303 505 1227 c 1,79,-1
 493 1215 l 1,80,81
 426 1146 426 1146 380 1050 c 1,82,-1
 380 876 l 1,70,-1
EndSplineSet
Validated: 1
EndChar

StartChar: AE
Encoding: 198 198 136
Width: 2051
GlyphClass: 2
Flags: W
HStem: 0 21G<568.5 609.719> 20 192<1260.01 1786.99> 684 190<396 1055 1255 1797> 1299 192<1424.05 1808> 1303 211<605.305 889.111>
VStem: 1055 200<213.589 683 876 1126.13>
LayerCount: 2
Fore
SplineSet
1563 1491 m 2,0,-1
 1888 1491 l 1,1,-1
 1808 1301 l 1,2,-1
 1563 1299 l 2,3,4
 1464 1298 1464 1298 1382 1223 c 1,5,-1
 1370 1211 l 1,6,7
 1300 1144 1300 1144 1255 1047 c 1,8,-1
 1255 875 l 1,9,-1
 1889 875 l 1,10,-1
 1797 685 l 1,11,-1
 1254 683 l 1,12,-1
 1253 271 l 2,13,14
 1253 216 1253 216 1293 212 c 1,15,-1
 1698 213 l 2,16,17
 1756 213 1756 213 1788 230 c 0,18,19
 1822 247 1822 247 1839 308 c 1,20,-1
 2001 224 l 1,21,22
 1946 33 1946 33 1688 19 c 1,23,-1
 1309 20 l 2,24,25
 1073 21 1073 21 1057 233 c 1,26,-1
 1056 233 l 1,27,-1
 1055 684 l 1,28,-1
 391 684 l 1,29,30
 402 580 402 580 435 493 c 0,31,32
 483 367 483 367 562 286 c 1,33,34
 689 159 689 159 787 159 c 0,35,36
 797 159 797 159 819 171 c 1,37,-1
 582 0 l 1,38,39
 555 15 555 15 483.5 74 c 128,-1,40
 412 133 412 133 344 227 c 0,41,42
 266 335 266 335 224 470 c 0,43,44
 180 611 180 611 180 764 c 0,45,46
 180 897 180 897 225 1039 c 0,47,48
 271 1183 271 1183 345 1282 c 0,49,50
 421 1383 421 1383 529 1447 c 0,51,52
 642 1514 642 1514 749 1514 c 0,53,54
 843 1514 843 1514 965 1447 c 0,55,56
 1058 1396 1058 1396 1118 1324 c 0,57,58
 1143 1294 1143 1294 1164 1263 c 1,59,60
 1178 1282 1178 1282 1194 1301 c 0,61,62
 1255 1374 1255 1374 1347 1424 c 0,63,64
 1469 1491 1469 1491 1563 1491 c 2,0,-1
1055 876 m 1,65,-1
 1055 1050 l 1,66,67
 1009 1146 1009 1146 942 1215 c 1,68,-1
 930 1227 l 1,69,70
 847 1303 847 1303 749 1303 c 0,71,72
 644 1303 644 1303 567 1227 c 0,73,74
 475 1136 475 1136 440 1038 c 0,75,76
 409 951 409 951 396 874 c 1,77,-1
 1055 876 l 1,65,-1
EndSplineSet
Validated: 1
EndChar

StartChar: Ccedilla
Encoding: 199 199 137
Width: 1322
GlyphClass: 2
Flags: W
HStem: -382 21G<676.615 714.361> 1328 190<576.46 861.32>
VStem: 150 207<485.079 1032>
LayerCount: 2
Fore
SplineSet
357 748 m 0,0,1
 357 607 357 607 405 476 c 0,2,3
 456 337 456 337 536 268 c 0,4,5
 627 189 627 189 712 189 c 2,6,-1
 716 189 l 2,7,8
 870 189 870 189 931 349 c 1,9,-1
 938 373 l 1,10,-1
 1172 472 l 1,11,12
 1158 342 1158 342 1092 224 c 0,13,14
 1041 133 1041 133 930 60 c 0,15,16
 863 16 863 16 779 4 c 1,17,-1
 920 -138 l 1,18,-1
 696 -382 l 1,19,-1
 570 -252 l 1,20,-1
 686 -138 l 1,21,-1
 596 -46 l 1,22,-1
 647 4 l 1,23,24
 568 17 568 17 494 60 c 0,25,26
 390 120 390 120 314 221 c 0,27,28
 239 321 239 321 194 464 c 0,29,30
 150 604 150 604 150 758 c 0,31,32
 150 913 150 913 194 1053.5 c 128,-1,33
 238 1194 238 1194 314 1296 c 0,34,35
 390 1397 390 1397 494 1457.5 c 128,-1,36
 598 1518 598 1518 712 1518 c 128,-1,37
 826 1518 826 1518 932 1456 c 1,38,39
 1083 1366 1083 1366 1160 1195 c 1,40,-1
 1171 1166 l 1,41,-1
 992 1087 l 1,42,43
 974 1179 974 1179 899 1252 c 0,44,45
 821 1328 821 1328 718 1328 c 0,46,47
 620 1328 620 1328 536 1252 c 128,-1,48
 452 1176 452 1176 404.5 1041 c 128,-1,49
 357 906 357 906 357 748 c 0,0,1
EndSplineSet
Validated: 1
EndChar

StartChar: Egrave
Encoding: 200 200 138
Width: 1174
GlyphClass: 2
Flags: W
HStem: 20 192<383.007 909.994> 683 192<375 920> 1299 192<547.048 931>
VStem: 180 195<214.497 683 875 1120.35>
DStem2: 502 1992 372 1866 0.770645 -0.637264<0 384.967>
LayerCount: 2
Fore
SplineSet
502 1992 m 1,0,-1
 814 1734 l 1,1,-1
 684 1608 l 1,2,-1
 372 1866 l 1,3,-1
 502 1992 l 1,0,-1
686 1491 m 2,4,-1
 1011 1491 l 1,5,-1
 931 1301 l 1,6,-1
 686 1299 l 2,7,8
 587 1298 587 1298 505 1223 c 1,9,-1
 493 1211 l 1,10,11
 421 1142 421 1142 375 1041 c 1,12,-1
 375 875 l 1,13,-1
 1012 875 l 1,14,-1
 920 685 l 1,15,-1
 375 683 l 1,16,-1
 376 271 l 2,17,18
 376 216 376 216 416 212 c 1,19,-1
 821 213 l 2,20,21
 879 213 879 213 911 230 c 0,22,23
 945 247 945 247 962 308 c 1,24,-1
 1124 224 l 1,25,26
 1069 33 1069 33 811 19 c 1,27,-1
 432 20 l 2,28,29
 196 21 196 21 180 234 c 1,30,-1
 180 1042 l 1,31,32
 212 1175 212 1175 317 1301 c 0,33,34
 377 1373 377 1373 470 1424 c 0,35,36
 592 1491 592 1491 686 1491 c 2,4,-1
EndSplineSet
Validated: 1
EndChar

StartChar: Eacute
Encoding: 201 201 139
Width: 1174
GlyphClass: 2
Flags: W
HStem: 20 192<383.007 909.994> 683 192<375 920> 1299 192<547.048 931>
VStem: 180 195<214.497 683 875 1120.35>
DStem2: 566 1722 696 1596 0.770645 0.637264<19.8886 404.856>
LayerCount: 2
Fore
SplineSet
878 1980 m 1,0,-1
 1008 1854 l 1,1,-1
 696 1596 l 1,2,-1
 566 1722 l 1,3,-1
 878 1980 l 1,0,-1
686 1491 m 2,4,-1
 1011 1491 l 1,5,-1
 931 1301 l 1,6,-1
 686 1299 l 2,7,8
 587 1298 587 1298 505 1223 c 1,9,-1
 493 1211 l 1,10,11
 421 1142 421 1142 375 1041 c 1,12,-1
 375 875 l 1,13,-1
 1012 875 l 1,14,-1
 920 685 l 1,15,-1
 375 683 l 1,16,-1
 376 271 l 2,17,18
 376 216 376 216 416 212 c 1,19,-1
 821 213 l 2,20,21
 879 213 879 213 911 230 c 0,22,23
 945 247 945 247 962 308 c 1,24,-1
 1124 224 l 1,25,26
 1069 33 1069 33 811 19 c 1,27,-1
 432 20 l 2,28,29
 196 21 196 21 180 234 c 1,30,-1
 180 1042 l 1,31,32
 212 1175 212 1175 317 1301 c 0,33,34
 377 1373 377 1373 470 1424 c 0,35,36
 592 1491 592 1491 686 1491 c 2,4,-1
EndSplineSet
Validated: 1
EndChar

StartChar: Ecircumflex
Encoding: 202 202 140
Width: 1174
GlyphClass: 2
Flags: W
HStem: 20 192<383.007 909.994> 683 192<375 920> 1299 192<547.048 931> 1752 234<571 805>
VStem: 180 195<214.497 683 875 1120.35>
LayerCount: 2
Fore
SplineSet
688 1752 m 1,0,-1
 506 1602 l 1,1,-1
 376 1728 l 1,2,-1
 688 1986 l 1,3,-1
 1000 1728 l 1,4,-1
 870 1602 l 1,5,-1
 688 1752 l 1,0,-1
686 1491 m 2,6,-1
 1011 1491 l 1,7,-1
 931 1301 l 1,8,-1
 686 1299 l 2,9,10
 587 1298 587 1298 505 1223 c 1,11,-1
 493 1211 l 1,12,13
 421 1142 421 1142 375 1041 c 1,14,-1
 375 875 l 1,15,-1
 1012 875 l 1,16,-1
 920 685 l 1,17,-1
 375 683 l 1,18,-1
 376 271 l 2,19,20
 376 216 376 216 416 212 c 1,21,-1
 821 213 l 2,22,23
 879 213 879 213 911 230 c 0,24,25
 945 247 945 247 962 308 c 1,26,-1
 1124 224 l 1,27,28
 1069 33 1069 33 811 19 c 1,29,-1
 432 20 l 2,30,31
 196 21 196 21 180 234 c 1,32,-1
 180 1042 l 1,33,34
 212 1175 212 1175 317 1301 c 0,35,36
 377 1373 377 1373 470 1424 c 0,37,38
 592 1491 592 1491 686 1491 c 2,6,-1
EndSplineSet
Validated: 1
EndChar

StartChar: Edieresis
Encoding: 203 203 141
Width: 1174
GlyphClass: 2
Flags: W
HStem: 20 192<383.007 909.994> 683 192<375 920> 1299 192<547.048 931> 1641 264<374.191 555.809 824.191 1005.81>
VStem: 180 195<214.497 683 875 1120.35> 335 260<1680.71 1865.29> 785 260<1683.71 1868.29>
LayerCount: 2
Fore
SplineSet
785 1776 m 128,-1,1
 785 1831 785 1831 823 1869.5 c 128,-1,2
 861 1908 861 1908 915 1908 c 128,-1,3
 969 1908 969 1908 1007 1869.5 c 128,-1,4
 1045 1831 1045 1831 1045 1776 c 128,-1,5
 1045 1721 1045 1721 1007 1682.5 c 128,-1,6
 969 1644 969 1644 915 1644 c 128,-1,7
 861 1644 861 1644 823 1682.5 c 128,-1,0
 785 1721 785 1721 785 1776 c 128,-1,1
335 1773 m 128,-1,9
 335 1828 335 1828 373 1866.5 c 128,-1,10
 411 1905 411 1905 465 1905 c 128,-1,11
 519 1905 519 1905 557 1866.5 c 128,-1,12
 595 1828 595 1828 595 1773 c 128,-1,13
 595 1718 595 1718 557 1679.5 c 128,-1,14
 519 1641 519 1641 465 1641 c 128,-1,15
 411 1641 411 1641 373 1679.5 c 128,-1,8
 335 1718 335 1718 335 1773 c 128,-1,9
686 1491 m 2,16,-1
 1011 1491 l 1,17,-1
 931 1301 l 1,18,-1
 686 1299 l 2,19,20
 587 1298 587 1298 505 1223 c 1,21,-1
 493 1211 l 1,22,23
 421 1142 421 1142 375 1041 c 1,24,-1
 375 875 l 1,25,-1
 1012 875 l 1,26,-1
 920 685 l 1,27,-1
 375 683 l 1,28,-1
 376 271 l 2,29,30
 376 216 376 216 416 212 c 1,31,-1
 821 213 l 2,32,33
 879 213 879 213 911 230 c 0,34,35
 945 247 945 247 962 308 c 1,36,-1
 1124 224 l 1,37,38
 1069 33 1069 33 811 19 c 1,39,-1
 432 20 l 2,40,41
 196 21 196 21 180 234 c 1,42,-1
 180 1042 l 1,43,44
 212 1175 212 1175 317 1301 c 0,45,46
 377 1373 377 1373 470 1424 c 0,47,48
 592 1491 592 1491 686 1491 c 2,16,-1
EndSplineSet
Validated: 1
EndChar

StartChar: Igrave
Encoding: 204 204 142
Width: 598
GlyphClass: 2
Flags: W
HStem: 0 21G<200 243.043> 1491 20G<353.506 398>
VStem: 200 198<92 1422>
DStem2: 136 1998 6 1872 0.770645 -0.637264<0 384.967>
LayerCount: 2
Fore
SplineSet
136 1998 m 1,0,-1
 448 1740 l 1,1,-1
 318 1614 l 1,2,-1
 6 1872 l 1,3,-1
 136 1998 l 1,0,-1
398 92 m 1,4,-1
 200 0 l 1,5,-1
 200 1422 l 1,6,-1
 398 1511 l 1,7,-1
 398 92 l 1,4,-1
EndSplineSet
Validated: 1
EndChar

StartChar: Iacute
Encoding: 205 205 143
Width: 598
GlyphClass: 2
Flags: W
HStem: 0 21G<200 243.043> 1491 20G<353.506 398>
VStem: 200 198<92 1422>
DStem2: 151 1725 281 1599 0.770645 0.637264<19.8886 404.856>
LayerCount: 2
Fore
SplineSet
463 1983 m 1,0,-1
 593 1857 l 1,1,-1
 281 1599 l 1,2,-1
 151 1725 l 1,3,-1
 463 1983 l 1,0,-1
398 92 m 1,4,-1
 200 0 l 1,5,-1
 200 1422 l 1,6,-1
 398 1511 l 1,7,-1
 398 92 l 1,4,-1
EndSplineSet
Validated: 1
EndChar

StartChar: Icircumflex
Encoding: 206 206 144
Width: 634
GlyphClass: 2
Flags: W
HStem: 0 21G<238 281.043> 1491 20G<391.506 436> 1750 233<200.5 433.5>
VStem: 238 198<92 1422>
LayerCount: 2
Fore
SplineSet
317 1750 m 1,0,-1
 135 1599 l 1,1,-1
 5 1725 l 1,2,-1
 317 1983 l 1,3,-1
 629 1725 l 1,4,-1
 499 1599 l 1,5,-1
 317 1750 l 1,0,-1
436 92 m 1,6,-1
 238 0 l 1,7,-1
 238 1422 l 1,8,-1
 436 1511 l 1,9,-1
 436 92 l 1,6,-1
EndSplineSet
Validated: 1
EndChar

StartChar: Idieresis
Encoding: 207 207 145
Width: 720
GlyphClass: 2
Flags: W
HStem: 0 21G<261 304.043> 1491 20G<414.506 459> 1647 264<44.1914 225.809 494.191 675.809>
VStem: 5 260<1686.71 1871.29> 261 198<92 1422> 455 260<1689.71 1874.29>
LayerCount: 2
Fore
SplineSet
455 1782 m 128,-1,1
 455 1837 455 1837 493 1875.5 c 128,-1,2
 531 1914 531 1914 585 1914 c 128,-1,3
 639 1914 639 1914 677 1875.5 c 128,-1,4
 715 1837 715 1837 715 1782 c 128,-1,5
 715 1727 715 1727 677 1688.5 c 128,-1,6
 639 1650 639 1650 585 1650 c 128,-1,7
 531 1650 531 1650 493 1688.5 c 128,-1,0
 455 1727 455 1727 455 1782 c 128,-1,1
5 1779 m 128,-1,9
 5 1834 5 1834 43 1872.5 c 128,-1,10
 81 1911 81 1911 135 1911 c 128,-1,11
 189 1911 189 1911 227 1872.5 c 128,-1,12
 265 1834 265 1834 265 1779 c 128,-1,13
 265 1724 265 1724 227 1685.5 c 128,-1,14
 189 1647 189 1647 135 1647 c 128,-1,15
 81 1647 81 1647 43 1685.5 c 128,-1,8
 5 1724 5 1724 5 1779 c 128,-1,9
459 92 m 1,16,-1
 261 0 l 1,17,-1
 261 1422 l 1,18,-1
 459 1511 l 1,19,-1
 459 92 l 1,16,-1
EndSplineSet
Validated: 1
EndChar

StartChar: Eth
Encoding: 208 208 146
Width: 1405
GlyphClass: 2
Flags: W
HStem: 20 192<383.202 818.007> 684 198<95 180 375 715> 1305 209<557.635 825.556>
VStem: 180 195<214.408 683 882 1120.52> 1048 207<512.393 1013.16>
LayerCount: 2
Fore
SplineSet
375 683 m 1,0,-1
 376 272 l 1,1,-1
 376 271 l 2,2,3
 376 216 376 216 416 212 c 1,4,-1
 725 213 l 1,5,6
 796 227 796 227 867 297 c 0,7,8
 954 383 954 383 994 486 c 0,9,10
 1048 626 1048 626 1048 778 c 0,11,12
 1048 885 1048 885 995 1038 c 0,13,14
 959 1142 959 1142 868 1227 c 0,15,16
 786 1304 786 1304 695 1305 c 1,17,-1
 687 1305 l 1,18,19
 607 1304 607 1304 505 1223 c 1,20,-1
 493 1211 l 1,21,22
 421 1142 421 1142 375 1041 c 1,23,-1
 375 882 l 1,24,-1
 807 882 l 1,25,-1
 715 684 l 1,26,-1
 375 683 l 1,0,-1
180 1065 m 1,27,28
 212 1198 212 1198 317 1324 c 0,29,30
 377 1396 377 1396 470 1447 c 0,31,32
 592 1514 592 1514 686 1514 c 0,33,34
 793 1514 793 1514 906 1447 c 0,35,36
 1014 1383 1014 1383 1090 1282 c 128,-1,37
 1166 1181 1166 1181 1210 1039 c 0,38,39
 1255 894 1255 894 1255 764 c 0,40,41
 1255 632 1255 632 1209 485 c 0,42,43
 1165 345 1165 345 1089 242 c 0,44,45
 1014 141 1014 141 909 81 c 0,46,47
 802 20 802 20 691 20 c 2,48,-1
 432 20 l 2,49,50
 197 20 197 20 180 234 c 1,51,-1
 180 235 l 1,52,-1
 180 684 l 1,53,-1
 5 684 l 1,54,-1
 95 882 l 1,55,-1
 180 882 l 1,56,-1
 180 1042 l 1,57,-1
 180 1065 l 1,27,28
EndSplineSet
Validated: 1
EndChar

StartChar: Ntilde
Encoding: 209 209 147
Width: 1405
GlyphClass: 2
Flags: W
HStem: 0 21G<180 224.444 825.281 866.5> 1303 211<545.889 829.336> 1613 204<798.095 898.253> 1779 185<530.554 657.676>
VStem: 180 200<90 1126.96> 1048 207<500.947 1013.3>
DStem2: 652 1938 604 1767 0.859047 -0.511898<0.354202 250.577>
LayerCount: 2
Fore
SplineSet
872 1817 m 1,0,1
 896 1818 896 1818 899 1871 c 0,2,3
 900 1889 900 1889 900 1892 c 1,4,-1
 1102 1964 l 1,5,-1
 1101 1929 l 1,6,-1
 1097 1879 l 2,7,8
 1076 1613 1076 1613 911 1613 c 0,9,10
 873 1613 873 1613 815 1646 c 0,11,12
 631 1750 631 1750 604 1767 c 0,13,14
 580 1782 580 1782 557 1779 c 0,15,16
 533 1776 533 1776 520 1685 c 1,17,-1
 315 1611 l 1,18,-1
 318 1646 l 1,19,-1
 321 1676 l 1,20,21
 348 1964 348 1964 563 1964 c 2,22,-1
 564 1964 l 2,23,24
 606 1964 606 1964 652 1938 c 1,25,-1
 798 1851 l 1,26,27
 860 1818 860 1818 872 1817 c 1,0,1
686 1514 m 0,28,29
 793 1514 793 1514 906 1447 c 0,30,31
 1014 1383 1014 1383 1090 1282 c 128,-1,32
 1166 1181 1166 1181 1210 1039 c 0,33,34
 1255 894 1255 894 1255 764 c 0,35,36
 1255 611 1255 611 1211 470 c 0,37,38
 1169 335 1169 335 1091 227 c 0,39,40
 1023 133 1023 133 951.5 74 c 128,-1,41
 880 15 880 15 853 0 c 1,42,-1
 616 171 l 1,43,44
 638 159 638 159 648 159 c 0,45,46
 749 159 749 159 873 286 c 0,47,48
 952 367 952 367 1000 493 c 128,-1,49
 1048 619 1048 619 1048 778 c 0,50,51
 1048 887 1048 887 995 1038 c 0,52,53
 960 1139 960 1139 868 1227 c 0,54,55
 789 1303 789 1303 686 1303 c 0,56,57
 588 1303 588 1303 505 1227 c 1,58,-1
 493 1215 l 1,59,60
 426 1146 426 1146 380 1050 c 1,61,-1
 380 90 l 1,62,-1
 180 0 l 1,63,-1
 180 1065 l 1,64,65
 212 1198 212 1198 317 1324 c 0,66,67
 377 1396 377 1396 470 1447 c 0,68,69
 592 1514 592 1514 686 1514 c 0,28,29
EndSplineSet
Validated: 1
EndChar

StartChar: Ograve
Encoding: 210 210 148
Width: 1424
GlyphClass: 2
Flags: W
HStem: -1 194<576.46 859.972> 1328 190<576.46 858.441>
VStem: 150 207<484.874 1032.07> 1079 195<488.921 1032.06>
DStem2: 522 1992 392 1866 0.770645 -0.637264<0 384.967>
LayerCount: 2
Fore
SplineSet
522 1992 m 1,0,-1
 834 1734 l 1,1,-1
 704 1608 l 1,2,-1
 392 1866 l 1,3,-1
 522 1992 l 1,0,-1
357 760.5 m 128,-1,5
 357 607 357 607 405 476 c 1,6,7
 452 344 452 344 536 268.5 c 128,-1,8
 620 193 620 193 718 193 c 128,-1,9
 816 193 816 193 899 268 c 1,10,11
 981 344 981 344 1030 475.5 c 128,-1,12
 1079 607 1079 607 1079 760 c 0,13,14
 1079 914 1079 914 1030 1045 c 1,15,16
 983 1176 983 1176 899.5 1252 c 128,-1,17
 816 1328 816 1328 718 1328 c 128,-1,18
 620 1328 620 1328 536 1252 c 1,19,20
 454 1176 454 1176 405.5 1045 c 128,-1,4
 357 914 357 914 357 760.5 c 128,-1,5
150 758.5 m 128,-1,22
 150 913 150 913 194 1053.5 c 128,-1,23
 238 1194 238 1194 314 1296 c 0,24,25
 390 1397 390 1397 494 1457.5 c 128,-1,26
 598 1518 598 1518 712 1518 c 128,-1,27
 826 1518 826 1518 930 1457.5 c 128,-1,28
 1034 1397 1034 1397 1110 1296 c 0,29,30
 1186 1194 1186 1194 1230 1053.5 c 128,-1,31
 1274 913 1274 913 1274 758.5 c 128,-1,32
 1274 604 1274 604 1230 463.5 c 128,-1,33
 1186 323 1186 323 1110 221 c 0,34,35
 1034 120 1034 120 930 59.5 c 128,-1,36
 826 -1 826 -1 712 -1 c 128,-1,37
 598 -1 598 -1 494 59.5 c 128,-1,38
 390 120 390 120 314 221 c 0,39,40
 238 323 238 323 194 463.5 c 128,-1,21
 150 604 150 604 150 758.5 c 128,-1,22
EndSplineSet
Validated: 1
EndChar

StartChar: Oacute
Encoding: 211 211 149
Width: 1424
GlyphClass: 2
Flags: W
HStem: -1 194<576.936 860.151> 1328 190<576.432 857.636>
VStem: 150 207<485.096 1031.82> 1079 195<490.543 1030.89>
DStem2: 586 1722 716 1596 0.770645 0.637264<19.8886 404.856>
LayerCount: 2
Fore
SplineSet
357 760 m 128,-1,1
 357 605 357 605 405 476 c 0,2,3
 456 339 456 339 536 268 c 0,4,5
 620 193 620 193 718 193 c 0,6,7
 817 193 817 193 899 268 c 0,8,9
 980 342 980 342 1030 476 c 0,10,11
 1079 607 1079 607 1079 754 c 0,12,13
 1079 757 1079 757 1079 760 c 0,14,15
 1079 913 1079 913 1030 1045 c 0,16,17
 980 1179 980 1179 899 1252 c 0,18,19
 815 1328 815 1328 717 1328 c 0,20,21
 620 1328 620 1328 536 1252 c 0,22,23
 456 1180 456 1180 406 1045 c 0,24,0
 357 915 357 915 357 760 c 128,-1,1
150 758 m 0,25,26
 150 912 150 912 194 1053 c 0,27,28
 238 1195 238 1195 314 1296 c 0,29,30
 389 1396 389 1396 494 1457 c 0,31,32
 598 1518 598 1518 712 1518 c 0,33,34
 824 1518 824 1518 930 1457 c 0,35,36
 1034 1397 1034 1397 1110 1296 c 0,37,38
 1185 1196 1185 1196 1230 1053 c 0,39,40
 1274 912 1274 912 1274 758 c 0,41,42
 1274 605 1274 605 1230 464 c 0,43,44
 1186 322 1186 322 1110 221 c 0,45,46
 1036 122 1036 122 930 60 c 0,47,48
 826 -1 826 -1 712 -1 c 0,49,50
 600 -1 600 -1 494 60 c 0,51,52
 390 120 390 120 314 221 c 128,-1,53
 238 322 238 322 194 464 c 0,54,55
 150 605 150 605 150 758 c 0,25,26
898 1980 m 1,56,-1
 1028 1854 l 1,57,-1
 716 1596 l 1,58,-1
 586 1722 l 1,59,-1
 898 1980 l 1,56,-1
EndSplineSet
Validated: 1
EndChar

StartChar: Ocircumflex
Encoding: 212 212 150
Width: 1424
GlyphClass: 2
Flags: W
HStem: -1 194<576.46 859.972> 1328 190<576.46 858.441> 1752 234<591 825>
VStem: 150 207<484.874 1032.07> 1079 195<488.921 1032.06>
LayerCount: 2
Fore
SplineSet
708 1752 m 1,0,-1
 526 1602 l 1,1,-1
 396 1728 l 1,2,-1
 708 1986 l 1,3,-1
 1020 1728 l 1,4,-1
 890 1602 l 1,5,-1
 708 1752 l 1,0,-1
357 760.5 m 128,-1,7
 357 607 357 607 405 476 c 1,8,9
 452 344 452 344 536 268.5 c 128,-1,10
 620 193 620 193 718 193 c 128,-1,11
 816 193 816 193 899 268 c 1,12,13
 981 344 981 344 1030 475.5 c 128,-1,14
 1079 607 1079 607 1079 760 c 0,15,16
 1079 914 1079 914 1030 1045 c 1,17,18
 983 1176 983 1176 899.5 1252 c 128,-1,19
 816 1328 816 1328 718 1328 c 128,-1,20
 620 1328 620 1328 536 1252 c 1,21,22
 454 1176 454 1176 405.5 1045 c 128,-1,6
 357 914 357 914 357 760.5 c 128,-1,7
150 758.5 m 128,-1,24
 150 913 150 913 194 1053.5 c 128,-1,25
 238 1194 238 1194 314 1296 c 0,26,27
 390 1397 390 1397 494 1457.5 c 128,-1,28
 598 1518 598 1518 712 1518 c 128,-1,29
 826 1518 826 1518 930 1457.5 c 128,-1,30
 1034 1397 1034 1397 1110 1296 c 0,31,32
 1186 1194 1186 1194 1230 1053.5 c 128,-1,33
 1274 913 1274 913 1274 758.5 c 128,-1,34
 1274 604 1274 604 1230 463.5 c 128,-1,35
 1186 323 1186 323 1110 221 c 0,36,37
 1034 120 1034 120 930 59.5 c 128,-1,38
 826 -1 826 -1 712 -1 c 128,-1,39
 598 -1 598 -1 494 59.5 c 128,-1,40
 390 120 390 120 314 221 c 0,41,42
 238 323 238 323 194 463.5 c 128,-1,23
 150 604 150 604 150 758.5 c 128,-1,24
EndSplineSet
Validated: 1
EndChar

StartChar: Otilde
Encoding: 213 213 151
Width: 1424
GlyphClass: 2
Flags: W
HStem: -1 194<576.46 859.972> 1328 190<576.46 858.441> 1613 204<818.095 918.253> 1779 185<550.554 677.676>
VStem: 150 207<484.874 1032.07> 1079 195<488.921 1032.06>
DStem2: 672 1938 624 1767 0.859047 -0.511898<0.354202 250.577>
LayerCount: 2
Fore
SplineSet
892 1817 m 1,0,1
 916 1818 916 1818 919 1871 c 0,2,3
 920 1889 920 1889 920 1892 c 1,4,-1
 1122 1964 l 1,5,-1
 1121 1929 l 1,6,-1
 1117 1879 l 2,7,8
 1096 1613 1096 1613 931 1613 c 0,9,10
 893 1613 893 1613 835 1646 c 0,11,12
 651 1750 651 1750 624 1767 c 0,13,14
 600 1782 600 1782 577 1779 c 0,15,16
 553 1776 553 1776 540 1685 c 1,17,-1
 335 1611 l 1,18,-1
 338 1646 l 1,19,-1
 341 1676 l 1,20,21
 368 1964 368 1964 583 1964 c 2,22,-1
 584 1964 l 2,23,24
 626 1964 626 1964 672 1938 c 1,25,-1
 818 1851 l 1,26,27
 880 1818 880 1818 892 1817 c 1,0,1
357 760.5 m 128,-1,29
 357 607 357 607 405 476 c 1,30,31
 452 344 452 344 536 268.5 c 128,-1,32
 620 193 620 193 718 193 c 128,-1,33
 816 193 816 193 899 268 c 1,34,35
 981 344 981 344 1030 475.5 c 128,-1,36
 1079 607 1079 607 1079 760 c 0,37,38
 1079 914 1079 914 1030 1045 c 1,39,40
 983 1176 983 1176 899.5 1252 c 128,-1,41
 816 1328 816 1328 718 1328 c 128,-1,42
 620 1328 620 1328 536 1252 c 1,43,44
 454 1176 454 1176 405.5 1045 c 128,-1,28
 357 914 357 914 357 760.5 c 128,-1,29
150 758.5 m 128,-1,46
 150 913 150 913 194 1053.5 c 128,-1,47
 238 1194 238 1194 314 1296 c 0,48,49
 390 1397 390 1397 494 1457.5 c 128,-1,50
 598 1518 598 1518 712 1518 c 128,-1,51
 826 1518 826 1518 930 1457.5 c 128,-1,52
 1034 1397 1034 1397 1110 1296 c 0,53,54
 1186 1194 1186 1194 1230 1053.5 c 128,-1,55
 1274 913 1274 913 1274 758.5 c 128,-1,56
 1274 604 1274 604 1230 463.5 c 128,-1,57
 1186 323 1186 323 1110 221 c 0,58,59
 1034 120 1034 120 930 59.5 c 128,-1,60
 826 -1 826 -1 712 -1 c 128,-1,61
 598 -1 598 -1 494 59.5 c 128,-1,62
 390 120 390 120 314 221 c 0,63,64
 238 323 238 323 194 463.5 c 128,-1,45
 150 604 150 604 150 758.5 c 128,-1,46
EndSplineSet
Validated: 1
EndChar

StartChar: Odieresis
Encoding: 214 214 152
Width: 1424
GlyphClass: 2
Flags: W
HStem: -1 194<576.46 859.972> 1328 190<576.46 858.441> 1641 264<394.191 575.809 844.191 1025.81>
VStem: 150 207<484.874 1032.07> 355 260<1680.71 1865.29> 805 260<1683.71 1868.29> 1079 195<488.921 1032.06>
LayerCount: 2
Fore
SplineSet
805 1776 m 128,-1,1
 805 1831 805 1831 843 1869.5 c 128,-1,2
 881 1908 881 1908 935 1908 c 128,-1,3
 989 1908 989 1908 1027 1869.5 c 128,-1,4
 1065 1831 1065 1831 1065 1776 c 128,-1,5
 1065 1721 1065 1721 1027 1682.5 c 128,-1,6
 989 1644 989 1644 935 1644 c 128,-1,7
 881 1644 881 1644 843 1682.5 c 128,-1,0
 805 1721 805 1721 805 1776 c 128,-1,1
355 1773 m 128,-1,9
 355 1828 355 1828 393 1866.5 c 128,-1,10
 431 1905 431 1905 485 1905 c 128,-1,11
 539 1905 539 1905 577 1866.5 c 128,-1,12
 615 1828 615 1828 615 1773 c 128,-1,13
 615 1718 615 1718 577 1679.5 c 128,-1,14
 539 1641 539 1641 485 1641 c 128,-1,15
 431 1641 431 1641 393 1679.5 c 128,-1,8
 355 1718 355 1718 355 1773 c 128,-1,9
357 760.5 m 128,-1,17
 357 607 357 607 405 476 c 1,18,19
 452 344 452 344 536 268.5 c 128,-1,20
 620 193 620 193 718 193 c 128,-1,21
 816 193 816 193 899 268 c 1,22,23
 981 344 981 344 1030 475.5 c 128,-1,24
 1079 607 1079 607 1079 760 c 0,25,26
 1079 914 1079 914 1030 1045 c 1,27,28
 983 1176 983 1176 899.5 1252 c 128,-1,29
 816 1328 816 1328 718 1328 c 128,-1,30
 620 1328 620 1328 536 1252 c 1,31,32
 454 1176 454 1176 405.5 1045 c 128,-1,16
 357 914 357 914 357 760.5 c 128,-1,17
150 758.5 m 128,-1,34
 150 913 150 913 194 1053.5 c 128,-1,35
 238 1194 238 1194 314 1296 c 0,36,37
 390 1397 390 1397 494 1457.5 c 128,-1,38
 598 1518 598 1518 712 1518 c 128,-1,39
 826 1518 826 1518 930 1457.5 c 128,-1,40
 1034 1397 1034 1397 1110 1296 c 0,41,42
 1186 1194 1186 1194 1230 1053.5 c 128,-1,43
 1274 913 1274 913 1274 758.5 c 128,-1,44
 1274 604 1274 604 1230 463.5 c 128,-1,45
 1186 323 1186 323 1110 221 c 0,46,47
 1034 120 1034 120 930 59.5 c 128,-1,48
 826 -1 826 -1 712 -1 c 128,-1,49
 598 -1 598 -1 494 59.5 c 128,-1,50
 390 120 390 120 314 221 c 0,51,52
 238 323 238 323 194 463.5 c 128,-1,33
 150 604 150 604 150 758.5 c 128,-1,34
EndSplineSet
Validated: 1
EndChar

StartChar: multiply
Encoding: 215 215 153
Width: 1092
GlyphClass: 2
Flags: W
HStem: 366 666
VStem: 406 280<559 839>
DStem2: 354 1032 150 955 0.707107 -0.707107<0 272.236 470.226 741.048> 150 443 354 366 0.707107 0.707107<89.8026 362.039 560.029 830.85>
LayerCount: 2
Fore
SplineSet
354 366 m 1,0,-1
 150 443 l 1,1,-1
 406 699 l 1,2,-1
 150 955 l 1,3,-1
 354 1032 l 1,4,-1
 546 839 l 1,5,-1
 738 1030 l 1,6,-1
 943 955 l 1,7,-1
 686 699 l 1,8,-1
 943 443 l 1,9,-1
 738 368 l 1,10,-1
 546 559 l 1,11,-1
 354 366 l 1,0,-1
EndSplineSet
Validated: 16385
EndChar

StartChar: Oslash
Encoding: 216 216 154
Width: 1424
GlyphClass: 2
Flags: W
HStem: -1 194<576.548 859.972> 1328 190<576.46 856.627>
VStem: 150 207<484.934 1032.06> 1079 195<488.921 1031.66>
DStem2: 189 -98 368 -182 0.435903 0.899994<2.42717 275.698 562.193 1447.94 1722.35 1984.44>
LayerCount: 2
Fore
SplineSet
150 758.5 m 128,-1,1
 150 913 150 913 194 1053.5 c 128,-1,2
 238 1194 238 1194 314 1296 c 0,3,4
 390 1397 390 1397 494 1457.5 c 128,-1,5
 598 1518 598 1518 712 1518 c 128,-1,6
 826 1518 826 1518 930 1458 c 1,7,-1
 940 1452 l 1,8,-1
 1054 1688 l 1,9,-1
 1234 1606 l 1,10,-1
 1094 1317 l 1,11,-1
 1110 1296 l 1,12,13
 1186 1194 1186 1194 1230 1053.5 c 128,-1,14
 1274 913 1274 913 1274 758.5 c 128,-1,15
 1274 604 1274 604 1230 463.5 c 128,-1,16
 1186 323 1186 323 1110 221 c 0,17,18
 1034 120 1034 120 930 59.5 c 128,-1,19
 826 -1 826 -1 712 -1 c 128,-1,20
 598 -1 598 -1 494 60 c 1,21,-1
 487 64 l 1,22,-1
 368 -182 l 1,23,-1
 189 -98 l 1,24,-1
 332 198 l 1,25,-1
 314 221 l 1,26,27
 238 323 238 323 194 463.5 c 128,-1,0
 150 604 150 604 150 758.5 c 128,-1,1
357 760 m 0,28,29
 357 609 357 609 405 476 c 0,30,31
 418 440 418 440 434 408 c 1,32,-1
 858 1284 l 1,33,34
 792 1328 792 1328 718 1328 c 0,35,36
 620 1328 620 1328 536 1252 c 1,37,38
 454 1176 454 1176 405.5 1045 c 128,-1,39
 357 914 357 914 357 760 c 0,28,29
998 1119 m 1,40,-1
 572 240 l 1,41,42
 641 193 641 193 718 193 c 0,43,44
 816 193 816 193 899 268 c 1,45,46
 981 344 981 344 1030 475.5 c 128,-1,47
 1079 607 1079 607 1079 760 c 0,48,49
 1079 905 1079 905 1030 1045 c 0,50,51
 1016 1085 1016 1085 998 1119 c 1,40,-1
EndSplineSet
Validated: 1
EndChar

StartChar: Ugrave
Encoding: 217 217 155
Width: 1425
GlyphClass: 2
Flags: W
HStem: 0 212<576.172 858.393> 1494 20G<538.5 579.719 1180.56 1225>
VStem: 150 207<500.697 1011.4> 1025 200<385.964 1424>
DStem2: 522 1992 392 1866 0.770645 -0.637264<0 384.967>
LayerCount: 2
Fore
SplineSet
522 1992 m 1,0,-1
 834 1734 l 1,1,-1
 704 1608 l 1,2,-1
 392 1866 l 1,3,-1
 522 1992 l 1,0,-1
749 1355 m 0,4,5
 661 1355 661 1355 532 1228 c 0,6,7
 454 1151 454 1151 405 1021 c 0,8,9
 357 894 357 894 357 736 c 0,10,11
 357 627 357 627 410 476 c 0,12,13
 445 375 445 375 537 287 c 0,14,15
 615 212 615 212 719 212 c 0,16,17
 817 212 817 212 900 287 c 1,18,-1
 912 299 l 1,19,20
 979 368 979 368 1025 464 c 1,21,-1
 1025 1424 l 1,22,-1
 1225 1514 l 1,23,-1
 1225 449 l 1,24,25
 1192 313 1192 313 1088 190 c 0,26,27
 1027 118 1027 118 935 67 c 0,28,29
 814 0 814 0 719 0 c 0,30,31
 717 0 717 0 716 0 c 128,-1,32
 715 0 715 0 713 0 c 0,33,34
 614 0 614 0 499 67 c 0,35,36
 394 128 394 128 315 233 c 0,37,38
 239 333 239 333 195 475 c 0,39,40
 150 620 150 620 150 750 c 0,41,42
 150 905 150 905 194 1045 c 0,43,44
 236 1179 236 1179 314 1287 c 0,45,46
 383 1383 383 1383 453 1440 c 0,47,48
 525 1499 525 1499 552 1514 c 1,49,-1
 789 1343 l 1,50,51
 768 1355 768 1355 749 1355 c 0,4,5
EndSplineSet
Validated: 1
EndChar

StartChar: Uacute
Encoding: 218 218 156
Width: 1425
GlyphClass: 2
Flags: W
HStem: 0 212<576.172 858.393> 1494 20G<538.5 579.719 1180.56 1225>
VStem: 150 207<500.697 1011.4> 1025 200<385.964 1424>
DStem2: 586 1722 716 1596 0.770645 0.637264<19.8886 404.856>
LayerCount: 2
Fore
SplineSet
898 1980 m 1,0,-1
 1028 1854 l 1,1,-1
 716 1596 l 1,2,-1
 586 1722 l 1,3,-1
 898 1980 l 1,0,-1
749 1355 m 0,4,5
 661 1355 661 1355 532 1228 c 0,6,7
 454 1151 454 1151 405 1021 c 0,8,9
 357 894 357 894 357 736 c 0,10,11
 357 627 357 627 410 476 c 0,12,13
 445 375 445 375 537 287 c 0,14,15
 615 212 615 212 719 212 c 0,16,17
 817 212 817 212 900 287 c 1,18,-1
 912 299 l 1,19,20
 979 368 979 368 1025 464 c 1,21,-1
 1025 1424 l 1,22,-1
 1225 1514 l 1,23,-1
 1225 449 l 1,24,25
 1192 313 1192 313 1088 190 c 0,26,27
 1027 118 1027 118 935 67 c 0,28,29
 814 0 814 0 719 0 c 0,30,31
 717 0 717 0 716 0 c 128,-1,32
 715 0 715 0 713 0 c 0,33,34
 614 0 614 0 499 67 c 0,35,36
 394 128 394 128 315 233 c 0,37,38
 239 333 239 333 195 475 c 0,39,40
 150 620 150 620 150 750 c 0,41,42
 150 905 150 905 194 1045 c 0,43,44
 236 1179 236 1179 314 1287 c 0,45,46
 383 1383 383 1383 453 1440 c 0,47,48
 525 1499 525 1499 552 1514 c 1,49,-1
 789 1343 l 1,50,51
 768 1355 768 1355 749 1355 c 0,4,5
EndSplineSet
Validated: 1
EndChar

StartChar: Ucircumflex
Encoding: 219 219 157
Width: 1425
GlyphClass: 2
Flags: W
HStem: 0 212<576.172 858.393> 1494 20G<538.5 579.719 1180.56 1225> 1752 234<591 825>
VStem: 150 207<500.697 1011.4> 1025 200<385.964 1424>
LayerCount: 2
Fore
SplineSet
708 1752 m 1,0,-1
 526 1602 l 1,1,-1
 396 1728 l 1,2,-1
 708 1986 l 1,3,-1
 1020 1728 l 1,4,-1
 890 1602 l 1,5,-1
 708 1752 l 1,0,-1
749 1355 m 0,6,7
 661 1355 661 1355 532 1228 c 0,8,9
 454 1151 454 1151 405 1021 c 0,10,11
 357 894 357 894 357 736 c 0,12,13
 357 627 357 627 410 476 c 0,14,15
 445 375 445 375 537 287 c 0,16,17
 615 212 615 212 719 212 c 0,18,19
 817 212 817 212 900 287 c 1,20,-1
 912 299 l 1,21,22
 979 368 979 368 1025 464 c 1,23,-1
 1025 1424 l 1,24,-1
 1225 1514 l 1,25,-1
 1225 449 l 1,26,27
 1192 313 1192 313 1088 190 c 0,28,29
 1027 118 1027 118 935 67 c 0,30,31
 814 0 814 0 719 0 c 0,32,33
 717 0 717 0 716 0 c 128,-1,34
 715 0 715 0 713 0 c 0,35,36
 614 0 614 0 499 67 c 0,37,38
 394 128 394 128 315 233 c 0,39,40
 239 333 239 333 195 475 c 0,41,42
 150 620 150 620 150 750 c 0,43,44
 150 905 150 905 194 1045 c 0,45,46
 236 1179 236 1179 314 1287 c 0,47,48
 383 1383 383 1383 453 1440 c 0,49,50
 525 1499 525 1499 552 1514 c 1,51,-1
 789 1343 l 1,52,53
 768 1355 768 1355 749 1355 c 0,6,7
EndSplineSet
Validated: 1
EndChar

StartChar: Udieresis
Encoding: 220 220 158
Width: 1425
GlyphClass: 2
Flags: W
HStem: 0 212<576.172 858.393> 1494 20G<538.5 579.719 1180.56 1225> 1641 264<394.191 575.809 844.191 1025.81>
VStem: 150 207<500.697 1011.4> 355 260<1680.71 1865.29> 805 260<1683.71 1868.29> 1025 200<385.964 1424>
LayerCount: 2
Fore
SplineSet
805 1776 m 128,-1,1
 805 1831 805 1831 843 1869.5 c 128,-1,2
 881 1908 881 1908 935 1908 c 128,-1,3
 989 1908 989 1908 1027 1869.5 c 128,-1,4
 1065 1831 1065 1831 1065 1776 c 128,-1,5
 1065 1721 1065 1721 1027 1682.5 c 128,-1,6
 989 1644 989 1644 935 1644 c 128,-1,7
 881 1644 881 1644 843 1682.5 c 128,-1,0
 805 1721 805 1721 805 1776 c 128,-1,1
355 1773 m 128,-1,9
 355 1828 355 1828 393 1866.5 c 128,-1,10
 431 1905 431 1905 485 1905 c 128,-1,11
 539 1905 539 1905 577 1866.5 c 128,-1,12
 615 1828 615 1828 615 1773 c 128,-1,13
 615 1718 615 1718 577 1679.5 c 128,-1,14
 539 1641 539 1641 485 1641 c 128,-1,15
 431 1641 431 1641 393 1679.5 c 128,-1,8
 355 1718 355 1718 355 1773 c 128,-1,9
749 1355 m 0,16,17
 661 1355 661 1355 532 1228 c 0,18,19
 454 1151 454 1151 405 1021 c 0,20,21
 357 894 357 894 357 736 c 0,22,23
 357 627 357 627 410 476 c 0,24,25
 445 375 445 375 537 287 c 0,26,27
 615 212 615 212 719 212 c 0,28,29
 817 212 817 212 900 287 c 1,30,-1
 912 299 l 1,31,32
 979 368 979 368 1025 464 c 1,33,-1
 1025 1424 l 1,34,-1
 1225 1514 l 1,35,-1
 1225 449 l 1,36,37
 1192 313 1192 313 1088 190 c 0,38,39
 1027 118 1027 118 935 67 c 0,40,41
 814 0 814 0 719 0 c 0,42,43
 717 0 717 0 716 0 c 128,-1,44
 715 0 715 0 713 0 c 0,45,46
 614 0 614 0 499 67 c 0,47,48
 394 128 394 128 315 233 c 0,49,50
 239 333 239 333 195 475 c 0,51,52
 150 620 150 620 150 750 c 0,53,54
 150 905 150 905 194 1045 c 0,55,56
 236 1179 236 1179 314 1287 c 0,57,58
 383 1383 383 1383 453 1440 c 0,59,60
 525 1499 525 1499 552 1514 c 1,61,-1
 789 1343 l 1,62,63
 768 1355 768 1355 749 1355 c 0,16,17
EndSplineSet
Validated: 1
EndChar

StartChar: Yacute
Encoding: 221 221 159
Width: 1375
GlyphClass: 2
Flags: W
HStem: 1 21G<974.047 1032.82> 331 196<484.994 835.639> 1492 20G<487 537.639 1117.86 1174.99>
VStem: 100 200<729.057 1107.31> 975 199<69 431 640.473 1442>
DStem2: 536 1722 666 1596 0.770645 0.637264<19.8886 404.856>
LayerCount: 2
Fore
SplineSet
848 1980 m 1,0,-1
 978 1854 l 1,1,-1
 666 1596 l 1,2,-1
 536 1722 l 1,3,-1
 848 1980 l 1,0,-1
669 331 m 0,4,5
 565 331 565 331 449 384 c 0,6,7
 342 433 342 433 265 513 c 0,8,9
 191 590 191 590 145 702 c 0,10,11
 100 811 100 811 100 916 c 0,12,13
 100 1036 100 1036 144 1146 c 0,14,15
 186 1251 186 1251 264 1335 c 0,16,17
 331 1407 331 1407 403 1454 c 0,18,19
 472 1499 472 1499 502 1512 c 1,20,-1
 739 1379 l 1,21,22
 717 1388 717 1388 707 1388 c 0,23,24
 607 1388 607 1388 482 1289 c 0,25,26
 415 1236 415 1236 355 1128 c 1,27,28
 300 1032 300 1032 300 914 c 0,29,30
 300 793 300 793 360 703 c 0,31,32
 424 608 424 608 487 570 c 0,33,34
 558 527 558 527 676 527 c 0,35,36
 734 527 734 527 836 572 c 1,37,-1
 854 582 l 1,38,39
 935 633 935 633 975 693 c 1,40,-1
 975 1442 l 1,41,-1
 1175 1512 l 1,42,-1
 1174 69 l 1,43,-1
 974 1 l 1,44,-1
 975 431 l 1,45,46
 933 404 933 404 885 384 c 0,47,48
 759 331 759 331 669 331 c 0,4,5
EndSplineSet
Validated: 1
EndChar

StartChar: Thorn
Encoding: 222 222 160
Width: 1133
GlyphClass: 2
Flags: W
HStem: 0 21G<200 243.043> 343 202<398 682.687> 1029 202<398 680.421> 1491 20G<353.506 398>
VStem: 200 198<92 347 545.712 1028.44 1228 1422> 840 193<672.25 901.558>
LayerCount: 2
Fore
SplineSet
488 1231 m 2,0,1
 488 1231 488 1231 492 1231 c 0,2,3
 602 1231 602 1231 752 1171 c 0,4,5
 874 1122 874 1122 958 1010 c 0,6,7
 1033 910 1033 910 1033 790 c 2,8,-1
 1033 787 l 1,9,10
 1032 669 1032 669 958 564 c 0,11,12
 885 461 885 461 757 402 c 0,13,14
 628 343 628 343 482 343 c 0,15,16
 438 343 438 343 398 347 c 1,17,-1
 398 92 l 1,18,-1
 200 0 l 1,19,-1
 200 1422 l 1,20,-1
 398 1511 l 1,21,-1
 398 1228 l 1,22,23
 486 1231 486 1231 488 1231 c 2,0,1
398 1025 m 1,24,-1
 398 549 l 1,25,26
 440 545 440 545 470 545 c 0,27,28
 625 547 625 547 731 616 c 0,29,30
 840 687 840 687 840 785 c 2,31,-1
 840 787 l 1,32,33
 839 890 839 890 731 958 c 0,34,35
 619 1029 619 1029 474 1029 c 2,36,-1
 470 1029 l 2,37,38
 433 1029 433 1029 398 1025 c 1,24,-1
EndSplineSet
Validated: 1
EndChar

StartChar: germandbls
Encoding: 223 223 161
Width: 1359
GlyphClass: 2
Flags: W
HStem: 0 21G<180 223.556> 21 189<578 917.571> 1317 195<563.769 833.62>
VStem: 180 196<90 1120.85> 901 196<1003.17 1247.96> 1013 196<306.824 619.028>
LayerCount: 2
Fore
SplineSet
180 0 m 1,0,-1
 180 1063 l 1,1,2
 212 1196 212 1196 317 1322 c 0,3,4
 377 1394 377 1394 470 1445 c 0,5,6
 592 1512 592 1512 686 1512 c 0,7,8
 811 1512 811 1512 896 1458 c 0,9,10
 979 1405 979 1405 1010 1369 c 0,11,12
 1097 1269 1097 1269 1097 1130 c 0,13,14
 1097 1005 1097 1005 1011 910 c 1,15,-1
 961 872 l 1,16,17
 1018 854 1018 854 1069 802 c 0,18,19
 1209 659 1209 659 1209 465 c 2,20,-1
 1209 462 l 1,21,22
 1208 270 1208 270 1084 145 c 0,23,24
 960 21 960 21 733 21 c 2,25,-1
 578 21 l 1,26,-1
 475 210 l 1,27,-1
 728 209 l 2,28,29
 882 209 882 209 945 276 c 0,30,31
 1012 347 1012 347 1013 462 c 1,32,-1
 1013 465 l 2,33,34
 1013 571 1013 571 940 658 c 0,35,36
 857 757 857 757 732 757 c 2,37,-1
 730 757 l 1,38,-1
 646 933 l 1,39,-1
 706 933 l 1,40,41
 827 941 827 941 877 1032 c 0,42,43
 901 1076 901 1076 901 1133 c 0,44,45
 901 1136 901 1136 901 1138 c 0,46,47
 901 1184 901 1184 874 1227 c 0,48,49
 818 1317 818 1317 690 1317 c 0,50,51
 612 1317 612 1317 511 1234 c 1,52,-1
 495 1218 l 1,53,54
 434 1152 434 1152 376 1050 c 1,55,-1
 376 90 l 1,56,57
 180 0 l 1,0,-1
EndSplineSet
Validated: 1
EndChar

StartChar: agrave
Encoding: 224 224 162
Width: 1118
GlyphClass: 2
Flags: W
HStem: 0 193<425.553 640.609> 933 194<426.303 655.801>
VStem: 100 200<352.447 774.136> 783 205<84 774.638>
DStem2: 364 1584 234 1458 0.770645 -0.637264<0 384.967>
LayerCount: 2
Fore
SplineSet
364 1584 m 1,0,-1
 676 1326 l 1,1,-1
 546 1200 l 1,2,-1
 234 1458 l 1,3,-1
 364 1584 l 1,0,-1
542 193 m 0,4,5
 611 193 611 193 650 249 c 0,6,7
 657 259 657 259 661 267 c 1,8,-1
 756 81 l 1,9,10
 750 76 750 76 744 72 c 0,11,12
 651 0 651 0 540 0 c 0,13,14
 422 0 422 0 321 75 c 128,-1,15
 220 150 220 150 160 281 c 128,-1,16
 100 412 100 412 100 564 c 0,17,18
 100 715 100 715 160 846 c 0,19,20
 221 978 221 978 321 1052 c 0,21,22
 423 1127 423 1127 544 1127 c 0,23,24
 653 1127 653 1127 767 1052 c 0,25,26
 857 993 857 993 928 846 c 0,27,28
 988 722 988 722 988 564 c 2,29,-1
 988 560 l 1,30,-1
 986 84 l 1,31,-1
 790 0 l 1,32,-1
 783 563 l 2,33,34
 783 565 783 565 783 567 c 128,-1,35
 783 569 783 569 783 571 c 0,36,37
 783 715 783 715 712 824 c 128,-1,38
 641 933 641 933 542 933 c 0,39,40
 440 933 440 933 371 824 c 0,41,42
 300 712 300 712 300 564 c 0,43,44
 300 414 300 414 371 302 c 0,45,46
 440 193 440 193 542 193 c 0,4,5
EndSplineSet
Validated: 16385
EndChar

StartChar: aacute
Encoding: 225 225 163
Width: 1118
GlyphClass: 2
Flags: W
HStem: 0 193<425.553 640.609> 933 194<426.303 655.801>
VStem: 100 200<352.447 774.136> 783 205<84 774.638>
DStem2: 424 1318 554 1192 0.770645 0.637264<19.8886 404.856>
LayerCount: 2
Fore
SplineSet
736 1576 m 1,0,-1
 866 1450 l 1,1,-1
 554 1192 l 1,2,-1
 424 1318 l 1,3,-1
 736 1576 l 1,0,-1
542 193 m 0,4,5
 611 193 611 193 650 249 c 0,6,7
 657 259 657 259 661 267 c 1,8,-1
 756 81 l 1,9,10
 750 76 750 76 744 72 c 0,11,12
 651 0 651 0 540 0 c 0,13,14
 422 0 422 0 321 75 c 128,-1,15
 220 150 220 150 160 281 c 128,-1,16
 100 412 100 412 100 564 c 0,17,18
 100 715 100 715 160 846 c 0,19,20
 221 978 221 978 321 1052 c 0,21,22
 423 1127 423 1127 544 1127 c 0,23,24
 653 1127 653 1127 767 1052 c 0,25,26
 857 993 857 993 928 846 c 0,27,28
 988 722 988 722 988 564 c 2,29,-1
 988 560 l 1,30,-1
 986 84 l 1,31,-1
 790 0 l 1,32,-1
 783 563 l 2,33,34
 783 565 783 565 783 567 c 128,-1,35
 783 569 783 569 783 571 c 0,36,37
 783 715 783 715 712 824 c 128,-1,38
 641 933 641 933 542 933 c 0,39,40
 440 933 440 933 371 824 c 0,41,42
 300 712 300 712 300 564 c 0,43,44
 300 414 300 414 371 302 c 0,45,46
 440 193 440 193 542 193 c 0,4,5
EndSplineSet
Validated: 16385
EndChar

StartChar: acircumflex
Encoding: 226 226 164
Width: 1118
GlyphClass: 2
Flags: W
HStem: 0 193<425.553 640.609> 933 194<426.303 655.801> 1350 234<415 649>
VStem: 100 200<352.447 774.136> 783 205<84 774.638>
LayerCount: 2
Fore
SplineSet
532 1350 m 1,0,-1
 350 1200 l 1,1,-1
 220 1326 l 1,2,-1
 532 1584 l 1,3,-1
 844 1326 l 1,4,-1
 714 1200 l 1,5,-1
 532 1350 l 1,0,-1
542 193 m 0,6,7
 611 193 611 193 650 249 c 0,8,9
 657 259 657 259 661 267 c 1,10,-1
 756 81 l 1,11,12
 750 76 750 76 744 72 c 0,13,14
 651 0 651 0 540 0 c 0,15,16
 422 0 422 0 321 75 c 128,-1,17
 220 150 220 150 160 281 c 128,-1,18
 100 412 100 412 100 564 c 0,19,20
 100 715 100 715 160 846 c 0,21,22
 221 978 221 978 321 1052 c 0,23,24
 423 1127 423 1127 544 1127 c 0,25,26
 653 1127 653 1127 767 1052 c 0,27,28
 857 993 857 993 928 846 c 0,29,30
 988 722 988 722 988 564 c 2,31,-1
 988 560 l 1,32,-1
 986 84 l 1,33,-1
 790 0 l 1,34,-1
 783 563 l 2,35,36
 783 565 783 565 783 567 c 128,-1,37
 783 569 783 569 783 571 c 0,38,39
 783 715 783 715 712 824 c 128,-1,40
 641 933 641 933 542 933 c 0,41,42
 440 933 440 933 371 824 c 0,43,44
 300 712 300 712 300 564 c 0,45,46
 300 414 300 414 371 302 c 0,47,48
 440 193 440 193 542 193 c 0,6,7
EndSplineSet
Validated: 16385
EndChar

StartChar: atilde
Encoding: 227 227 165
Width: 1118
GlyphClass: 2
Flags: W
HStem: 0 193<425.553 640.609> 933 194<426.303 655.801> 1215 204<634.095 734.253> 1381 185<366.554 493.676>
VStem: 100 200<352.447 774.136> 783 205<84 774.638>
DStem2: 488 1540 440 1369 0.859047 -0.511898<0.354202 250.577>
LayerCount: 2
Fore
SplineSet
708 1419 m 1,0,1
 732 1420 732 1420 735 1473 c 0,2,3
 736 1491 736 1491 736 1494 c 1,4,-1
 938 1566 l 1,5,-1
 937 1531 l 1,6,-1
 933 1481 l 2,7,8
 912 1215 912 1215 747 1215 c 0,9,10
 709 1215 709 1215 651 1248 c 0,11,12
 467 1352 467 1352 440 1369 c 0,13,14
 416 1384 416 1384 393 1381 c 0,15,16
 369 1378 369 1378 356 1287 c 1,17,-1
 151 1213 l 1,18,-1
 154 1248 l 1,19,-1
 157 1278 l 1,20,21
 184 1566 184 1566 399 1566 c 2,22,-1
 400 1566 l 2,23,24
 442 1566 442 1566 488 1540 c 1,25,-1
 634 1453 l 1,26,27
 696 1420 696 1420 708 1419 c 1,0,1
542 193 m 0,28,29
 611 193 611 193 650 249 c 0,30,31
 657 259 657 259 661 267 c 1,32,-1
 756 81 l 1,33,34
 750 76 750 76 744 72 c 0,35,36
 651 0 651 0 540 0 c 0,37,38
 422 0 422 0 321 75 c 128,-1,39
 220 150 220 150 160 281 c 128,-1,40
 100 412 100 412 100 564 c 0,41,42
 100 715 100 715 160 846 c 0,43,44
 221 978 221 978 321 1052 c 0,45,46
 423 1127 423 1127 544 1127 c 0,47,48
 653 1127 653 1127 767 1052 c 0,49,50
 857 993 857 993 928 846 c 0,51,52
 988 722 988 722 988 564 c 2,53,-1
 988 560 l 1,54,-1
 986 84 l 1,55,-1
 790 0 l 1,56,-1
 783 563 l 2,57,58
 783 565 783 565 783 567 c 128,-1,59
 783 569 783 569 783 571 c 0,60,61
 783 715 783 715 712 824 c 128,-1,62
 641 933 641 933 542 933 c 0,63,64
 440 933 440 933 371 824 c 0,65,66
 300 712 300 712 300 564 c 0,67,68
 300 414 300 414 371 302 c 0,69,70
 440 193 440 193 542 193 c 0,28,29
EndSplineSet
Validated: 16385
EndChar

StartChar: adieresis
Encoding: 228 228 166
Width: 1118
GlyphClass: 2
Flags: W
HStem: 0 193<425.553 640.609> 933 194<426.303 655.801> 1242 264<218.191 399.809 668.191 849.809>
VStem: 100 200<352.447 774.136> 179 260<1281.71 1466.29> 629 260<1284.71 1469.29> 783 205<84 774.638>
LayerCount: 2
Fore
SplineSet
629 1377 m 128,-1,1
 629 1432 629 1432 667 1470.5 c 128,-1,2
 705 1509 705 1509 759 1509 c 128,-1,3
 813 1509 813 1509 851 1470.5 c 128,-1,4
 889 1432 889 1432 889 1377 c 128,-1,5
 889 1322 889 1322 851 1283.5 c 128,-1,6
 813 1245 813 1245 759 1245 c 128,-1,7
 705 1245 705 1245 667 1283.5 c 128,-1,0
 629 1322 629 1322 629 1377 c 128,-1,1
179 1374 m 128,-1,9
 179 1429 179 1429 217 1467.5 c 128,-1,10
 255 1506 255 1506 309 1506 c 128,-1,11
 363 1506 363 1506 401 1467.5 c 128,-1,12
 439 1429 439 1429 439 1374 c 128,-1,13
 439 1319 439 1319 401 1280.5 c 128,-1,14
 363 1242 363 1242 309 1242 c 128,-1,15
 255 1242 255 1242 217 1280.5 c 128,-1,8
 179 1319 179 1319 179 1374 c 128,-1,9
542 193 m 0,16,17
 611 193 611 193 650 249 c 0,18,19
 657 259 657 259 661 267 c 1,20,-1
 756 81 l 1,21,22
 750 76 750 76 744 72 c 0,23,24
 651 0 651 0 540 0 c 0,25,26
 422 0 422 0 321 75 c 128,-1,27
 220 150 220 150 160 281 c 128,-1,28
 100 412 100 412 100 564 c 0,29,30
 100 715 100 715 160 846 c 0,31,32
 221 978 221 978 321 1052 c 0,33,34
 423 1127 423 1127 544 1127 c 0,35,36
 653 1127 653 1127 767 1052 c 0,37,38
 857 993 857 993 928 846 c 0,39,40
 988 722 988 722 988 564 c 2,41,-1
 988 560 l 1,42,-1
 986 84 l 1,43,-1
 790 0 l 1,44,-1
 783 563 l 2,45,46
 783 565 783 565 783 567 c 128,-1,47
 783 569 783 569 783 571 c 0,48,49
 783 715 783 715 712 824 c 128,-1,50
 641 933 641 933 542 933 c 0,51,52
 440 933 440 933 371 824 c 0,53,54
 300 712 300 712 300 564 c 0,55,56
 300 414 300 414 371 302 c 0,57,58
 440 193 440 193 542 193 c 0,16,17
EndSplineSet
Validated: 16385
EndChar

StartChar: aring
Encoding: 229 229 167
Width: 1118
GlyphClass: 2
Flags: W
HStem: 0 193<425.553 640.609> 933 194<426.303 655.801> 1218 141<464.808 617.366> 1548 142<457.25 616.975>
VStem: 100 200<352.447 774.136> 294 148<1381.34 1534.17> 640 152<1380.89 1525.83> 783 205<84 774.638>
LayerCount: 2
Fore
SplineSet
533 1548 m 0,0,1
 497 1548 497 1548 470 1520 c 0,2,3
 442 1491 442 1491 442 1454 c 0,4,5
 442 1415 442 1415 471 1387 c 128,-1,6
 500 1359 500 1359 541 1359 c 128,-1,7
 582 1359 582 1359 611 1386.5 c 128,-1,8
 640 1414 640 1414 640 1453 c 0,9,10
 640 1489 640 1489 611 1520 c 0,11,12
 585 1548 585 1548 533 1548 c 0,0,1
294 1461 m 0,13,14
 294 1521 294 1521 327 1572 c 0,15,16
 363 1628 363 1628 418 1658 c 1,17,18
 474 1690 474 1690 543 1690 c 0,19,20
 607 1690 607 1690 668 1658 c 0,21,22
 713 1635 713 1635 755 1571 c 0,23,24
 792 1514 792 1514 792 1448 c 0,25,26
 792 1388 792 1388 759 1336 c 0,27,28
 723 1280 723 1280 668 1249 c 128,-1,29
 613 1218 613 1218 543 1218 c 0,30,31
 482 1218 482 1218 418 1250 c 0,32,33
 355 1282 355 1282 322 1334 c 0,34,35
 294 1379 294 1379 294 1461 c 0,13,14
542 193 m 0,36,37
 611 193 611 193 650 249 c 0,38,39
 657 259 657 259 661 267 c 1,40,-1
 756 81 l 1,41,42
 750 76 750 76 744 72 c 0,43,44
 651 0 651 0 540 0 c 0,45,46
 422 0 422 0 321 75 c 128,-1,47
 220 150 220 150 160 281 c 128,-1,48
 100 412 100 412 100 564 c 0,49,50
 100 715 100 715 160 846 c 0,51,52
 221 978 221 978 321 1052 c 0,53,54
 423 1127 423 1127 544 1127 c 0,55,56
 653 1127 653 1127 767 1052 c 0,57,58
 857 993 857 993 928 846 c 0,59,60
 988 722 988 722 988 564 c 2,61,-1
 988 560 l 1,62,-1
 986 84 l 1,63,-1
 790 0 l 1,64,-1
 783 563 l 2,65,66
 783 565 783 565 783 567 c 128,-1,67
 783 569 783 569 783 571 c 0,68,69
 783 715 783 715 712 824 c 128,-1,70
 641 933 641 933 542 933 c 0,71,72
 440 933 440 933 371 824 c 0,73,74
 300 712 300 712 300 564 c 0,75,76
 300 414 300 414 371 302 c 0,77,78
 440 193 440 193 542 193 c 0,36,37
EndSplineSet
Validated: 16385
EndChar

StartChar: ae
Encoding: 230 230 168
Width: 1751
GlyphClass: 2
Flags: W
HStem: 0 193<425.553 640.609 1111.01 1346.61> 933 194<426.303 655.801 1110.25 1349.2>
VStem: 100 200<352.447 774.136> 790 196<84 88 568 758.457>
DStem2: 988 568 1020 371 0.913089 0.407759<0 483.839>
LayerCount: 2
Fore
SplineSet
783 571 m 2,0,1
 781 715 781 715 712 824 c 1,2,3
 641 933 641 933 542 933 c 0,4,5
 440 933 440 933 371 824 c 0,6,7
 300 712 300 712 300 564 c 0,8,9
 300 414 300 414 371 302 c 0,10,11
 440 193 440 193 542 193 c 0,12,13
 611 193 611 193 650 249 c 0,14,15
 657 259 657 259 661 267 c 1,16,-1
 756 81 l 1,17,18
 750 76 750 76 744 72 c 0,19,20
 651 0 651 0 540 0 c 0,21,22
 422 0 422 0 321 75 c 128,-1,23
 220 150 220 150 160 281 c 128,-1,24
 100 412 100 412 100 564 c 0,25,26
 100 715 100 715 160 846 c 0,27,28
 221 978 221 978 321 1052 c 0,29,30
 423 1127 423 1127 544 1127 c 0,31,32
 653 1127 653 1127 767 1052 c 0,33,34
 831 1010 831 1010 886 923 c 1,35,36
 935 1000 935 1000 1004 1051 c 0,37,38
 1105 1126 1105 1126 1227 1126 c 0,39,40
 1346 1126 1346 1126 1450 1051 c 0,41,42
 1534 990 1534 990 1581 891 c 0,43,44
 1620 808 1620 808 1643 683 c 1,45,-1
 1647 651 l 1,46,-1
 1020 371 l 1,47,48
 1036 332 1036 332 1056 301 c 0,49,50
 1127 192 1127 192 1227 192 c 0,51,52
 1333 192 1333 192 1398 301 c 1,53,-1
 1409 320 l 1,54,-1
 1651 429 l 1,55,56
 1636 344 1636 344 1611 280 c 1,57,58
 1558 154 1558 154 1450 74 c 0,59,60
 1349 -1 1349 -1 1227 -1 c 0,61,62
 1100 -1 1100 -1 1004 74 c 0,63,64
 995 81 995 81 986 88 c 1,65,-1
 986 84 l 1,66,-1
 790 0 l 1,67,-1
 783 571 l 2,0,1
987 608 m 1,68,69
 988 588 988 588 988 568 c 1,70,-1
 1429 759 l 1,71,72
 1412 815 1412 815 1387 849 c 0,73,74
 1327 931 1327 931 1227 932 c 1,75,-1
 1225 932 l 2,76,77
 1125 932 1125 932 1059 831 c 0,78,79
 997 736 997 736 987 608 c 1,68,69
EndSplineSet
Validated: 16385
EndChar

StartChar: ccedilla
Encoding: 231 231 169
Width: 1068
GlyphClass: 2
Flags: W
HStem: 933 193<429.74 667.361>
VStem: 100 202<350.685 774.398>
LayerCount: 2
Fore
SplineSet
968 429 m 1,0,1
 951 334 951 334 928 280 c 0,2,3
 875 155 875 155 767 74 c 0,4,5
 699 23 699 23 623 7 c 1,6,-1
 763 -134 l 1,7,-1
 539 -378 l 1,8,-1
 413 -248 l 1,9,-1
 529 -134 l 1,10,-1
 439 -42 l 1,11,-1
 485 4 l 1,12,13
 397 18 397 18 321 74 c 0,14,15
 221 148 221 148 160 280 c 0,16,17
 100 410 100 410 100 563 c 0,18,19
 100 715 100 715 160 846 c 128,-1,20
 220 977 220 977 321 1052 c 0,21,22
 420 1125 420 1125 544 1126 c 1,23,-1
 547 1126 l 2,24,25
 664 1126 664 1126 767 1052 c 0,26,27
 871 977 871 977 917 872 c 2,28,-1
 931 840 l 1,29,-1
 746 758 l 1,30,31
 729 815 729 815 704 850 c 0,32,33
 645 932 645 932 544 933 c 1,34,-1
 542 933 l 2,35,36
 444 933 444 933 373 824 c 128,-1,37
 302 715 302 715 302 566 c 2,38,-1
 302 562 l 2,39,40
 302 408 302 408 373 301 c 0,41,42
 445 192 445 192 542 192 c 2,43,-1
 544 192 l 2,44,45
 649 192 649 192 715 301 c 1,46,-1
 726 320 l 1,47,-1
 968 429 l 1,0,1
EndSplineSet
Validated: 1
EndChar

StartChar: egrave
Encoding: 232 232 170
Width: 1068
GlyphClass: 2
Flags: W
HStem: 0 193<427.763 661.868> 933 194<425.393 666.702>
VStem: 100 202<568 778.021>
DStem2: 364 1584 234 1458 0.770645 -0.637264<0 384.967> 302 568 337 372 0.913089 0.407759<0 486.98>
LayerCount: 2
Fore
SplineSet
364 1584 m 1,0,-1
 676 1326 l 1,1,-1
 546 1200 l 1,2,-1
 234 1458 l 1,3,-1
 364 1584 l 1,0,-1
960 684 m 1,4,5
 960 684 960 684 964 652 c 1,6,-1
 337 372 l 1,7,8
 353 333 353 333 373 302 c 0,9,10
 444 193 444 193 544 193 c 0,11,12
 650 193 650 193 715 302 c 0,13,14
 721 312 721 312 726 321 c 1,15,-1
 968 430 l 1,16,17
 953 345 953 345 928 281 c 1,18,19
 875 155 875 155 767 75 c 0,20,21
 666 0 666 0 544 0 c 0,22,23
 423 0 423 0 321 75 c 0,24,25
 220 149 220 149 160 281 c 128,-1,26
 100 413 100 413 100 564 c 0,27,28
 100 714 100 714 160 846 c 0,29,30
 219 976 219 976 321 1052 c 0,31,32
 422 1127 422 1127 544 1127 c 0,33,34
 664 1127 664 1127 767 1052 c 0,35,36
 851 992 851 992 898 892 c 0,37,38
 937 809 937 809 960 684 c 1,4,5
302 568 m 1,39,-1
 746 760 l 1,40,41
 729 816 729 816 704 850 c 0,42,43
 644 932 644 932 544 933 c 1,44,45
 544 933 544 933 542 933 c 0,46,47
 442 933 442 933 376 832 c 0,48,49
 304 722 304 722 302 568 c 1,39,-1
EndSplineSet
Validated: 16385
EndChar

StartChar: eacute
Encoding: 233 233 171
Width: 1068
GlyphClass: 2
Flags: W
HStem: 0 193<427.763 661.868> 933 194<425.393 666.702>
VStem: 100 202<568 778.021>
DStem2: 302 568 337 372 0.913089 0.407759<0 486.98> 424 1318 554 1192 0.770645 0.637264<19.8886 404.856>
LayerCount: 2
Fore
SplineSet
736 1576 m 1,0,-1
 866 1450 l 1,1,-1
 554 1192 l 1,2,-1
 424 1318 l 1,3,-1
 736 1576 l 1,0,-1
960 684 m 1,4,5
 960 684 960 684 964 652 c 1,6,-1
 337 372 l 1,7,8
 353 333 353 333 373 302 c 0,9,10
 444 193 444 193 544 193 c 0,11,12
 650 193 650 193 715 302 c 0,13,14
 721 312 721 312 726 321 c 1,15,-1
 968 430 l 1,16,17
 953 345 953 345 928 281 c 1,18,19
 875 155 875 155 767 75 c 0,20,21
 666 0 666 0 544 0 c 0,22,23
 423 0 423 0 321 75 c 0,24,25
 220 149 220 149 160 281 c 128,-1,26
 100 413 100 413 100 564 c 0,27,28
 100 714 100 714 160 846 c 0,29,30
 219 976 219 976 321 1052 c 0,31,32
 422 1127 422 1127 544 1127 c 0,33,34
 664 1127 664 1127 767 1052 c 0,35,36
 851 992 851 992 898 892 c 0,37,38
 937 809 937 809 960 684 c 1,4,5
302 568 m 1,39,-1
 746 760 l 1,40,41
 729 816 729 816 704 850 c 0,42,43
 644 932 644 932 544 933 c 1,44,45
 544 933 544 933 542 933 c 0,46,47
 442 933 442 933 376 832 c 0,48,49
 304 722 304 722 302 568 c 1,39,-1
EndSplineSet
Validated: 16385
EndChar

StartChar: ecircumflex
Encoding: 234 234 172
Width: 1068
GlyphClass: 2
Flags: W
HStem: 0 193<427.763 661.868> 933 194<425.393 666.702> 1350 234<415 649>
VStem: 100 202<568 778.021>
DStem2: 302 568 337 372 0.913089 0.407759<0 486.98>
LayerCount: 2
Fore
SplineSet
532 1350 m 1,0,-1
 350 1200 l 1,1,-1
 220 1326 l 1,2,-1
 532 1584 l 1,3,-1
 844 1326 l 1,4,-1
 714 1200 l 1,5,-1
 532 1350 l 1,0,-1
960 684 m 1,6,7
 960 684 960 684 964 652 c 1,8,-1
 337 372 l 1,9,10
 353 333 353 333 373 302 c 0,11,12
 444 193 444 193 544 193 c 0,13,14
 650 193 650 193 715 302 c 0,15,16
 721 312 721 312 726 321 c 1,17,-1
 968 430 l 1,18,19
 953 345 953 345 928 281 c 1,20,21
 875 155 875 155 767 75 c 0,22,23
 666 0 666 0 544 0 c 0,24,25
 423 0 423 0 321 75 c 0,26,27
 220 149 220 149 160 281 c 128,-1,28
 100 413 100 413 100 564 c 0,29,30
 100 714 100 714 160 846 c 0,31,32
 219 976 219 976 321 1052 c 0,33,34
 422 1127 422 1127 544 1127 c 0,35,36
 664 1127 664 1127 767 1052 c 0,37,38
 851 992 851 992 898 892 c 0,39,40
 937 809 937 809 960 684 c 1,6,7
302 568 m 1,41,-1
 746 760 l 1,42,43
 729 816 729 816 704 850 c 0,44,45
 644 932 644 932 544 933 c 1,46,47
 544 933 544 933 542 933 c 0,48,49
 442 933 442 933 376 832 c 0,50,51
 304 722 304 722 302 568 c 1,41,-1
EndSplineSet
Validated: 16385
EndChar

StartChar: edieresis
Encoding: 235 235 173
Width: 1068
GlyphClass: 2
Flags: W
HStem: 0 193<427.763 661.868> 933 194<425.393 666.702> 1242 264<218.191 399.809 668.191 849.809>
VStem: 100 202<568 778.021> 179 260<1281.71 1466.29> 629 260<1284.71 1469.29>
DStem2: 302 568 337 372 0.913089 0.407759<0 486.98>
LayerCount: 2
Fore
SplineSet
629 1377 m 128,-1,1
 629 1432 629 1432 667 1470.5 c 128,-1,2
 705 1509 705 1509 759 1509 c 128,-1,3
 813 1509 813 1509 851 1470.5 c 128,-1,4
 889 1432 889 1432 889 1377 c 128,-1,5
 889 1322 889 1322 851 1283.5 c 128,-1,6
 813 1245 813 1245 759 1245 c 128,-1,7
 705 1245 705 1245 667 1283.5 c 128,-1,0
 629 1322 629 1322 629 1377 c 128,-1,1
179 1374 m 128,-1,9
 179 1429 179 1429 217 1467.5 c 128,-1,10
 255 1506 255 1506 309 1506 c 128,-1,11
 363 1506 363 1506 401 1467.5 c 128,-1,12
 439 1429 439 1429 439 1374 c 128,-1,13
 439 1319 439 1319 401 1280.5 c 128,-1,14
 363 1242 363 1242 309 1242 c 128,-1,15
 255 1242 255 1242 217 1280.5 c 128,-1,8
 179 1319 179 1319 179 1374 c 128,-1,9
960 684 m 1,16,17
 964 652 l 1,18,-1
 337 372 l 1,19,20
 353 333 353 333 373 302 c 0,21,22
 444 193 444 193 544 193 c 0,23,24
 650 193 650 193 715 302 c 0,25,26
 721 312 721 312 726 321 c 1,27,-1
 968 430 l 1,28,29
 953 345 953 345 928 281 c 1,30,31
 875 155 875 155 767 75 c 0,32,33
 666 0 666 0 544 0 c 0,34,35
 423 0 423 0 321 75 c 0,36,37
 220 149 220 149 160 281 c 128,-1,38
 100 413 100 413 100 564 c 0,39,40
 100 714 100 714 160 846 c 0,41,42
 219 976 219 976 321 1052 c 0,43,44
 422 1127 422 1127 544 1127 c 0,45,46
 664 1127 664 1127 767 1052 c 0,47,48
 851 992 851 992 898 892 c 0,49,50
 937 809 937 809 960 684 c 1,16,17
302 568 m 1,51,-1
 746 760 l 1,52,53
 729 816 729 816 704 850 c 0,54,55
 644 932 644 932 544 933 c 1,56,57
 544 933 544 933 542 933 c 0,58,59
 442 933 442 933 376 832 c 0,60,61
 304 722 304 722 302 568 c 1,51,-1
EndSplineSet
Validated: 16385
EndChar

StartChar: igrave
Encoding: 236 236 174
Width: 496
GlyphClass: 2
Flags: W
HStem: 0 21G<150 193.077> 1112 20G<301.149 342.077>
VStem: 150 196<91 1038>
DStem2: 136 1584 6 1458 0.770645 -0.637264<0 384.967>
LayerCount: 2
Fore
SplineSet
136 1584 m 1,0,-1
 448 1326 l 1,1,-1
 318 1200 l 1,2,-1
 6 1458 l 1,3,-1
 136 1584 l 1,0,-1
150 0 m 1,4,-1
 150 1038 l 1,5,-1
 342 1132 l 1,6,-1
 346 91 l 1,7,-1
 150 0 l 1,4,-1
EndSplineSet
Validated: 1
EndChar

StartChar: iacute
Encoding: 237 237 175
Width: 496
GlyphClass: 2
Flags: W
HStem: 0 21G<150 193.077> 1112 20G<301.149 342.077>
VStem: 150 196<91 1038>
DStem2: 48 1324 178 1198 0.770645 0.637264<19.8886 404.856>
LayerCount: 2
Fore
SplineSet
360 1582 m 1,0,-1
 490 1456 l 1,1,-1
 178 1198 l 1,2,-1
 48 1324 l 1,3,-1
 360 1582 l 1,0,-1
150 0 m 1,4,-1
 150 1038 l 1,5,-1
 342 1132 l 1,6,-1
 346 91 l 1,7,-1
 150 0 l 1,4,-1
EndSplineSet
Validated: 1
EndChar

StartChar: icircumflex
Encoding: 238 238 176
Width: 634
GlyphClass: 2
Flags: W
HStem: 0 21G<221 264.077> 1112 20G<372.149 413.077> 1360 233<200.5 433.5>
VStem: 221 196<91 1038>
LayerCount: 2
Fore
SplineSet
317 1360 m 1,0,-1
 135 1209 l 1,1,-1
 5 1335 l 1,2,-1
 317 1593 l 1,3,-1
 629 1335 l 1,4,-1
 499 1209 l 1,5,-1
 317 1360 l 1,0,-1
221 0 m 1,6,-1
 221 1038 l 1,7,-1
 413 1132 l 1,8,-1
 417 91 l 1,9,-1
 221 0 l 1,6,-1
EndSplineSet
Validated: 1
EndChar

StartChar: idieresis
Encoding: 239 239 177
Width: 720
GlyphClass: 2
Flags: W
HStem: 0 21G<261 304.077> 1112 20G<412.149 453.077> 1242 264<44.1914 225.809 494.191 675.809>
VStem: 5 260<1281.71 1466.29> 261 196<91 1038> 455 260<1284.71 1469.29>
LayerCount: 2
Fore
SplineSet
455 1377 m 128,-1,1
 455 1432 455 1432 493 1470.5 c 128,-1,2
 531 1509 531 1509 585 1509 c 128,-1,3
 639 1509 639 1509 677 1470.5 c 128,-1,4
 715 1432 715 1432 715 1377 c 128,-1,5
 715 1322 715 1322 677 1283.5 c 128,-1,6
 639 1245 639 1245 585 1245 c 128,-1,7
 531 1245 531 1245 493 1283.5 c 128,-1,0
 455 1322 455 1322 455 1377 c 128,-1,1
5 1374 m 128,-1,9
 5 1429 5 1429 43 1467.5 c 128,-1,10
 81 1506 81 1506 135 1506 c 128,-1,11
 189 1506 189 1506 227 1467.5 c 128,-1,12
 265 1429 265 1429 265 1374 c 128,-1,13
 265 1319 265 1319 227 1280.5 c 128,-1,14
 189 1242 189 1242 135 1242 c 128,-1,15
 81 1242 81 1242 43 1280.5 c 128,-1,8
 5 1319 5 1319 5 1374 c 128,-1,9
261 0 m 1,16,-1
 261 1038 l 1,17,-1
 453 1132 l 1,18,-1
 457 91 l 1,19,-1
 261 0 l 1,16,-1
EndSplineSet
Validated: 1
EndChar

StartChar: eth
Encoding: 240 240 178
Width: 1138
GlyphClass: 2
Flags: W
HStem: 3 193<428.763 659.222> 936 194<427.305 621.045> 1319 194<418.566 530>
VStem: 100 202<353.422 782.73> 786 202<355.237 775.731>
LayerCount: 2
Fore
SplineSet
302 566 m 0,0,1
 302 414 302 414 373 305 c 128,-1,2
 444 196 444 196 544 196 c 0,3,4
 645 196 645 196 715 305 c 0,5,6
 786 416 786 416 786 562 c 0,7,8
 786 564 786 564 786 566 c 0,9,10
 786 716 786 716 715 827 c 0,11,12
 645 936 645 936 544 936 c 0,13,14
 441 936 441 936 369 826 c 1,15,16
 302 717 302 717 302 566 c 0,0,1
100 554 m 0,17,18
 100 719 100 719 160 849 c 0,19,20
 221 981 221 981 321 1055 c 0,21,22
 422 1130 422 1130 544 1130 c 0,23,24
 563 1130 563 1130 582 1128 c 1,25,-1
 504 1296 l 1,26,-1
 530 1319 l 1,27,28
 467 1318 467 1318 417 1276 c 1,29,-1
 282 1417 l 1,30,31
 292 1426 292 1426 309 1438 c 0,32,33
 411 1513 411 1513 532 1513 c 0,34,35
 619 1513 619 1513 699 1472 c 1,36,-1
 864 1620 l 1,37,-1
 956 1422 l 1,38,-1
 857 1332 l 1,39,40
 880 1299 880 1299 916 1232 c 0,41,42
 988 1094 988 1094 988 705 c 2,43,-1
 988 612 l 2,44,45
 988 589 988 589 988 566 c 0,46,47
 988 414 988 414 928 284 c 128,-1,48
 868 154 868 154 767 78 c 0,49,50
 667 3 667 3 544 3 c 0,51,52
 427 3 427 3 321 78 c 0,53,54
 219 150 219 150 159 279 c 0,55,56
 100 406 100 406 100 554 c 0,17,18
714 1204 m 1,57,-1
 622 1122 l 1,58,59
 699 1105 699 1105 767 1055 c 2,60,-1
 775 1049 l 1,61,62
 759 1136 759 1136 714 1204 c 1,57,-1
EndSplineSet
Validated: 1
EndChar

StartChar: ntilde
Encoding: 241 241 179
Width: 1118
GlyphClass: 2
Flags: W
HStem: 0 21G<130 170.851 663 703> 933 194<457.407 689.967> 1215 204<634.095 734.253> 1381 185<366.554 493.676>
VStem: 130 192<94 774.995> 816 202<346.721 773.571>
DStem2: 488 1540 440 1369 0.859047 -0.511898<0.354202 250.577>
LayerCount: 2
Fore
SplineSet
708 1419 m 1,0,1
 732 1420 732 1420 735 1473 c 0,2,3
 736 1491 736 1491 736 1494 c 1,4,-1
 938 1566 l 1,5,-1
 937 1531 l 1,6,-1
 933 1481 l 2,7,8
 912 1215 912 1215 747 1215 c 0,9,10
 709 1215 709 1215 651 1248 c 0,11,12
 467 1352 467 1352 440 1369 c 0,13,14
 416 1384 416 1384 393 1381 c 0,15,16
 369 1378 369 1378 356 1287 c 1,17,-1
 151 1213 l 1,18,-1
 154 1248 l 1,19,-1
 157 1278 l 1,20,21
 184 1566 184 1566 399 1566 c 2,22,-1
 400 1566 l 2,23,24
 442 1566 442 1566 488 1540 c 1,25,-1
 634 1453 l 1,26,27
 696 1420 696 1420 708 1419 c 1,0,1
556 162 m 1,28,29
 556 162 556 162 620 188 c 1,30,31
 682 217 682 217 745 302 c 0,32,33
 816 397 816 397 816 558 c 0,34,35
 816 561 816 561 816 563 c 0,36,37
 816 713 816 713 745 824 c 0,38,39
 675 933 675 933 574 933 c 0,40,41
 479 933 479 933 402 832 c 0,42,43
 322 727 322 727 322 562 c 2,44,-1
 322 94 l 1,45,-1
 130 0 l 1,46,-1
 130 564 l 2,47,48
 130 715 130 715 190 846 c 0,49,50
 251 978 251 978 351 1052 c 0,51,52
 453 1127 453 1127 574 1127 c 0,53,54
 693 1127 693 1127 797 1052 c 0,55,56
 897 979 897 979 958 846 c 0,57,58
 1018 714 1018 714 1018 564 c 0,59,60
 1018 412 1018 412 958 281 c 0,61,62
 896 146 896 146 797 75 c 0,63,64
 732 28 732 28 674 0 c 1,65,66
 652 26 652 26 556 162 c 1,28,29
EndSplineSet
Validated: 16385
EndChar

StartChar: ograve
Encoding: 242 242 180
Width: 1088
GlyphClass: 2
Flags: W
HStem: 3 193<428.763 659.222> 936 194<427.305 660.467>
VStem: 100 202<353.422 782.73> 786 202<355.237 776.571>
DStem2: 364 1584 234 1458 0.770645 -0.637264<0 384.967>
LayerCount: 2
Fore
SplineSet
364 1584 m 1,0,-1
 676 1326 l 1,1,-1
 546 1200 l 1,2,-1
 234 1458 l 1,3,-1
 364 1584 l 1,0,-1
302 566 m 0,4,5
 302 414 302 414 373 305 c 128,-1,6
 444 196 444 196 544 196 c 0,7,8
 645 196 645 196 715 305 c 0,9,10
 786 416 786 416 786 562 c 0,11,12
 786 564 786 564 786 566 c 0,13,14
 786 716 786 716 715 827 c 0,15,16
 645 936 645 936 544 936 c 0,17,18
 441 936 441 936 369 826 c 1,19,20
 302 717 302 717 302 566 c 0,4,5
100 554 m 0,21,22
 100 719 100 719 160 849 c 0,23,24
 221 981 221 981 321 1055 c 0,25,26
 422 1130 422 1130 544 1130 c 0,27,28
 665 1130 665 1130 767 1055 c 0,29,30
 868 981 868 981 928 849 c 128,-1,31
 988 717 988 717 988 566 c 0,32,33
 988 414 988 414 928 284 c 128,-1,34
 868 154 868 154 767 78 c 0,35,36
 667 3 667 3 544 3 c 0,37,38
 427 3 427 3 321 78 c 0,39,40
 219 150 219 150 159 279 c 0,41,42
 100 406 100 406 100 554 c 0,21,22
EndSplineSet
Validated: 16385
EndChar

StartChar: oacute
Encoding: 243 243 181
Width: 1088
GlyphClass: 2
Flags: W
HStem: 3 193<428.763 659.222> 936 194<427.305 660.467>
VStem: 100 202<353.422 782.73> 786 202<355.237 776.571>
DStem2: 424 1318 554 1192 0.770645 0.637264<19.8886 404.856>
LayerCount: 2
Fore
SplineSet
302 566 m 0,0,1
 302 414 302 414 373 305 c 128,-1,2
 444 196 444 196 544 196 c 0,3,4
 645 196 645 196 715 305 c 0,5,6
 786 416 786 416 786 562 c 0,7,8
 786 564 786 564 786 566 c 0,9,10
 786 716 786 716 715 827 c 0,11,12
 645 936 645 936 544 936 c 0,13,14
 441 936 441 936 369 826 c 1,15,16
 302 717 302 717 302 566 c 0,0,1
100 554 m 0,17,18
 100 719 100 719 160 849 c 0,19,20
 221 981 221 981 321 1055 c 0,21,22
 422 1130 422 1130 544 1130 c 0,23,24
 665 1130 665 1130 767 1055 c 0,25,26
 868 981 868 981 928 849 c 128,-1,27
 988 717 988 717 988 566 c 0,28,29
 988 414 988 414 928 284 c 128,-1,30
 868 154 868 154 767 78 c 0,31,32
 667 3 667 3 544 3 c 0,33,34
 427 3 427 3 321 78 c 0,35,36
 219 150 219 150 159 279 c 0,37,38
 100 406 100 406 100 554 c 0,17,18
736 1576 m 1,39,-1
 866 1450 l 1,40,-1
 554 1192 l 1,41,-1
 424 1318 l 1,42,-1
 736 1576 l 1,39,-1
EndSplineSet
Validated: 16385
EndChar

StartChar: ocircumflex
Encoding: 244 244 182
Width: 1088
GlyphClass: 2
Flags: W
HStem: 3 193<428.763 659.222> 936 194<427.305 660.467> 1350 234<415 649>
VStem: 100 202<353.422 782.73> 786 202<355.237 776.571>
LayerCount: 2
Fore
SplineSet
532 1350 m 1,0,-1
 350 1200 l 1,1,-1
 220 1326 l 1,2,-1
 532 1584 l 1,3,-1
 844 1326 l 1,4,-1
 714 1200 l 1,5,-1
 532 1350 l 1,0,-1
302 566 m 0,6,7
 302 414 302 414 373 305 c 128,-1,8
 444 196 444 196 544 196 c 0,9,10
 645 196 645 196 715 305 c 0,11,12
 786 416 786 416 786 562 c 0,13,14
 786 564 786 564 786 566 c 0,15,16
 786 716 786 716 715 827 c 0,17,18
 645 936 645 936 544 936 c 0,19,20
 441 936 441 936 369 826 c 1,21,22
 302 717 302 717 302 566 c 0,6,7
100 554 m 0,23,24
 100 719 100 719 160 849 c 0,25,26
 221 981 221 981 321 1055 c 0,27,28
 422 1130 422 1130 544 1130 c 0,29,30
 665 1130 665 1130 767 1055 c 0,31,32
 868 981 868 981 928 849 c 128,-1,33
 988 717 988 717 988 566 c 0,34,35
 988 414 988 414 928 284 c 128,-1,36
 868 154 868 154 767 78 c 0,37,38
 667 3 667 3 544 3 c 0,39,40
 427 3 427 3 321 78 c 0,41,42
 219 150 219 150 159 279 c 0,43,44
 100 406 100 406 100 554 c 0,23,24
EndSplineSet
Validated: 16385
EndChar

StartChar: otilde
Encoding: 245 245 183
Width: 1088
GlyphClass: 2
Flags: W
HStem: 3 193<428.763 659.222> 936 194<427.305 660.467> 1215 204<634.095 734.253> 1381 185<366.554 493.676>
VStem: 100 202<353.422 782.73> 786 202<355.237 776.571>
DStem2: 488 1540 440 1369 0.859047 -0.511898<0.354202 250.577>
LayerCount: 2
Fore
SplineSet
708 1419 m 1,0,1
 732 1420 732 1420 735 1473 c 0,2,3
 736 1491 736 1491 736 1494 c 1,4,-1
 938 1566 l 1,5,-1
 937 1531 l 1,6,-1
 933 1481 l 2,7,8
 912 1215 912 1215 747 1215 c 0,9,10
 709 1215 709 1215 651 1248 c 0,11,12
 467 1352 467 1352 440 1369 c 0,13,14
 416 1384 416 1384 393 1381 c 0,15,16
 369 1378 369 1378 356 1287 c 1,17,-1
 151 1213 l 1,18,-1
 154 1248 l 1,19,-1
 157 1278 l 1,20,21
 184 1566 184 1566 399 1566 c 2,22,-1
 400 1566 l 2,23,24
 442 1566 442 1566 488 1540 c 1,25,-1
 634 1453 l 1,26,27
 696 1420 696 1420 708 1419 c 1,0,1
302 566 m 0,28,29
 302 414 302 414 373 305 c 128,-1,30
 444 196 444 196 544 196 c 0,31,32
 645 196 645 196 715 305 c 0,33,34
 786 416 786 416 786 562 c 0,35,36
 786 564 786 564 786 566 c 0,37,38
 786 716 786 716 715 827 c 0,39,40
 645 936 645 936 544 936 c 0,41,42
 441 936 441 936 369 826 c 1,43,44
 302 717 302 717 302 566 c 0,28,29
100 554 m 0,45,46
 100 719 100 719 160 849 c 0,47,48
 221 981 221 981 321 1055 c 0,49,50
 422 1130 422 1130 544 1130 c 0,51,52
 665 1130 665 1130 767 1055 c 0,53,54
 868 981 868 981 928 849 c 128,-1,55
 988 717 988 717 988 566 c 0,56,57
 988 414 988 414 928 284 c 128,-1,58
 868 154 868 154 767 78 c 0,59,60
 667 3 667 3 544 3 c 0,61,62
 427 3 427 3 321 78 c 0,63,64
 219 150 219 150 159 279 c 0,65,66
 100 406 100 406 100 554 c 0,45,46
EndSplineSet
Validated: 16385
EndChar

StartChar: odieresis
Encoding: 246 246 184
Width: 1088
GlyphClass: 2
Flags: W
HStem: 3 193<428.763 659.222> 936 194<427.305 660.467> 1242 264<218.191 399.809 668.191 849.809>
VStem: 100 202<353.422 782.73> 179 260<1281.71 1466.29> 629 260<1284.71 1469.29> 786 202<355.237 776.571>
LayerCount: 2
Fore
SplineSet
629 1377 m 128,-1,1
 629 1432 629 1432 667 1470.5 c 128,-1,2
 705 1509 705 1509 759 1509 c 128,-1,3
 813 1509 813 1509 851 1470.5 c 128,-1,4
 889 1432 889 1432 889 1377 c 128,-1,5
 889 1322 889 1322 851 1283.5 c 128,-1,6
 813 1245 813 1245 759 1245 c 128,-1,7
 705 1245 705 1245 667 1283.5 c 128,-1,0
 629 1322 629 1322 629 1377 c 128,-1,1
179 1374 m 128,-1,9
 179 1429 179 1429 217 1467.5 c 128,-1,10
 255 1506 255 1506 309 1506 c 128,-1,11
 363 1506 363 1506 401 1467.5 c 128,-1,12
 439 1429 439 1429 439 1374 c 128,-1,13
 439 1319 439 1319 401 1280.5 c 128,-1,14
 363 1242 363 1242 309 1242 c 128,-1,15
 255 1242 255 1242 217 1280.5 c 128,-1,8
 179 1319 179 1319 179 1374 c 128,-1,9
302 566 m 0,16,17
 302 414 302 414 373 305 c 128,-1,18
 444 196 444 196 544 196 c 0,19,20
 645 196 645 196 715 305 c 0,21,22
 786 416 786 416 786 562 c 0,23,24
 786 564 786 564 786 566 c 0,25,26
 786 716 786 716 715 827 c 0,27,28
 645 936 645 936 544 936 c 0,29,30
 441 936 441 936 369 826 c 1,31,32
 302 717 302 717 302 566 c 0,16,17
100 554 m 0,33,34
 100 719 100 719 160 849 c 0,35,36
 221 981 221 981 321 1055 c 0,37,38
 422 1130 422 1130 544 1130 c 0,39,40
 665 1130 665 1130 767 1055 c 0,41,42
 868 981 868 981 928 849 c 128,-1,43
 988 717 988 717 988 566 c 0,44,45
 988 414 988 414 928 284 c 128,-1,46
 868 154 868 154 767 78 c 0,47,48
 667 3 667 3 544 3 c 0,49,50
 427 3 427 3 321 78 c 0,51,52
 219 150 219 150 159 279 c 0,53,54
 100 406 100 406 100 554 c 0,33,34
EndSplineSet
Validated: 16385
EndChar

StartChar: divide
Encoding: 247 247 185
Width: 1083
GlyphClass: 2
Flags: W
HStem: 153 264<437.191 618.809> 600 198<170 911> 996 264<452.191 633.809>
VStem: 398 260<192.707 377.293> 413 260<1035.71 1220.29>
LayerCount: 2
Fore
SplineSet
170 798 m 1,0,-1
 1003 798 l 1,1,-1
 911 600 l 1,2,-1
 80 600 l 1,3,-1
 170 798 l 1,0,-1
398 285 m 128,-1,5
 398 340 398 340 436 378.5 c 128,-1,6
 474 417 474 417 528 417 c 128,-1,7
 582 417 582 417 620 378.5 c 128,-1,8
 658 340 658 340 658 285 c 128,-1,9
 658 230 658 230 620 191.5 c 128,-1,10
 582 153 582 153 528 153 c 128,-1,11
 474 153 474 153 436 191.5 c 128,-1,4
 398 230 398 230 398 285 c 128,-1,5
413 1128 m 128,-1,13
 413 1183 413 1183 451 1221.5 c 128,-1,14
 489 1260 489 1260 543 1260 c 128,-1,15
 597 1260 597 1260 635 1221.5 c 128,-1,16
 673 1183 673 1183 673 1128 c 128,-1,17
 673 1073 673 1073 635 1034.5 c 128,-1,18
 597 996 597 996 543 996 c 128,-1,19
 489 996 489 996 451 1034.5 c 128,-1,12
 413 1073 413 1073 413 1128 c 128,-1,13
EndSplineSet
Validated: 16385
EndChar

StartChar: oslash
Encoding: 248 248 186
Width: 1088
GlyphClass: 2
Flags: W
HStem: 3 193<498.334 659.222> 936 194<427.305 611.296>
VStem: 100 202<353.224 782.73> 786 202<355.237 751.339>
DStem2: 139 -98 318 -182 0.421072 0.907027<0 235.197 494.838 1030.9 1315.45 1508.19>
LayerCount: 2
Fore
SplineSet
100 554 m 0,0,1
 100 719 100 719 160 849 c 0,2,3
 221 981 221 981 321 1055 c 0,4,5
 422 1130 422 1130 544 1130 c 0,6,7
 623 1130 623 1130 694 1098 c 1,8,-1
 774 1270 l 1,9,-1
 954 1188 l 1,10,-1
 854 972 l 1,11,12
 896 918 896 918 928 849 c 0,13,14
 988 720 988 720 988 566 c 0,15,16
 988 414 988 414 928 284 c 128,-1,17
 868 154 868 154 767 78 c 0,18,19
 667 3 667 3 544 3 c 0,20,21
 478 3 478 3 415 27 c 1,22,-1
 318 -182 l 1,23,-1
 139 -98 l 1,24,-1
 250 141 l 1,25,26
 196 199 196 199 159 279 c 0,27,28
 100 407 100 407 100 554 c 0,0,1
752 754 m 1,29,-1
 497 203 l 1,30,31
 519 196 519 196 544 196 c 0,32,33
 645 196 645 196 715 305 c 0,34,35
 786 416 786 416 786 562 c 2,36,-1
 786 566 l 2,37,38
 786 669 786 669 752 754 c 1,29,-1
612 922 m 1,39,40
 580 936 580 936 544 936 c 0,41,42
 441 936 441 936 369 826 c 1,43,44
 302 717 302 717 302 566 c 0,45,46
 302 445 302 445 347 351 c 1,47,-1
 612 922 l 1,39,40
EndSplineSet
Validated: 16385
EndChar

